G04 EAGLE Gerber RS-274X export*
G75*
%MOMM*%
%FSLAX34Y34*%
%LPD*%
%INTop Copper*%
%IPPOS*%
%AMOC8*
5,1,8,0,0,1.08239X$1,22.5*%
G01*
%ADD10C,1.879600*%
%ADD11R,1.650000X1.650000*%
%ADD12C,1.650000*%
%ADD13C,0.496800*%
%ADD14C,2.286000*%
%ADD15C,1.778000*%
%ADD16C,2.159000*%
%ADD17C,2.200000*%
%ADD18C,1.700000*%
%ADD19C,0.304800*%
%ADD20C,1.006400*%

G36*
X988342Y10164D02*
X988342Y10164D01*
X988368Y10162D01*
X988515Y10184D01*
X988662Y10201D01*
X988687Y10209D01*
X988713Y10213D01*
X988851Y10268D01*
X988990Y10318D01*
X989012Y10332D01*
X989037Y10342D01*
X989158Y10427D01*
X989283Y10507D01*
X989301Y10526D01*
X989323Y10541D01*
X989422Y10651D01*
X989525Y10758D01*
X989539Y10780D01*
X989556Y10800D01*
X989628Y10930D01*
X989704Y11057D01*
X989712Y11082D01*
X989725Y11105D01*
X989765Y11248D01*
X989810Y11389D01*
X989812Y11415D01*
X989820Y11440D01*
X989839Y11684D01*
X989839Y22371D01*
X989837Y22387D01*
X989838Y22399D01*
X989828Y22466D01*
X989825Y22496D01*
X989819Y22621D01*
X989805Y22668D01*
X989799Y22717D01*
X989757Y22835D01*
X989722Y22956D01*
X989698Y22999D01*
X989682Y23045D01*
X989614Y23151D01*
X989553Y23260D01*
X989519Y23297D01*
X989493Y23338D01*
X989402Y23425D01*
X989318Y23518D01*
X989278Y23546D01*
X989242Y23580D01*
X989134Y23645D01*
X989031Y23716D01*
X988985Y23734D01*
X988943Y23759D01*
X988823Y23797D01*
X988706Y23843D01*
X988658Y23850D01*
X988611Y23865D01*
X988486Y23875D01*
X988362Y23893D01*
X988313Y23889D01*
X988264Y23893D01*
X988140Y23875D01*
X988014Y23864D01*
X987968Y23849D01*
X987919Y23841D01*
X987802Y23795D01*
X987683Y23756D01*
X987641Y23731D01*
X987595Y23713D01*
X987492Y23641D01*
X987385Y23576D01*
X987349Y23542D01*
X987309Y23514D01*
X987225Y23421D01*
X987135Y23333D01*
X987121Y23313D01*
X982575Y18767D01*
X977066Y15586D01*
X970921Y13939D01*
X964559Y13939D01*
X958414Y15586D01*
X952905Y18767D01*
X948407Y23265D01*
X945226Y28774D01*
X943579Y34919D01*
X943579Y41281D01*
X945226Y47426D01*
X948407Y52935D01*
X952905Y57433D01*
X958414Y60614D01*
X964559Y62261D01*
X970921Y62261D01*
X977066Y60614D01*
X982575Y57433D01*
X987126Y52882D01*
X987139Y52862D01*
X987174Y52828D01*
X987204Y52789D01*
X987299Y52707D01*
X987390Y52620D01*
X987432Y52595D01*
X987469Y52563D01*
X987581Y52506D01*
X987689Y52441D01*
X987736Y52426D01*
X987779Y52404D01*
X987901Y52373D01*
X988021Y52335D01*
X988070Y52331D01*
X988117Y52319D01*
X988243Y52317D01*
X988368Y52307D01*
X988417Y52314D01*
X988466Y52313D01*
X988589Y52340D01*
X988713Y52359D01*
X988758Y52377D01*
X988806Y52387D01*
X988920Y52441D01*
X989037Y52487D01*
X989077Y52515D01*
X989121Y52536D01*
X989220Y52615D01*
X989323Y52686D01*
X989356Y52723D01*
X989394Y52753D01*
X989472Y52852D01*
X989556Y52945D01*
X989580Y52988D01*
X989611Y53026D01*
X989664Y53140D01*
X989725Y53250D01*
X989738Y53297D01*
X989759Y53342D01*
X989785Y53464D01*
X989820Y53585D01*
X989825Y53647D01*
X989832Y53682D01*
X989831Y53730D01*
X989839Y53829D01*
X989839Y788316D01*
X989836Y788342D01*
X989838Y788368D01*
X989816Y788515D01*
X989799Y788662D01*
X989791Y788687D01*
X989787Y788713D01*
X989732Y788851D01*
X989682Y788990D01*
X989668Y789012D01*
X989658Y789037D01*
X989573Y789158D01*
X989493Y789283D01*
X989474Y789301D01*
X989459Y789323D01*
X989349Y789422D01*
X989242Y789525D01*
X989220Y789539D01*
X989200Y789556D01*
X989070Y789628D01*
X988943Y789704D01*
X988918Y789712D01*
X988895Y789725D01*
X988752Y789765D01*
X988611Y789810D01*
X988585Y789812D01*
X988560Y789820D01*
X988316Y789839D01*
X11684Y789839D01*
X11658Y789836D01*
X11632Y789838D01*
X11485Y789816D01*
X11338Y789799D01*
X11313Y789791D01*
X11287Y789787D01*
X11149Y789732D01*
X11010Y789682D01*
X10988Y789668D01*
X10963Y789658D01*
X10842Y789573D01*
X10717Y789493D01*
X10699Y789474D01*
X10677Y789459D01*
X10578Y789349D01*
X10475Y789242D01*
X10461Y789220D01*
X10444Y789200D01*
X10372Y789070D01*
X10296Y788943D01*
X10288Y788918D01*
X10275Y788895D01*
X10235Y788752D01*
X10190Y788611D01*
X10188Y788585D01*
X10180Y788560D01*
X10161Y788316D01*
X10161Y11684D01*
X10164Y11658D01*
X10162Y11632D01*
X10184Y11485D01*
X10201Y11338D01*
X10209Y11313D01*
X10213Y11287D01*
X10268Y11149D01*
X10318Y11010D01*
X10332Y10988D01*
X10342Y10963D01*
X10427Y10842D01*
X10507Y10717D01*
X10526Y10699D01*
X10541Y10677D01*
X10651Y10578D01*
X10758Y10475D01*
X10780Y10461D01*
X10800Y10444D01*
X10930Y10372D01*
X11057Y10296D01*
X11082Y10288D01*
X11105Y10275D01*
X11248Y10235D01*
X11389Y10190D01*
X11415Y10188D01*
X11440Y10180D01*
X11684Y10161D01*
X988316Y10161D01*
X988342Y10164D01*
G37*
%LPC*%
G36*
X505646Y175656D02*
X505646Y175656D01*
X500558Y177764D01*
X496664Y181658D01*
X495699Y183987D01*
X495662Y184054D01*
X495634Y184125D01*
X495578Y184206D01*
X495530Y184292D01*
X495479Y184348D01*
X495435Y184411D01*
X495362Y184477D01*
X495296Y184550D01*
X495233Y184593D01*
X495176Y184644D01*
X495090Y184692D01*
X495009Y184748D01*
X494938Y184776D01*
X494871Y184813D01*
X494776Y184840D01*
X494685Y184876D01*
X494609Y184887D01*
X494536Y184908D01*
X494387Y184920D01*
X494340Y184927D01*
X494321Y184925D01*
X494292Y184927D01*
X408389Y184927D01*
X408313Y184919D01*
X408237Y184920D01*
X408140Y184899D01*
X408043Y184887D01*
X407971Y184862D01*
X407896Y184845D01*
X407807Y184803D01*
X407715Y184770D01*
X407651Y184728D01*
X407582Y184696D01*
X407505Y184634D01*
X407422Y184581D01*
X407369Y184526D01*
X407309Y184478D01*
X407248Y184401D01*
X407180Y184330D01*
X407141Y184265D01*
X407093Y184205D01*
X407025Y184072D01*
X407001Y184031D01*
X406995Y184013D01*
X406982Y183987D01*
X406846Y183660D01*
X405290Y182104D01*
X403257Y181261D01*
X389223Y181261D01*
X387190Y182104D01*
X385634Y183660D01*
X384791Y185693D01*
X384791Y193921D01*
X384797Y193956D01*
X384792Y194053D01*
X384797Y194151D01*
X384783Y194227D01*
X384780Y194304D01*
X384752Y194398D01*
X384735Y194494D01*
X384704Y194565D01*
X384683Y194638D01*
X384635Y194724D01*
X384596Y194814D01*
X384550Y194875D01*
X384513Y194943D01*
X384417Y195056D01*
X384388Y195094D01*
X384374Y195106D01*
X384354Y195129D01*
X327824Y251659D01*
X326323Y253160D01*
X325627Y254840D01*
X325627Y335414D01*
X325613Y335539D01*
X325606Y335666D01*
X325593Y335712D01*
X325587Y335760D01*
X325545Y335879D01*
X325510Y336001D01*
X325486Y336043D01*
X325470Y336088D01*
X325401Y336194D01*
X325340Y336305D01*
X325300Y336351D01*
X325281Y336381D01*
X325246Y336415D01*
X325181Y336491D01*
X323350Y338323D01*
X322119Y341293D01*
X322119Y344507D01*
X323350Y347477D01*
X324299Y348427D01*
X324362Y348506D01*
X324431Y348578D01*
X324469Y348642D01*
X324516Y348700D01*
X324559Y348791D01*
X324610Y348877D01*
X324633Y348948D01*
X324665Y349015D01*
X324686Y349113D01*
X324716Y349209D01*
X324722Y349283D01*
X324738Y349356D01*
X324736Y349456D01*
X324744Y349556D01*
X324733Y349630D01*
X324732Y349704D01*
X324708Y349801D01*
X324693Y349901D01*
X324665Y349970D01*
X324647Y350042D01*
X324601Y350131D01*
X324564Y350225D01*
X324521Y350286D01*
X324487Y350352D01*
X324422Y350428D01*
X324365Y350511D01*
X324310Y350561D01*
X324262Y350617D01*
X324181Y350677D01*
X324106Y350744D01*
X324041Y350780D01*
X323981Y350825D01*
X323889Y350864D01*
X323801Y350913D01*
X323729Y350933D01*
X323661Y350963D01*
X323562Y350980D01*
X323466Y351008D01*
X323366Y351016D01*
X323318Y351024D01*
X323282Y351022D01*
X323222Y351027D01*
X295641Y351027D01*
X295515Y351013D01*
X295389Y351006D01*
X295343Y350993D01*
X295295Y350987D01*
X295176Y350945D01*
X295054Y350910D01*
X295012Y350886D01*
X294967Y350870D01*
X294860Y350801D01*
X294750Y350740D01*
X294704Y350700D01*
X294674Y350681D01*
X294640Y350646D01*
X294564Y350581D01*
X283768Y339785D01*
X282088Y339089D01*
X188460Y339089D01*
X188306Y339072D01*
X188152Y339058D01*
X188133Y339052D01*
X188114Y339049D01*
X187968Y338997D01*
X187821Y338948D01*
X187804Y338938D01*
X187786Y338932D01*
X187656Y338848D01*
X187523Y338767D01*
X187509Y338753D01*
X187493Y338743D01*
X187385Y338631D01*
X187275Y338522D01*
X187264Y338506D01*
X187251Y338492D01*
X187171Y338359D01*
X187088Y338228D01*
X187082Y338210D01*
X187072Y338193D01*
X187025Y338045D01*
X186974Y337899D01*
X186972Y337880D01*
X186966Y337861D01*
X186953Y337707D01*
X186937Y337552D01*
X186939Y337533D01*
X186938Y337514D01*
X186961Y337360D01*
X186980Y337206D01*
X186987Y337188D01*
X186990Y337169D01*
X187047Y337025D01*
X187101Y336879D01*
X187113Y336860D01*
X187118Y336845D01*
X187143Y336809D01*
X187228Y336671D01*
X187576Y336191D01*
X188393Y334588D01*
X188949Y332877D01*
X189021Y332422D01*
X178499Y332422D01*
X178473Y332419D01*
X178446Y332421D01*
X178300Y332399D01*
X178152Y332382D01*
X178128Y332373D01*
X178102Y332369D01*
X177964Y332314D01*
X177824Y332264D01*
X177802Y332250D01*
X177778Y332240D01*
X177656Y332156D01*
X177532Y332075D01*
X177513Y332056D01*
X177492Y332042D01*
X177393Y331932D01*
X177289Y331825D01*
X177276Y331802D01*
X177258Y331783D01*
X177187Y331653D01*
X177111Y331526D01*
X177103Y331501D01*
X177090Y331478D01*
X177049Y331335D01*
X177004Y331194D01*
X177002Y331168D01*
X176995Y331142D01*
X176985Y331014D01*
X176902Y331002D01*
X176755Y330985D01*
X176731Y330976D01*
X176705Y330972D01*
X176567Y330917D01*
X176427Y330867D01*
X176405Y330853D01*
X176381Y330843D01*
X176259Y330759D01*
X176134Y330678D01*
X176116Y330659D01*
X176095Y330644D01*
X175995Y330534D01*
X175892Y330428D01*
X175879Y330405D01*
X175861Y330386D01*
X175789Y330256D01*
X175713Y330128D01*
X175705Y330103D01*
X175693Y330080D01*
X175652Y329938D01*
X175607Y329796D01*
X175605Y329770D01*
X175598Y329745D01*
X175578Y329501D01*
X175578Y318979D01*
X175123Y319051D01*
X173412Y319607D01*
X171809Y320424D01*
X170353Y321481D01*
X169081Y322753D01*
X168024Y324209D01*
X167207Y325812D01*
X166855Y326894D01*
X166789Y327039D01*
X166725Y327186D01*
X166717Y327197D01*
X166710Y327211D01*
X166612Y327338D01*
X166517Y327465D01*
X166506Y327475D01*
X166497Y327486D01*
X166373Y327588D01*
X166251Y327691D01*
X166238Y327697D01*
X166227Y327706D01*
X166083Y327777D01*
X165941Y327849D01*
X165927Y327853D01*
X165914Y327859D01*
X165758Y327895D01*
X165603Y327934D01*
X165588Y327934D01*
X165574Y327937D01*
X165414Y327936D01*
X165254Y327939D01*
X165240Y327935D01*
X165226Y327935D01*
X165070Y327898D01*
X164914Y327864D01*
X164901Y327858D01*
X164887Y327855D01*
X164744Y327783D01*
X164599Y327715D01*
X164588Y327705D01*
X164575Y327699D01*
X164452Y327597D01*
X164327Y327497D01*
X164318Y327486D01*
X164307Y327477D01*
X164210Y327350D01*
X164111Y327224D01*
X164103Y327208D01*
X164096Y327199D01*
X164080Y327164D01*
X163999Y327006D01*
X162521Y323437D01*
X159163Y320079D01*
X154775Y318261D01*
X150025Y318261D01*
X145637Y320079D01*
X142279Y323437D01*
X141107Y326266D01*
X141059Y326353D01*
X141019Y326446D01*
X140974Y326505D01*
X140938Y326570D01*
X140871Y326645D01*
X140811Y326725D01*
X140754Y326773D01*
X140704Y326828D01*
X140621Y326885D01*
X140545Y326950D01*
X140478Y326984D01*
X140417Y327027D01*
X140324Y327063D01*
X140234Y327109D01*
X140162Y327127D01*
X140093Y327154D01*
X139993Y327169D01*
X139896Y327193D01*
X139822Y327194D01*
X139748Y327205D01*
X139648Y327197D01*
X139548Y327198D01*
X139475Y327182D01*
X139401Y327176D01*
X139305Y327145D01*
X139207Y327124D01*
X139140Y327092D01*
X139069Y327069D01*
X138983Y327017D01*
X138892Y326974D01*
X138834Y326928D01*
X138771Y326890D01*
X138698Y326819D01*
X138620Y326757D01*
X138574Y326699D01*
X138521Y326647D01*
X138466Y326562D01*
X138404Y326483D01*
X138358Y326394D01*
X138332Y326353D01*
X138320Y326320D01*
X138293Y326266D01*
X137121Y323437D01*
X133763Y320079D01*
X129375Y318261D01*
X124625Y318261D01*
X120237Y320079D01*
X116879Y323437D01*
X115061Y327825D01*
X115061Y332575D01*
X116879Y336963D01*
X120237Y340321D01*
X124625Y342139D01*
X129375Y342139D01*
X133763Y340321D01*
X137121Y336963D01*
X138293Y334134D01*
X138341Y334047D01*
X138382Y333954D01*
X138426Y333895D01*
X138462Y333830D01*
X138529Y333755D01*
X138589Y333675D01*
X138646Y333627D01*
X138696Y333572D01*
X138779Y333514D01*
X138855Y333450D01*
X138922Y333416D01*
X138983Y333373D01*
X139076Y333337D01*
X139166Y333291D01*
X139238Y333273D01*
X139307Y333246D01*
X139406Y333231D01*
X139504Y333207D01*
X139578Y333206D01*
X139652Y333195D01*
X139752Y333203D01*
X139852Y333202D01*
X139925Y333218D01*
X139999Y333224D01*
X140095Y333255D01*
X140193Y333276D01*
X140260Y333308D01*
X140331Y333331D01*
X140417Y333383D01*
X140508Y333426D01*
X140566Y333472D01*
X140629Y333510D01*
X140702Y333581D01*
X140780Y333643D01*
X140826Y333701D01*
X140879Y333753D01*
X140934Y333838D01*
X140996Y333917D01*
X141042Y334006D01*
X141068Y334047D01*
X141080Y334080D01*
X141107Y334134D01*
X142279Y336963D01*
X145637Y340321D01*
X150025Y342139D01*
X154775Y342139D01*
X156024Y341621D01*
X156098Y341600D01*
X156168Y341570D01*
X156265Y341552D01*
X156360Y341525D01*
X156436Y341522D01*
X156511Y341508D01*
X156609Y341513D01*
X156708Y341508D01*
X156783Y341522D01*
X156859Y341526D01*
X156954Y341553D01*
X157050Y341571D01*
X157121Y341601D01*
X157194Y341623D01*
X157280Y341671D01*
X157370Y341710D01*
X157431Y341755D01*
X157498Y341793D01*
X157612Y341890D01*
X157650Y341918D01*
X157662Y341932D01*
X157684Y341951D01*
X163272Y347539D01*
X164952Y348235D01*
X223884Y348235D01*
X223934Y348240D01*
X223984Y348238D01*
X224107Y348260D01*
X224230Y348275D01*
X224278Y348292D01*
X224327Y348301D01*
X224441Y348350D01*
X224558Y348392D01*
X224601Y348419D01*
X224647Y348439D01*
X224747Y348514D01*
X224851Y348581D01*
X224886Y348617D01*
X224927Y348647D01*
X225007Y348742D01*
X225093Y348832D01*
X225119Y348875D01*
X225152Y348913D01*
X225208Y349024D01*
X225272Y349131D01*
X225288Y349179D01*
X225311Y349224D01*
X225341Y349344D01*
X225378Y349463D01*
X225383Y349513D01*
X225395Y349562D01*
X225396Y349686D01*
X225406Y349810D01*
X225399Y349860D01*
X225400Y349910D01*
X225373Y350032D01*
X225355Y350155D01*
X225336Y350202D01*
X225325Y350251D01*
X225272Y350363D01*
X225226Y350479D01*
X225197Y350520D01*
X225176Y350566D01*
X225098Y350663D01*
X225027Y350765D01*
X224990Y350799D01*
X224958Y350838D01*
X224861Y350915D01*
X224768Y350998D01*
X224724Y351023D01*
X224685Y351054D01*
X224467Y351165D01*
X220398Y352851D01*
X216326Y356923D01*
X214121Y362245D01*
X214121Y368005D01*
X216326Y373327D01*
X220398Y377399D01*
X225720Y379604D01*
X231480Y379604D01*
X236802Y377399D01*
X240874Y373327D01*
X243079Y368005D01*
X243079Y362245D01*
X240874Y356923D01*
X236802Y352851D01*
X232733Y351165D01*
X232689Y351141D01*
X232642Y351124D01*
X232537Y351056D01*
X232428Y350996D01*
X232391Y350962D01*
X232349Y350935D01*
X232262Y350845D01*
X232170Y350762D01*
X232142Y350720D01*
X232107Y350684D01*
X232043Y350577D01*
X231972Y350475D01*
X231954Y350428D01*
X231928Y350385D01*
X231890Y350267D01*
X231844Y350151D01*
X231837Y350101D01*
X231822Y350053D01*
X231812Y349929D01*
X231793Y349806D01*
X231798Y349756D01*
X231794Y349706D01*
X231812Y349583D01*
X231822Y349459D01*
X231838Y349411D01*
X231845Y349361D01*
X231891Y349246D01*
X231929Y349127D01*
X231955Y349084D01*
X231974Y349037D01*
X232045Y348935D01*
X232109Y348829D01*
X232144Y348792D01*
X232173Y348751D01*
X232265Y348668D01*
X232352Y348579D01*
X232394Y348551D01*
X232432Y348518D01*
X232541Y348458D01*
X232645Y348390D01*
X232693Y348373D01*
X232737Y348349D01*
X232857Y348315D01*
X232974Y348274D01*
X233024Y348268D01*
X233072Y348254D01*
X233316Y348235D01*
X278653Y348235D01*
X278779Y348249D01*
X278905Y348256D01*
X278951Y348269D01*
X278999Y348275D01*
X279118Y348317D01*
X279240Y348352D01*
X279282Y348376D01*
X279327Y348392D01*
X279434Y348461D01*
X279544Y348522D01*
X279590Y348562D01*
X279620Y348581D01*
X279654Y348616D01*
X279730Y348681D01*
X290526Y359477D01*
X292206Y360173D01*
X348622Y360173D01*
X348722Y360184D01*
X348822Y360186D01*
X348894Y360204D01*
X348968Y360213D01*
X349063Y360247D01*
X349160Y360271D01*
X349226Y360305D01*
X349296Y360330D01*
X349381Y360385D01*
X349470Y360431D01*
X349527Y360479D01*
X349589Y360519D01*
X349659Y360591D01*
X349735Y360656D01*
X349780Y360716D01*
X349831Y360770D01*
X349883Y360856D01*
X349942Y360937D01*
X349972Y361005D01*
X350010Y361069D01*
X350041Y361165D01*
X350080Y361257D01*
X350094Y361330D01*
X350116Y361401D01*
X350124Y361501D01*
X350142Y361600D01*
X350138Y361674D01*
X350144Y361748D01*
X350129Y361848D01*
X350124Y361948D01*
X350104Y362019D01*
X350093Y362093D01*
X350055Y362186D01*
X350028Y362283D01*
X349991Y362348D01*
X349964Y362417D01*
X349907Y362499D01*
X349858Y362587D01*
X349792Y362663D01*
X349765Y362703D01*
X349739Y362727D01*
X349699Y362773D01*
X348750Y363723D01*
X347519Y366693D01*
X347519Y369283D01*
X347505Y369409D01*
X347498Y369535D01*
X347485Y369581D01*
X347479Y369629D01*
X347437Y369748D01*
X347402Y369870D01*
X347378Y369912D01*
X347362Y369957D01*
X347293Y370064D01*
X347232Y370174D01*
X347192Y370220D01*
X347173Y370250D01*
X347138Y370284D01*
X347073Y370360D01*
X290652Y426781D01*
X290553Y426860D01*
X290459Y426944D01*
X290417Y426968D01*
X290379Y426998D01*
X290265Y427052D01*
X290154Y427113D01*
X290108Y427126D01*
X290064Y427147D01*
X289941Y427173D01*
X289819Y427208D01*
X289758Y427213D01*
X289723Y427220D01*
X289675Y427219D01*
X289575Y427227D01*
X62846Y427227D01*
X62770Y427219D01*
X62694Y427220D01*
X62597Y427199D01*
X62500Y427187D01*
X62428Y427162D01*
X62353Y427145D01*
X62264Y427103D01*
X62172Y427070D01*
X62107Y427028D01*
X62039Y426996D01*
X61962Y426934D01*
X61879Y426881D01*
X61826Y426826D01*
X61766Y426778D01*
X61705Y426701D01*
X61637Y426630D01*
X61598Y426565D01*
X61550Y426505D01*
X61482Y426372D01*
X61458Y426331D01*
X61452Y426313D01*
X61439Y426287D01*
X60921Y425037D01*
X57563Y421679D01*
X53994Y420201D01*
X53854Y420123D01*
X53713Y420048D01*
X53702Y420038D01*
X53690Y420031D01*
X53571Y419924D01*
X53451Y419819D01*
X53442Y419807D01*
X53431Y419797D01*
X53340Y419666D01*
X53247Y419536D01*
X53241Y419522D01*
X53233Y419511D01*
X53175Y419362D01*
X53113Y419214D01*
X53111Y419200D01*
X53105Y419186D01*
X53082Y419029D01*
X53056Y418870D01*
X53057Y418856D01*
X53055Y418842D01*
X53068Y418682D01*
X53078Y418523D01*
X53082Y418509D01*
X53083Y418494D01*
X53133Y418342D01*
X53179Y418189D01*
X53186Y418176D01*
X53191Y418163D01*
X53273Y418026D01*
X53353Y417887D01*
X53363Y417876D01*
X53370Y417864D01*
X53482Y417749D01*
X53591Y417632D01*
X53603Y417624D01*
X53613Y417614D01*
X53748Y417527D01*
X53881Y417439D01*
X53896Y417432D01*
X53906Y417426D01*
X53943Y417413D01*
X54106Y417345D01*
X55188Y416993D01*
X56791Y416176D01*
X58247Y415119D01*
X59519Y413847D01*
X60576Y412391D01*
X61393Y410788D01*
X61949Y409077D01*
X62021Y408622D01*
X51499Y408622D01*
X51473Y408619D01*
X51446Y408621D01*
X51300Y408599D01*
X51152Y408582D01*
X51128Y408573D01*
X51102Y408569D01*
X50964Y408514D01*
X50824Y408464D01*
X50802Y408450D01*
X50795Y408447D01*
X50728Y408487D01*
X50703Y408495D01*
X50680Y408507D01*
X50538Y408548D01*
X50396Y408593D01*
X50370Y408595D01*
X50345Y408602D01*
X50101Y408622D01*
X39579Y408622D01*
X39651Y409077D01*
X40207Y410788D01*
X41024Y412391D01*
X42081Y413847D01*
X43353Y415119D01*
X44809Y416176D01*
X46412Y416993D01*
X47494Y417345D01*
X47639Y417411D01*
X47786Y417475D01*
X47797Y417483D01*
X47811Y417490D01*
X47938Y417588D01*
X48065Y417683D01*
X48075Y417694D01*
X48086Y417703D01*
X48188Y417827D01*
X48291Y417949D01*
X48297Y417962D01*
X48306Y417973D01*
X48377Y418117D01*
X48449Y418259D01*
X48453Y418273D01*
X48459Y418286D01*
X48495Y418442D01*
X48534Y418597D01*
X48534Y418612D01*
X48537Y418626D01*
X48536Y418786D01*
X48539Y418946D01*
X48535Y418960D01*
X48535Y418974D01*
X48498Y419130D01*
X48464Y419286D01*
X48458Y419299D01*
X48455Y419313D01*
X48383Y419456D01*
X48315Y419601D01*
X48305Y419612D01*
X48299Y419625D01*
X48197Y419748D01*
X48097Y419873D01*
X48086Y419882D01*
X48077Y419893D01*
X47950Y419990D01*
X47824Y420089D01*
X47808Y420097D01*
X47799Y420104D01*
X47764Y420120D01*
X47606Y420201D01*
X44037Y421679D01*
X40679Y425037D01*
X38861Y429425D01*
X38861Y434175D01*
X40679Y438563D01*
X44037Y441921D01*
X46866Y443093D01*
X46953Y443141D01*
X47045Y443181D01*
X47105Y443226D01*
X47170Y443262D01*
X47245Y443329D01*
X47325Y443389D01*
X47373Y443446D01*
X47428Y443496D01*
X47485Y443579D01*
X47550Y443655D01*
X47584Y443722D01*
X47627Y443783D01*
X47663Y443876D01*
X47709Y443966D01*
X47727Y444038D01*
X47754Y444107D01*
X47769Y444206D01*
X47793Y444304D01*
X47794Y444378D01*
X47805Y444452D01*
X47797Y444552D01*
X47798Y444652D01*
X47782Y444725D01*
X47776Y444799D01*
X47745Y444895D01*
X47724Y444993D01*
X47692Y445060D01*
X47669Y445131D01*
X47617Y445217D01*
X47574Y445308D01*
X47528Y445366D01*
X47490Y445429D01*
X47419Y445502D01*
X47357Y445580D01*
X47299Y445626D01*
X47247Y445679D01*
X47162Y445734D01*
X47083Y445796D01*
X46994Y445842D01*
X46953Y445868D01*
X46920Y445880D01*
X46866Y445907D01*
X44037Y447079D01*
X40679Y450437D01*
X38861Y454825D01*
X38861Y459575D01*
X40679Y463963D01*
X44037Y467321D01*
X48425Y469139D01*
X53175Y469139D01*
X57563Y467321D01*
X60921Y463963D01*
X62739Y459575D01*
X62739Y454825D01*
X60921Y450437D01*
X57563Y447079D01*
X54734Y445907D01*
X54647Y445858D01*
X54555Y445818D01*
X54495Y445774D01*
X54430Y445738D01*
X54355Y445671D01*
X54275Y445611D01*
X54227Y445554D01*
X54172Y445504D01*
X54114Y445421D01*
X54050Y445345D01*
X54016Y445278D01*
X53973Y445217D01*
X53937Y445124D01*
X53891Y445034D01*
X53873Y444962D01*
X53846Y444893D01*
X53831Y444794D01*
X53807Y444696D01*
X53806Y444622D01*
X53795Y444548D01*
X53803Y444448D01*
X53802Y444348D01*
X53818Y444275D01*
X53824Y444201D01*
X53855Y444105D01*
X53876Y444007D01*
X53908Y443940D01*
X53931Y443869D01*
X53983Y443783D01*
X54026Y443692D01*
X54072Y443634D01*
X54111Y443571D01*
X54180Y443499D01*
X54243Y443420D01*
X54302Y443374D01*
X54353Y443321D01*
X54438Y443266D01*
X54517Y443204D01*
X54606Y443158D01*
X54647Y443132D01*
X54680Y443120D01*
X54734Y443093D01*
X57563Y441921D01*
X60921Y438563D01*
X61439Y437313D01*
X61476Y437246D01*
X61504Y437175D01*
X61560Y437095D01*
X61608Y437008D01*
X61659Y436952D01*
X61703Y436889D01*
X61776Y436823D01*
X61842Y436750D01*
X61905Y436707D01*
X61962Y436656D01*
X62048Y436608D01*
X62129Y436552D01*
X62200Y436524D01*
X62267Y436487D01*
X62362Y436460D01*
X62453Y436424D01*
X62529Y436413D01*
X62602Y436392D01*
X62751Y436380D01*
X62798Y436373D01*
X62817Y436375D01*
X62846Y436373D01*
X293010Y436373D01*
X294690Y435677D01*
X353540Y376827D01*
X353639Y376748D01*
X353733Y376664D01*
X353775Y376640D01*
X353813Y376610D01*
X353927Y376556D01*
X354038Y376495D01*
X354084Y376482D01*
X354128Y376461D01*
X354251Y376435D01*
X354373Y376400D01*
X354434Y376395D01*
X354469Y376388D01*
X354517Y376389D01*
X354617Y376381D01*
X357207Y376381D01*
X360177Y375150D01*
X362450Y372877D01*
X363681Y369907D01*
X363681Y366693D01*
X362450Y363723D01*
X361501Y362773D01*
X361438Y362694D01*
X361369Y362622D01*
X361331Y362558D01*
X361284Y362500D01*
X361241Y362409D01*
X361190Y362323D01*
X361167Y362252D01*
X361135Y362185D01*
X361114Y362087D01*
X361084Y361991D01*
X361078Y361917D01*
X361062Y361844D01*
X361064Y361744D01*
X361056Y361644D01*
X361067Y361570D01*
X361068Y361496D01*
X361092Y361399D01*
X361107Y361299D01*
X361135Y361230D01*
X361153Y361158D01*
X361199Y361069D01*
X361236Y360975D01*
X361279Y360914D01*
X361313Y360848D01*
X361378Y360772D01*
X361435Y360689D01*
X361490Y360639D01*
X361538Y360583D01*
X361619Y360523D01*
X361694Y360456D01*
X361759Y360420D01*
X361819Y360375D01*
X361911Y360336D01*
X361999Y360287D01*
X362071Y360267D01*
X362139Y360237D01*
X362238Y360220D01*
X362334Y360192D01*
X362434Y360184D01*
X362482Y360176D01*
X362518Y360178D01*
X362578Y360173D01*
X403875Y360173D01*
X404001Y360187D01*
X404127Y360194D01*
X404173Y360207D01*
X404221Y360213D01*
X404340Y360255D01*
X404462Y360290D01*
X404504Y360314D01*
X404549Y360330D01*
X404656Y360399D01*
X404766Y360460D01*
X404812Y360500D01*
X404842Y360519D01*
X404876Y360554D01*
X404952Y360619D01*
X467310Y422977D01*
X468990Y423673D01*
X533504Y423673D01*
X533580Y423681D01*
X533656Y423680D01*
X533753Y423701D01*
X533850Y423713D01*
X533922Y423738D01*
X533997Y423755D01*
X534086Y423797D01*
X534178Y423830D01*
X534243Y423872D01*
X534312Y423904D01*
X534389Y423966D01*
X534471Y424019D01*
X534524Y424074D01*
X534584Y424122D01*
X534645Y424199D01*
X534713Y424270D01*
X534753Y424335D01*
X534800Y424395D01*
X534868Y424529D01*
X534892Y424569D01*
X534898Y424587D01*
X534911Y424613D01*
X535548Y426151D01*
X539049Y429652D01*
X540838Y430393D01*
X540926Y430441D01*
X541018Y430481D01*
X541078Y430526D01*
X541143Y430562D01*
X541217Y430629D01*
X541298Y430689D01*
X541346Y430746D01*
X541401Y430796D01*
X541458Y430879D01*
X541523Y430955D01*
X541557Y431022D01*
X541599Y431083D01*
X541636Y431176D01*
X541682Y431266D01*
X541700Y431338D01*
X541727Y431407D01*
X541742Y431506D01*
X541766Y431604D01*
X541767Y431678D01*
X541778Y431752D01*
X541769Y431852D01*
X541771Y431952D01*
X541755Y432025D01*
X541749Y432099D01*
X541718Y432195D01*
X541697Y432293D01*
X541665Y432360D01*
X541642Y432431D01*
X541590Y432517D01*
X541547Y432608D01*
X541500Y432666D01*
X541462Y432729D01*
X541392Y432802D01*
X541329Y432880D01*
X541271Y432926D01*
X541219Y432979D01*
X541135Y433034D01*
X541056Y433096D01*
X540966Y433142D01*
X540926Y433168D01*
X540892Y433180D01*
X540838Y433207D01*
X539049Y433948D01*
X535548Y437449D01*
X533653Y442024D01*
X533653Y446976D01*
X535548Y451551D01*
X539049Y455052D01*
X540838Y455793D01*
X540926Y455841D01*
X541018Y455881D01*
X541078Y455926D01*
X541143Y455962D01*
X541217Y456029D01*
X541298Y456089D01*
X541346Y456146D01*
X541401Y456196D01*
X541458Y456279D01*
X541523Y456355D01*
X541557Y456422D01*
X541599Y456483D01*
X541636Y456576D01*
X541682Y456666D01*
X541700Y456738D01*
X541727Y456807D01*
X541742Y456906D01*
X541766Y457004D01*
X541767Y457078D01*
X541778Y457152D01*
X541769Y457252D01*
X541771Y457352D01*
X541755Y457425D01*
X541749Y457499D01*
X541718Y457595D01*
X541697Y457693D01*
X541665Y457760D01*
X541642Y457831D01*
X541590Y457917D01*
X541547Y458008D01*
X541500Y458066D01*
X541462Y458129D01*
X541392Y458202D01*
X541329Y458280D01*
X541271Y458326D01*
X541219Y458379D01*
X541135Y458434D01*
X541056Y458496D01*
X540966Y458542D01*
X540926Y458568D01*
X540892Y458580D01*
X540838Y458607D01*
X539049Y459348D01*
X535548Y462849D01*
X533653Y467424D01*
X533653Y472376D01*
X535548Y476951D01*
X539049Y480452D01*
X540838Y481193D01*
X540926Y481241D01*
X541018Y481281D01*
X541078Y481326D01*
X541143Y481362D01*
X541217Y481429D01*
X541298Y481489D01*
X541346Y481546D01*
X541401Y481596D01*
X541458Y481679D01*
X541523Y481755D01*
X541557Y481822D01*
X541599Y481883D01*
X541636Y481976D01*
X541682Y482066D01*
X541700Y482138D01*
X541727Y482207D01*
X541742Y482306D01*
X541766Y482404D01*
X541767Y482478D01*
X541778Y482552D01*
X541769Y482652D01*
X541771Y482752D01*
X541755Y482825D01*
X541749Y482899D01*
X541718Y482995D01*
X541697Y483093D01*
X541665Y483160D01*
X541642Y483231D01*
X541590Y483317D01*
X541547Y483408D01*
X541500Y483466D01*
X541462Y483529D01*
X541392Y483602D01*
X541329Y483680D01*
X541271Y483726D01*
X541219Y483779D01*
X541135Y483834D01*
X541056Y483896D01*
X540966Y483942D01*
X540926Y483968D01*
X540892Y483980D01*
X540838Y484007D01*
X539049Y484748D01*
X535548Y488249D01*
X533653Y492824D01*
X533653Y497776D01*
X535548Y502351D01*
X539049Y505852D01*
X540838Y506593D01*
X540926Y506641D01*
X541018Y506681D01*
X541078Y506726D01*
X541143Y506762D01*
X541217Y506829D01*
X541298Y506889D01*
X541346Y506946D01*
X541401Y506996D01*
X541458Y507079D01*
X541523Y507155D01*
X541557Y507222D01*
X541599Y507283D01*
X541636Y507376D01*
X541682Y507466D01*
X541700Y507538D01*
X541727Y507607D01*
X541742Y507706D01*
X541766Y507804D01*
X541767Y507878D01*
X541778Y507952D01*
X541769Y508052D01*
X541771Y508152D01*
X541755Y508225D01*
X541749Y508299D01*
X541718Y508395D01*
X541697Y508493D01*
X541665Y508560D01*
X541642Y508631D01*
X541590Y508717D01*
X541547Y508808D01*
X541500Y508866D01*
X541462Y508929D01*
X541392Y509002D01*
X541329Y509080D01*
X541271Y509126D01*
X541219Y509179D01*
X541135Y509234D01*
X541056Y509296D01*
X540966Y509342D01*
X540926Y509368D01*
X540892Y509380D01*
X540838Y509407D01*
X539049Y510148D01*
X535548Y513649D01*
X533653Y518224D01*
X533653Y523176D01*
X535548Y527751D01*
X539049Y531252D01*
X540838Y531993D01*
X540926Y532041D01*
X541018Y532081D01*
X541078Y532126D01*
X541143Y532162D01*
X541217Y532229D01*
X541298Y532289D01*
X541346Y532346D01*
X541401Y532396D01*
X541458Y532479D01*
X541523Y532555D01*
X541557Y532622D01*
X541599Y532683D01*
X541636Y532776D01*
X541682Y532866D01*
X541700Y532938D01*
X541727Y533007D01*
X541742Y533106D01*
X541766Y533204D01*
X541767Y533278D01*
X541778Y533352D01*
X541769Y533452D01*
X541771Y533552D01*
X541755Y533625D01*
X541749Y533699D01*
X541718Y533795D01*
X541697Y533893D01*
X541665Y533960D01*
X541642Y534031D01*
X541590Y534117D01*
X541547Y534208D01*
X541500Y534266D01*
X541462Y534329D01*
X541392Y534402D01*
X541329Y534480D01*
X541271Y534526D01*
X541219Y534579D01*
X541135Y534634D01*
X541056Y534696D01*
X540966Y534742D01*
X540926Y534768D01*
X540892Y534780D01*
X540838Y534807D01*
X539049Y535548D01*
X535548Y539049D01*
X533653Y543624D01*
X533653Y548576D01*
X535548Y553151D01*
X539049Y556652D01*
X540838Y557393D01*
X540926Y557441D01*
X541018Y557481D01*
X541078Y557526D01*
X541143Y557562D01*
X541217Y557629D01*
X541298Y557689D01*
X541346Y557746D01*
X541401Y557796D01*
X541458Y557879D01*
X541523Y557955D01*
X541557Y558022D01*
X541599Y558083D01*
X541636Y558176D01*
X541682Y558266D01*
X541700Y558338D01*
X541727Y558407D01*
X541742Y558506D01*
X541766Y558604D01*
X541767Y558678D01*
X541778Y558752D01*
X541769Y558852D01*
X541771Y558952D01*
X541755Y559025D01*
X541749Y559099D01*
X541718Y559195D01*
X541697Y559293D01*
X541665Y559360D01*
X541642Y559431D01*
X541590Y559517D01*
X541547Y559608D01*
X541500Y559666D01*
X541462Y559729D01*
X541392Y559802D01*
X541329Y559880D01*
X541271Y559926D01*
X541219Y559979D01*
X541135Y560034D01*
X541056Y560096D01*
X540966Y560142D01*
X540926Y560168D01*
X540892Y560180D01*
X540838Y560207D01*
X539049Y560948D01*
X535548Y564449D01*
X533653Y569024D01*
X533653Y573976D01*
X535548Y578551D01*
X539049Y582052D01*
X540838Y582793D01*
X540926Y582841D01*
X541018Y582881D01*
X541078Y582926D01*
X541143Y582962D01*
X541217Y583029D01*
X541298Y583089D01*
X541346Y583146D01*
X541401Y583196D01*
X541458Y583279D01*
X541523Y583355D01*
X541557Y583422D01*
X541599Y583483D01*
X541636Y583576D01*
X541682Y583666D01*
X541700Y583738D01*
X541727Y583807D01*
X541742Y583906D01*
X541766Y584004D01*
X541767Y584078D01*
X541778Y584152D01*
X541769Y584252D01*
X541771Y584352D01*
X541755Y584425D01*
X541749Y584499D01*
X541718Y584595D01*
X541697Y584693D01*
X541665Y584760D01*
X541642Y584831D01*
X541590Y584917D01*
X541547Y585008D01*
X541500Y585066D01*
X541462Y585129D01*
X541392Y585202D01*
X541329Y585280D01*
X541271Y585326D01*
X541219Y585379D01*
X541135Y585434D01*
X541056Y585496D01*
X540966Y585542D01*
X540926Y585568D01*
X540892Y585580D01*
X540838Y585607D01*
X539049Y586348D01*
X535548Y589849D01*
X534911Y591387D01*
X534874Y591454D01*
X534846Y591525D01*
X534790Y591605D01*
X534742Y591692D01*
X534691Y591748D01*
X534647Y591811D01*
X534574Y591877D01*
X534508Y591950D01*
X534445Y591993D01*
X534388Y592044D01*
X534302Y592092D01*
X534221Y592148D01*
X534150Y592176D01*
X534083Y592213D01*
X533988Y592240D01*
X533897Y592276D01*
X533821Y592287D01*
X533748Y592308D01*
X533599Y592320D01*
X533552Y592327D01*
X533533Y592325D01*
X533504Y592327D01*
X502786Y592327D01*
X502661Y592313D01*
X502534Y592306D01*
X502488Y592293D01*
X502440Y592287D01*
X502321Y592245D01*
X502199Y592210D01*
X502157Y592186D01*
X502112Y592170D01*
X502006Y592101D01*
X501895Y592040D01*
X501849Y592000D01*
X501819Y591981D01*
X501785Y591946D01*
X501709Y591881D01*
X499877Y590050D01*
X496907Y588819D01*
X493693Y588819D01*
X490723Y590050D01*
X488450Y592323D01*
X487219Y595293D01*
X487219Y598507D01*
X488450Y601477D01*
X490723Y603750D01*
X493693Y604981D01*
X496907Y604981D01*
X499877Y603750D01*
X501709Y601919D01*
X501808Y601840D01*
X501902Y601756D01*
X501944Y601732D01*
X501982Y601702D01*
X502096Y601648D01*
X502207Y601587D01*
X502253Y601574D01*
X502297Y601553D01*
X502420Y601527D01*
X502542Y601492D01*
X502603Y601487D01*
X502638Y601480D01*
X502686Y601481D01*
X502786Y601473D01*
X533504Y601473D01*
X533580Y601481D01*
X533656Y601480D01*
X533753Y601501D01*
X533850Y601513D01*
X533922Y601538D01*
X533997Y601555D01*
X534086Y601597D01*
X534178Y601630D01*
X534243Y601672D01*
X534312Y601704D01*
X534389Y601766D01*
X534471Y601819D01*
X534524Y601874D01*
X534584Y601922D01*
X534645Y601999D01*
X534713Y602070D01*
X534753Y602135D01*
X534800Y602195D01*
X534868Y602329D01*
X534892Y602369D01*
X534898Y602387D01*
X534911Y602413D01*
X535548Y603951D01*
X539049Y607452D01*
X540838Y608193D01*
X540926Y608241D01*
X541018Y608281D01*
X541078Y608326D01*
X541143Y608362D01*
X541217Y608429D01*
X541298Y608489D01*
X541346Y608546D01*
X541401Y608596D01*
X541458Y608679D01*
X541523Y608755D01*
X541557Y608822D01*
X541599Y608883D01*
X541636Y608976D01*
X541682Y609066D01*
X541700Y609138D01*
X541727Y609207D01*
X541742Y609306D01*
X541766Y609404D01*
X541767Y609478D01*
X541778Y609552D01*
X541769Y609652D01*
X541771Y609752D01*
X541755Y609825D01*
X541749Y609899D01*
X541718Y609995D01*
X541697Y610093D01*
X541665Y610160D01*
X541642Y610231D01*
X541590Y610317D01*
X541547Y610408D01*
X541500Y610466D01*
X541462Y610529D01*
X541392Y610602D01*
X541329Y610680D01*
X541271Y610726D01*
X541219Y610779D01*
X541135Y610834D01*
X541056Y610896D01*
X540966Y610942D01*
X540926Y610968D01*
X540892Y610980D01*
X540838Y611007D01*
X539049Y611748D01*
X535548Y615249D01*
X533653Y619824D01*
X533653Y624776D01*
X535548Y629351D01*
X539049Y632852D01*
X541454Y633848D01*
X541490Y633868D01*
X541529Y633881D01*
X541642Y633952D01*
X541759Y634017D01*
X541789Y634045D01*
X541824Y634066D01*
X541918Y634161D01*
X542017Y634251D01*
X542040Y634285D01*
X542069Y634314D01*
X542139Y634428D01*
X542215Y634538D01*
X542230Y634576D01*
X542252Y634611D01*
X542294Y634738D01*
X542343Y634862D01*
X542349Y634903D01*
X542362Y634941D01*
X542375Y635075D01*
X542394Y635207D01*
X542391Y635248D01*
X542394Y635288D01*
X542376Y635421D01*
X542365Y635554D01*
X542353Y635593D01*
X542347Y635634D01*
X542299Y635758D01*
X542258Y635886D01*
X542237Y635921D01*
X542223Y635959D01*
X542148Y636070D01*
X542078Y636185D01*
X542050Y636214D01*
X542027Y636248D01*
X541929Y636338D01*
X541836Y636435D01*
X541801Y636457D01*
X541771Y636484D01*
X541563Y636613D01*
X539843Y637489D01*
X538322Y638594D01*
X536994Y639922D01*
X535889Y641443D01*
X535036Y643117D01*
X534455Y644904D01*
X534415Y645161D01*
X545084Y645161D01*
X545110Y645164D01*
X545136Y645162D01*
X545283Y645184D01*
X545430Y645201D01*
X545455Y645209D01*
X545481Y645213D01*
X545618Y645268D01*
X545758Y645318D01*
X545780Y645332D01*
X545805Y645342D01*
X545926Y645427D01*
X546051Y645507D01*
X546069Y645526D01*
X546091Y645541D01*
X546105Y645557D01*
X546190Y645475D01*
X546213Y645461D01*
X546232Y645444D01*
X546362Y645372D01*
X546489Y645296D01*
X546514Y645288D01*
X546537Y645275D01*
X546680Y645235D01*
X546821Y645190D01*
X546847Y645187D01*
X546872Y645180D01*
X547116Y645161D01*
X557785Y645161D01*
X557745Y644904D01*
X557164Y643117D01*
X556311Y641443D01*
X555206Y639922D01*
X553878Y638594D01*
X552357Y637489D01*
X550637Y636613D01*
X550603Y636590D01*
X550566Y636574D01*
X550458Y636494D01*
X550347Y636420D01*
X550319Y636390D01*
X550286Y636366D01*
X550199Y636264D01*
X550108Y636166D01*
X550087Y636131D01*
X550061Y636100D01*
X550000Y635981D01*
X549932Y635865D01*
X549921Y635826D01*
X549902Y635790D01*
X549870Y635660D01*
X549830Y635532D01*
X549828Y635491D01*
X549818Y635451D01*
X549816Y635317D01*
X549807Y635184D01*
X549813Y635144D01*
X549813Y635103D01*
X549841Y634972D01*
X549863Y634840D01*
X549878Y634802D01*
X549887Y634762D01*
X549944Y634642D01*
X549996Y634518D01*
X550019Y634484D01*
X550037Y634448D01*
X550120Y634343D01*
X550198Y634234D01*
X550229Y634207D01*
X550254Y634175D01*
X550359Y634093D01*
X550460Y634004D01*
X550496Y633985D01*
X550528Y633959D01*
X550746Y633848D01*
X553151Y632852D01*
X556652Y629351D01*
X558547Y624776D01*
X558547Y619721D01*
X558546Y619718D01*
X558543Y619667D01*
X558533Y619618D01*
X558535Y619494D01*
X558529Y619370D01*
X558538Y619320D01*
X558539Y619269D01*
X558569Y619149D01*
X558591Y619027D01*
X558611Y618981D01*
X558624Y618931D01*
X558680Y618821D01*
X558730Y618707D01*
X558760Y618667D01*
X558783Y618622D01*
X558864Y618527D01*
X558938Y618427D01*
X558976Y618395D01*
X559009Y618356D01*
X559109Y618282D01*
X559204Y618202D01*
X559249Y618179D01*
X559289Y618149D01*
X559403Y618100D01*
X559514Y618043D01*
X559563Y618031D01*
X559609Y618011D01*
X559732Y617989D01*
X559852Y617959D01*
X559902Y617958D01*
X559952Y617949D01*
X560076Y617956D01*
X560201Y617954D01*
X560250Y617965D01*
X560300Y617967D01*
X560420Y618002D01*
X560541Y618028D01*
X560587Y618050D01*
X560635Y618064D01*
X560744Y618124D01*
X560856Y618178D01*
X560895Y618209D01*
X560939Y618234D01*
X561126Y618393D01*
X605509Y662776D01*
X607010Y664277D01*
X608690Y664973D01*
X911875Y664973D01*
X912001Y664987D01*
X912127Y664994D01*
X912173Y665007D01*
X912221Y665013D01*
X912340Y665055D01*
X912462Y665090D01*
X912504Y665114D01*
X912549Y665130D01*
X912656Y665199D01*
X912766Y665260D01*
X912812Y665300D01*
X912842Y665319D01*
X912876Y665354D01*
X912952Y665419D01*
X934781Y687248D01*
X934860Y687347D01*
X934944Y687441D01*
X934968Y687483D01*
X934998Y687521D01*
X935052Y687635D01*
X935113Y687746D01*
X935126Y687792D01*
X935147Y687836D01*
X935173Y687959D01*
X935208Y688081D01*
X935213Y688142D01*
X935220Y688177D01*
X935219Y688225D01*
X935227Y688325D01*
X935227Y746775D01*
X935213Y746901D01*
X935206Y747027D01*
X935193Y747073D01*
X935187Y747121D01*
X935145Y747240D01*
X935110Y747362D01*
X935086Y747404D01*
X935070Y747449D01*
X935001Y747556D01*
X934940Y747666D01*
X934900Y747712D01*
X934881Y747742D01*
X934846Y747776D01*
X934781Y747852D01*
X912952Y769681D01*
X912853Y769760D01*
X912759Y769844D01*
X912717Y769868D01*
X912679Y769898D01*
X912565Y769952D01*
X912454Y770013D01*
X912408Y770026D01*
X912364Y770047D01*
X912241Y770073D01*
X912119Y770108D01*
X912058Y770113D01*
X912023Y770120D01*
X911975Y770119D01*
X911875Y770127D01*
X887524Y770127D01*
X887448Y770119D01*
X887372Y770120D01*
X887275Y770099D01*
X887178Y770087D01*
X887106Y770062D01*
X887031Y770045D01*
X886942Y770003D01*
X886850Y769970D01*
X886785Y769928D01*
X886716Y769896D01*
X886640Y769834D01*
X886557Y769781D01*
X886504Y769726D01*
X886444Y769678D01*
X886383Y769601D01*
X886315Y769530D01*
X886275Y769465D01*
X886228Y769405D01*
X886160Y769272D01*
X886136Y769231D01*
X886130Y769213D01*
X886117Y769187D01*
X885691Y768158D01*
X883881Y766349D01*
X883819Y766271D01*
X883749Y766198D01*
X883711Y766134D01*
X883665Y766076D01*
X883622Y765985D01*
X883570Y765899D01*
X883548Y765828D01*
X883516Y765761D01*
X883495Y765663D01*
X883464Y765567D01*
X883458Y765493D01*
X883443Y765420D01*
X883444Y765320D01*
X883436Y765220D01*
X883447Y765146D01*
X883449Y765072D01*
X883473Y764975D01*
X883488Y764875D01*
X883515Y764806D01*
X883534Y764734D01*
X883580Y764645D01*
X883617Y764551D01*
X883659Y764490D01*
X883693Y764424D01*
X883758Y764348D01*
X883816Y764265D01*
X883871Y764215D01*
X883919Y764159D01*
X884000Y764099D01*
X884074Y764032D01*
X884139Y763996D01*
X884199Y763951D01*
X884291Y763912D01*
X884379Y763863D01*
X884451Y763843D01*
X884519Y763813D01*
X884618Y763796D01*
X884715Y763768D01*
X884815Y763760D01*
X884862Y763752D01*
X884898Y763754D01*
X884959Y763749D01*
X888694Y763749D01*
X893858Y761610D01*
X897810Y757658D01*
X899949Y752494D01*
X899949Y746906D01*
X897810Y741742D01*
X893858Y737790D01*
X888694Y735651D01*
X883106Y735651D01*
X877942Y737790D01*
X873990Y741742D01*
X871851Y746906D01*
X871851Y752494D01*
X873990Y757658D01*
X876883Y760551D01*
X876945Y760629D01*
X877015Y760702D01*
X877053Y760766D01*
X877100Y760824D01*
X877143Y760915D01*
X877194Y761001D01*
X877217Y761072D01*
X877249Y761139D01*
X877270Y761237D01*
X877300Y761333D01*
X877306Y761407D01*
X877322Y761480D01*
X877320Y761580D01*
X877328Y761680D01*
X877317Y761754D01*
X877316Y761828D01*
X877291Y761925D01*
X877277Y762025D01*
X877249Y762094D01*
X877231Y762166D01*
X877185Y762255D01*
X877148Y762349D01*
X877105Y762410D01*
X877071Y762476D01*
X877006Y762552D01*
X876949Y762635D01*
X876894Y762685D01*
X876845Y762741D01*
X876765Y762801D01*
X876690Y762868D01*
X876625Y762904D01*
X876565Y762949D01*
X876473Y762988D01*
X876385Y763037D01*
X876313Y763057D01*
X876245Y763087D01*
X876146Y763104D01*
X876050Y763132D01*
X875950Y763140D01*
X875902Y763148D01*
X875866Y763146D01*
X875806Y763151D01*
X873603Y763151D01*
X869358Y764910D01*
X866110Y768158D01*
X864351Y772403D01*
X864351Y776997D01*
X866110Y781242D01*
X869358Y784490D01*
X873603Y786249D01*
X878197Y786249D01*
X882442Y784490D01*
X885691Y781242D01*
X886117Y780213D01*
X886154Y780146D01*
X886182Y780075D01*
X886238Y779995D01*
X886286Y779908D01*
X886337Y779852D01*
X886381Y779789D01*
X886454Y779723D01*
X886520Y779650D01*
X886583Y779607D01*
X886640Y779556D01*
X886726Y779508D01*
X886807Y779452D01*
X886878Y779424D01*
X886945Y779387D01*
X887040Y779360D01*
X887131Y779324D01*
X887207Y779313D01*
X887280Y779292D01*
X887429Y779280D01*
X887476Y779273D01*
X887495Y779275D01*
X887524Y779273D01*
X915310Y779273D01*
X916990Y778577D01*
X943677Y751890D01*
X944373Y750210D01*
X944373Y684890D01*
X943677Y683210D01*
X916990Y656523D01*
X915310Y655827D01*
X802117Y655827D01*
X802017Y655816D01*
X801917Y655814D01*
X801845Y655796D01*
X801771Y655787D01*
X801676Y655754D01*
X801579Y655729D01*
X801513Y655695D01*
X801443Y655670D01*
X801358Y655615D01*
X801269Y655569D01*
X801212Y655521D01*
X801150Y655481D01*
X801080Y655409D01*
X801004Y655344D01*
X800959Y655284D01*
X800908Y655230D01*
X800856Y655144D01*
X800796Y655063D01*
X800767Y654995D01*
X800729Y654931D01*
X800698Y654835D01*
X800658Y654743D01*
X800645Y654670D01*
X800623Y654599D01*
X800615Y654499D01*
X800597Y654400D01*
X800601Y654326D01*
X800595Y654252D01*
X800610Y654152D01*
X800615Y654052D01*
X800635Y653981D01*
X800646Y653907D01*
X800683Y653814D01*
X800711Y653717D01*
X800748Y653652D01*
X800775Y653583D01*
X800832Y653501D01*
X800881Y653413D01*
X800947Y653337D01*
X800974Y653297D01*
X801000Y653273D01*
X801040Y653227D01*
X819347Y634919D01*
X819407Y634872D01*
X819461Y634817D01*
X819543Y634764D01*
X819620Y634703D01*
X819690Y634670D01*
X819754Y634629D01*
X819847Y634596D01*
X819936Y634554D01*
X820010Y634538D01*
X820082Y634512D01*
X820180Y634501D01*
X820276Y634480D01*
X820353Y634482D01*
X820429Y634473D01*
X820526Y634485D01*
X820625Y634486D01*
X820699Y634505D01*
X820775Y634514D01*
X820917Y634560D01*
X820963Y634571D01*
X820980Y634580D01*
X821007Y634589D01*
X822346Y635144D01*
X827854Y635144D01*
X832942Y633036D01*
X836836Y629142D01*
X838944Y624054D01*
X838944Y618546D01*
X836836Y613458D01*
X832942Y609564D01*
X827854Y607456D01*
X822346Y607456D01*
X817258Y609564D01*
X813364Y613458D01*
X811256Y618546D01*
X811256Y624054D01*
X812631Y627372D01*
X812652Y627446D01*
X812682Y627516D01*
X812700Y627613D01*
X812727Y627708D01*
X812730Y627784D01*
X812744Y627859D01*
X812739Y627957D01*
X812744Y628056D01*
X812730Y628131D01*
X812726Y628207D01*
X812699Y628302D01*
X812681Y628399D01*
X812651Y628469D01*
X812629Y628542D01*
X812581Y628628D01*
X812542Y628718D01*
X812497Y628779D01*
X812459Y628846D01*
X812362Y628960D01*
X812334Y628998D01*
X812320Y629010D01*
X812301Y629032D01*
X785952Y655381D01*
X785853Y655460D01*
X785759Y655544D01*
X785717Y655568D01*
X785679Y655598D01*
X785565Y655652D01*
X785454Y655713D01*
X785408Y655726D01*
X785364Y655747D01*
X785241Y655773D01*
X785119Y655808D01*
X785058Y655813D01*
X785023Y655820D01*
X784975Y655819D01*
X784875Y655827D01*
X716071Y655827D01*
X716021Y655822D01*
X715971Y655824D01*
X715848Y655802D01*
X715725Y655787D01*
X715678Y655770D01*
X715628Y655761D01*
X715514Y655712D01*
X715397Y655670D01*
X715355Y655643D01*
X715308Y655623D01*
X715208Y655548D01*
X715104Y655481D01*
X715069Y655445D01*
X715029Y655415D01*
X714948Y655320D01*
X714862Y655230D01*
X714836Y655187D01*
X714803Y655149D01*
X714747Y655038D01*
X714683Y654931D01*
X714668Y654883D01*
X714645Y654838D01*
X714615Y654718D01*
X714577Y654599D01*
X714573Y654549D01*
X714561Y654500D01*
X714559Y654376D01*
X714549Y654252D01*
X714556Y654202D01*
X714556Y654152D01*
X714582Y654030D01*
X714600Y653907D01*
X714619Y653860D01*
X714630Y653811D01*
X714683Y653699D01*
X714729Y653583D01*
X714758Y653542D01*
X714780Y653496D01*
X714857Y653399D01*
X714928Y653297D01*
X714965Y653263D01*
X714997Y653224D01*
X715095Y653147D01*
X715187Y653064D01*
X715231Y653039D01*
X715271Y653008D01*
X715488Y652897D01*
X717710Y651976D01*
X719266Y650420D01*
X719489Y649883D01*
X719526Y649816D01*
X719554Y649745D01*
X719610Y649665D01*
X719658Y649578D01*
X719710Y649522D01*
X719753Y649459D01*
X719826Y649393D01*
X719892Y649320D01*
X719955Y649277D01*
X720012Y649226D01*
X720098Y649178D01*
X720179Y649122D01*
X720250Y649094D01*
X720317Y649057D01*
X720412Y649030D01*
X720503Y648994D01*
X720579Y648983D01*
X720652Y648962D01*
X720801Y648950D01*
X720848Y648943D01*
X720867Y648945D01*
X720896Y648943D01*
X752940Y648943D01*
X754620Y648247D01*
X756121Y646746D01*
X768357Y634509D01*
X768417Y634462D01*
X768471Y634407D01*
X768553Y634354D01*
X768630Y634293D01*
X768700Y634260D01*
X768764Y634219D01*
X768857Y634186D01*
X768946Y634144D01*
X769020Y634128D01*
X769092Y634102D01*
X769190Y634091D01*
X769286Y634070D01*
X769363Y634072D01*
X769439Y634063D01*
X769537Y634075D01*
X769635Y634076D01*
X769709Y634095D01*
X769785Y634104D01*
X769927Y634150D01*
X769973Y634161D01*
X769990Y634170D01*
X770017Y634179D01*
X772346Y635144D01*
X777854Y635144D01*
X782942Y633036D01*
X786836Y629142D01*
X788944Y624054D01*
X788944Y618546D01*
X786836Y613458D01*
X782942Y609564D01*
X777854Y607456D01*
X772346Y607456D01*
X767258Y609564D01*
X763364Y613458D01*
X761256Y618546D01*
X761256Y624054D01*
X762221Y626383D01*
X762242Y626456D01*
X762272Y626526D01*
X762290Y626623D01*
X762317Y626718D01*
X762320Y626794D01*
X762334Y626869D01*
X762329Y626968D01*
X762334Y627066D01*
X762320Y627141D01*
X762316Y627217D01*
X762289Y627312D01*
X762271Y627409D01*
X762240Y627479D01*
X762219Y627552D01*
X762171Y627638D01*
X762132Y627728D01*
X762086Y627790D01*
X762049Y627856D01*
X761952Y627970D01*
X761924Y628008D01*
X761910Y628020D01*
X761891Y628043D01*
X750582Y639351D01*
X750483Y639430D01*
X750389Y639514D01*
X750347Y639538D01*
X750309Y639568D01*
X750195Y639622D01*
X750084Y639683D01*
X750038Y639696D01*
X749994Y639717D01*
X749871Y639743D01*
X749749Y639778D01*
X749688Y639783D01*
X749653Y639790D01*
X749605Y639789D01*
X749505Y639797D01*
X720896Y639797D01*
X720820Y639789D01*
X720744Y639790D01*
X720648Y639769D01*
X720550Y639757D01*
X720478Y639732D01*
X720403Y639715D01*
X720314Y639673D01*
X720222Y639640D01*
X720158Y639598D01*
X720089Y639566D01*
X720012Y639504D01*
X719929Y639451D01*
X719876Y639396D01*
X719816Y639348D01*
X719755Y639271D01*
X719687Y639200D01*
X719648Y639135D01*
X719600Y639075D01*
X719532Y638941D01*
X719508Y638901D01*
X719502Y638883D01*
X719489Y638857D01*
X719266Y638320D01*
X717710Y636764D01*
X715677Y635921D01*
X701643Y635921D01*
X699610Y636764D01*
X698054Y638320D01*
X697504Y639647D01*
X697467Y639714D01*
X697439Y639785D01*
X697382Y639866D01*
X697335Y639952D01*
X697283Y640008D01*
X697240Y640071D01*
X697167Y640137D01*
X697100Y640210D01*
X697038Y640253D01*
X696981Y640304D01*
X696895Y640352D01*
X696814Y640408D01*
X696743Y640436D01*
X696676Y640473D01*
X696581Y640500D01*
X696490Y640536D01*
X696414Y640547D01*
X696340Y640568D01*
X696192Y640580D01*
X696145Y640587D01*
X696126Y640585D01*
X696097Y640587D01*
X672966Y640587D01*
X672841Y640573D01*
X672714Y640566D01*
X672668Y640553D01*
X672620Y640547D01*
X672501Y640505D01*
X672379Y640470D01*
X672337Y640446D01*
X672292Y640430D01*
X672186Y640361D01*
X672075Y640300D01*
X672029Y640260D01*
X671999Y640241D01*
X671965Y640206D01*
X671889Y640141D01*
X670057Y638310D01*
X667087Y637079D01*
X663873Y637079D01*
X660903Y638310D01*
X658630Y640583D01*
X657399Y643553D01*
X657399Y646767D01*
X658630Y649737D01*
X660903Y652010D01*
X663042Y652897D01*
X663086Y652921D01*
X663134Y652938D01*
X663238Y653006D01*
X663347Y653066D01*
X663384Y653100D01*
X663426Y653127D01*
X663513Y653217D01*
X663605Y653300D01*
X663634Y653342D01*
X663669Y653378D01*
X663732Y653485D01*
X663803Y653587D01*
X663822Y653634D01*
X663847Y653677D01*
X663885Y653795D01*
X663931Y653911D01*
X663938Y653961D01*
X663954Y654009D01*
X663964Y654133D01*
X663982Y654256D01*
X663978Y654306D01*
X663982Y654356D01*
X663963Y654479D01*
X663953Y654603D01*
X663937Y654651D01*
X663930Y654701D01*
X663884Y654816D01*
X663846Y654935D01*
X663820Y654978D01*
X663801Y655025D01*
X663730Y655127D01*
X663666Y655233D01*
X663631Y655270D01*
X663602Y655311D01*
X663510Y655394D01*
X663423Y655483D01*
X663381Y655511D01*
X663343Y655544D01*
X663235Y655604D01*
X663130Y655672D01*
X663082Y655689D01*
X663038Y655713D01*
X662919Y655747D01*
X662802Y655788D01*
X662752Y655794D01*
X662703Y655808D01*
X662459Y655827D01*
X612125Y655827D01*
X611999Y655813D01*
X611873Y655806D01*
X611827Y655793D01*
X611779Y655787D01*
X611660Y655745D01*
X611538Y655710D01*
X611496Y655686D01*
X611451Y655670D01*
X611344Y655601D01*
X611234Y655540D01*
X611188Y655500D01*
X611158Y655481D01*
X611124Y655446D01*
X611048Y655381D01*
X559740Y604073D01*
X559678Y603995D01*
X559608Y603922D01*
X559569Y603858D01*
X559523Y603800D01*
X559480Y603709D01*
X559429Y603623D01*
X559406Y603552D01*
X559374Y603485D01*
X559353Y603387D01*
X559323Y603291D01*
X559317Y603217D01*
X559301Y603144D01*
X559303Y603044D01*
X559295Y602944D01*
X559306Y602870D01*
X559307Y602796D01*
X559331Y602699D01*
X559346Y602599D01*
X559374Y602530D01*
X559392Y602458D01*
X559438Y602368D01*
X559475Y602275D01*
X559517Y602214D01*
X559552Y602148D01*
X559617Y602071D01*
X559674Y601989D01*
X559729Y601939D01*
X559777Y601883D01*
X559858Y601823D01*
X559933Y601756D01*
X559998Y601720D01*
X560058Y601675D01*
X560150Y601636D01*
X560238Y601587D01*
X560309Y601567D01*
X560378Y601537D01*
X560476Y601520D01*
X560573Y601492D01*
X560673Y601484D01*
X560721Y601476D01*
X560756Y601478D01*
X560817Y601473D01*
X915310Y601473D01*
X916990Y600777D01*
X956377Y561390D01*
X957073Y559710D01*
X957073Y482842D01*
X957081Y482767D01*
X957080Y482690D01*
X957101Y482594D01*
X957113Y482496D01*
X957138Y482424D01*
X957155Y482350D01*
X957197Y482261D01*
X957230Y482168D01*
X957272Y482104D01*
X957304Y482035D01*
X957366Y481958D01*
X957419Y481875D01*
X957474Y481822D01*
X957522Y481762D01*
X957599Y481702D01*
X957670Y481633D01*
X957735Y481594D01*
X957795Y481547D01*
X957928Y481478D01*
X957969Y481454D01*
X957987Y481448D01*
X958013Y481435D01*
X959942Y480636D01*
X963836Y476742D01*
X965944Y471654D01*
X965944Y466146D01*
X963836Y461058D01*
X959942Y457164D01*
X954854Y455056D01*
X949346Y455056D01*
X944258Y457164D01*
X940364Y461058D01*
X938256Y466146D01*
X938256Y471654D01*
X940364Y476742D01*
X944258Y480636D01*
X946987Y481766D01*
X947054Y481804D01*
X947125Y481832D01*
X947206Y481888D01*
X947292Y481936D01*
X947348Y481987D01*
X947411Y482031D01*
X947477Y482104D01*
X947550Y482170D01*
X947593Y482233D01*
X947644Y482290D01*
X947692Y482376D01*
X947748Y482457D01*
X947776Y482528D01*
X947813Y482595D01*
X947840Y482689D01*
X947876Y482781D01*
X947887Y482856D01*
X947908Y482930D01*
X947920Y483079D01*
X947927Y483126D01*
X947925Y483145D01*
X947927Y483174D01*
X947927Y556275D01*
X947913Y556401D01*
X947906Y556527D01*
X947893Y556573D01*
X947887Y556621D01*
X947845Y556740D01*
X947810Y556862D01*
X947786Y556904D01*
X947770Y556949D01*
X947701Y557056D01*
X947640Y557166D01*
X947600Y557212D01*
X947581Y557242D01*
X947546Y557276D01*
X947481Y557352D01*
X912952Y591881D01*
X912853Y591960D01*
X912759Y592044D01*
X912717Y592068D01*
X912679Y592098D01*
X912565Y592152D01*
X912454Y592213D01*
X912408Y592226D01*
X912364Y592247D01*
X912241Y592273D01*
X912119Y592308D01*
X912058Y592313D01*
X912023Y592320D01*
X911975Y592319D01*
X911875Y592327D01*
X624317Y592327D01*
X624217Y592316D01*
X624117Y592314D01*
X624045Y592296D01*
X623971Y592287D01*
X623876Y592254D01*
X623779Y592229D01*
X623713Y592195D01*
X623643Y592170D01*
X623558Y592115D01*
X623469Y592069D01*
X623412Y592021D01*
X623350Y591981D01*
X623280Y591909D01*
X623204Y591844D01*
X623159Y591784D01*
X623108Y591730D01*
X623056Y591644D01*
X622996Y591563D01*
X622967Y591495D01*
X622929Y591431D01*
X622898Y591335D01*
X622858Y591243D01*
X622845Y591170D01*
X622823Y591099D01*
X622815Y590999D01*
X622797Y590900D01*
X622801Y590826D01*
X622795Y590752D01*
X622810Y590652D01*
X622815Y590552D01*
X622835Y590481D01*
X622846Y590407D01*
X622883Y590314D01*
X622911Y590217D01*
X622948Y590152D01*
X622975Y590083D01*
X623032Y590001D01*
X623081Y589913D01*
X623147Y589837D01*
X623174Y589797D01*
X623200Y589773D01*
X623240Y589727D01*
X688176Y524791D01*
X892877Y320090D01*
X893573Y318410D01*
X893573Y265790D01*
X892877Y264110D01*
X853490Y224723D01*
X851810Y224027D01*
X600025Y224027D01*
X599899Y224013D01*
X599773Y224006D01*
X599727Y223993D01*
X599679Y223987D01*
X599560Y223945D01*
X599438Y223910D01*
X599396Y223886D01*
X599351Y223870D01*
X599244Y223801D01*
X599134Y223740D01*
X599088Y223700D01*
X599058Y223681D01*
X599024Y223646D01*
X598948Y223581D01*
X571609Y196242D01*
X571562Y196183D01*
X571507Y196129D01*
X571454Y196047D01*
X571393Y195969D01*
X571360Y195900D01*
X571319Y195836D01*
X571286Y195743D01*
X571244Y195654D01*
X571228Y195580D01*
X571202Y195508D01*
X571191Y195410D01*
X571170Y195314D01*
X571172Y195237D01*
X571163Y195161D01*
X571175Y195063D01*
X571176Y194965D01*
X571195Y194891D01*
X571204Y194815D01*
X571250Y194673D01*
X571261Y194627D01*
X571270Y194610D01*
X571279Y194582D01*
X572244Y192254D01*
X572244Y186746D01*
X570136Y181658D01*
X566242Y177764D01*
X561154Y175656D01*
X555646Y175656D01*
X550558Y177764D01*
X546664Y181658D01*
X544556Y186746D01*
X544556Y192254D01*
X546664Y197342D01*
X550558Y201236D01*
X555646Y203344D01*
X561154Y203344D01*
X563482Y202379D01*
X563556Y202358D01*
X563626Y202328D01*
X563723Y202311D01*
X563818Y202283D01*
X563894Y202280D01*
X563969Y202266D01*
X564067Y202271D01*
X564166Y202266D01*
X564241Y202280D01*
X564317Y202284D01*
X564412Y202311D01*
X564509Y202329D01*
X564579Y202360D01*
X564652Y202381D01*
X564738Y202429D01*
X564828Y202468D01*
X564889Y202513D01*
X564956Y202551D01*
X565070Y202648D01*
X565108Y202676D01*
X565120Y202690D01*
X565142Y202709D01*
X594910Y232477D01*
X596590Y233173D01*
X848375Y233173D01*
X848501Y233187D01*
X848627Y233194D01*
X848673Y233207D01*
X848721Y233213D01*
X848840Y233255D01*
X848962Y233290D01*
X849004Y233314D01*
X849049Y233330D01*
X849156Y233399D01*
X849266Y233460D01*
X849312Y233500D01*
X849342Y233519D01*
X849376Y233554D01*
X849452Y233619D01*
X883981Y268148D01*
X884060Y268247D01*
X884144Y268341D01*
X884168Y268383D01*
X884198Y268421D01*
X884252Y268535D01*
X884313Y268646D01*
X884326Y268692D01*
X884347Y268736D01*
X884373Y268859D01*
X884408Y268981D01*
X884413Y269042D01*
X884420Y269077D01*
X884419Y269125D01*
X884427Y269225D01*
X884427Y314975D01*
X884413Y315101D01*
X884406Y315227D01*
X884393Y315273D01*
X884387Y315321D01*
X884345Y315440D01*
X884310Y315562D01*
X884286Y315604D01*
X884270Y315649D01*
X884201Y315756D01*
X884140Y315866D01*
X884100Y315912D01*
X884081Y315942D01*
X884046Y315976D01*
X883981Y316052D01*
X832273Y367760D01*
X832195Y367822D01*
X832122Y367892D01*
X832058Y367931D01*
X832000Y367977D01*
X831909Y368020D01*
X831823Y368071D01*
X831752Y368094D01*
X831685Y368126D01*
X831587Y368147D01*
X831491Y368177D01*
X831417Y368183D01*
X831344Y368199D01*
X831244Y368197D01*
X831144Y368205D01*
X831070Y368194D01*
X830996Y368193D01*
X830899Y368169D01*
X830799Y368154D01*
X830730Y368126D01*
X830658Y368108D01*
X830568Y368062D01*
X830475Y368025D01*
X830414Y367983D01*
X830348Y367948D01*
X830271Y367883D01*
X830189Y367826D01*
X830139Y367771D01*
X830083Y367723D01*
X830023Y367642D01*
X829956Y367567D01*
X829920Y367502D01*
X829875Y367442D01*
X829836Y367350D01*
X829787Y367262D01*
X829767Y367191D01*
X829737Y367122D01*
X829720Y367024D01*
X829692Y366927D01*
X829684Y366827D01*
X829676Y366779D01*
X829678Y366744D01*
X829673Y366683D01*
X829673Y330608D01*
X829681Y330532D01*
X829680Y330456D01*
X829701Y330359D01*
X829713Y330262D01*
X829738Y330190D01*
X829755Y330115D01*
X829797Y330026D01*
X829830Y329934D01*
X829872Y329870D01*
X829904Y329801D01*
X829966Y329724D01*
X830019Y329641D01*
X830074Y329588D01*
X830122Y329528D01*
X830199Y329467D01*
X830270Y329399D01*
X830335Y329360D01*
X830395Y329312D01*
X830529Y329244D01*
X830569Y329220D01*
X830587Y329214D01*
X830613Y329201D01*
X832942Y328236D01*
X836836Y324342D01*
X838944Y319254D01*
X838944Y313746D01*
X836836Y308658D01*
X832942Y304764D01*
X827854Y302656D01*
X822346Y302656D01*
X817258Y304764D01*
X813364Y308658D01*
X811256Y313746D01*
X811256Y319254D01*
X813364Y324342D01*
X817258Y328236D01*
X819587Y329201D01*
X819654Y329238D01*
X819725Y329266D01*
X819806Y329322D01*
X819892Y329370D01*
X819948Y329421D01*
X820011Y329465D01*
X820077Y329538D01*
X820150Y329604D01*
X820193Y329667D01*
X820244Y329724D01*
X820292Y329810D01*
X820348Y329891D01*
X820376Y329962D01*
X820413Y330029D01*
X820440Y330124D01*
X820476Y330215D01*
X820487Y330291D01*
X820508Y330364D01*
X820520Y330513D01*
X820527Y330560D01*
X820525Y330579D01*
X820527Y330608D01*
X820527Y378875D01*
X820513Y379001D01*
X820506Y379127D01*
X820493Y379173D01*
X820487Y379221D01*
X820445Y379340D01*
X820410Y379462D01*
X820386Y379504D01*
X820370Y379549D01*
X820301Y379656D01*
X820240Y379766D01*
X820200Y379812D01*
X820181Y379842D01*
X820146Y379876D01*
X820081Y379952D01*
X692973Y507060D01*
X692895Y507122D01*
X692822Y507192D01*
X692758Y507231D01*
X692700Y507277D01*
X692609Y507320D01*
X692523Y507371D01*
X692452Y507394D01*
X692385Y507426D01*
X692287Y507447D01*
X692191Y507477D01*
X692117Y507483D01*
X692044Y507499D01*
X691944Y507497D01*
X691844Y507505D01*
X691770Y507494D01*
X691696Y507493D01*
X691599Y507469D01*
X691499Y507454D01*
X691430Y507426D01*
X691358Y507408D01*
X691268Y507362D01*
X691175Y507325D01*
X691114Y507283D01*
X691048Y507248D01*
X690971Y507183D01*
X690889Y507126D01*
X690839Y507071D01*
X690783Y507023D01*
X690723Y506942D01*
X690656Y506867D01*
X690620Y506802D01*
X690575Y506742D01*
X690536Y506650D01*
X690487Y506562D01*
X690467Y506491D01*
X690437Y506422D01*
X690420Y506324D01*
X690392Y506227D01*
X690384Y506127D01*
X690376Y506079D01*
X690378Y506044D01*
X690373Y505983D01*
X690373Y482842D01*
X690381Y482767D01*
X690380Y482690D01*
X690401Y482594D01*
X690413Y482496D01*
X690438Y482424D01*
X690455Y482350D01*
X690497Y482261D01*
X690530Y482168D01*
X690572Y482104D01*
X690604Y482035D01*
X690666Y481958D01*
X690719Y481875D01*
X690774Y481822D01*
X690822Y481762D01*
X690899Y481702D01*
X690970Y481633D01*
X691035Y481594D01*
X691095Y481547D01*
X691228Y481478D01*
X691269Y481454D01*
X691287Y481448D01*
X691313Y481435D01*
X693242Y480636D01*
X697136Y476742D01*
X699244Y471654D01*
X699244Y466146D01*
X697136Y461058D01*
X693242Y457164D01*
X688154Y455056D01*
X682646Y455056D01*
X677558Y457164D01*
X673664Y461058D01*
X671556Y466146D01*
X671556Y471654D01*
X673664Y476742D01*
X677558Y480636D01*
X680287Y481766D01*
X680354Y481804D01*
X680425Y481832D01*
X680506Y481888D01*
X680592Y481936D01*
X680648Y481987D01*
X680711Y482031D01*
X680777Y482104D01*
X680850Y482170D01*
X680893Y482233D01*
X680944Y482290D01*
X680992Y482376D01*
X681048Y482457D01*
X681076Y482528D01*
X681113Y482595D01*
X681140Y482689D01*
X681176Y482781D01*
X681187Y482856D01*
X681208Y482930D01*
X681220Y483079D01*
X681227Y483126D01*
X681225Y483145D01*
X681227Y483174D01*
X681227Y518175D01*
X681213Y518301D01*
X681206Y518427D01*
X681193Y518473D01*
X681187Y518521D01*
X681145Y518640D01*
X681110Y518762D01*
X681086Y518804D01*
X681070Y518849D01*
X681001Y518956D01*
X680940Y519066D01*
X680900Y519112D01*
X680881Y519142D01*
X680846Y519176D01*
X680781Y519252D01*
X608152Y591881D01*
X608053Y591960D01*
X607959Y592044D01*
X607917Y592068D01*
X607879Y592098D01*
X607765Y592152D01*
X607654Y592213D01*
X607608Y592226D01*
X607564Y592247D01*
X607441Y592273D01*
X607319Y592308D01*
X607258Y592313D01*
X607223Y592320D01*
X607175Y592319D01*
X607075Y592327D01*
X558696Y592327D01*
X558620Y592319D01*
X558544Y592320D01*
X558447Y592299D01*
X558350Y592287D01*
X558278Y592262D01*
X558203Y592245D01*
X558114Y592203D01*
X558022Y592170D01*
X557957Y592128D01*
X557888Y592096D01*
X557811Y592034D01*
X557729Y591981D01*
X557676Y591926D01*
X557616Y591878D01*
X557555Y591801D01*
X557487Y591730D01*
X557447Y591665D01*
X557400Y591605D01*
X557332Y591471D01*
X557308Y591431D01*
X557302Y591413D01*
X557289Y591387D01*
X556652Y589849D01*
X553151Y586348D01*
X551362Y585607D01*
X551274Y585558D01*
X551182Y585518D01*
X551122Y585474D01*
X551057Y585438D01*
X550983Y585371D01*
X550902Y585311D01*
X550854Y585254D01*
X550799Y585204D01*
X550742Y585121D01*
X550677Y585045D01*
X550643Y584978D01*
X550601Y584917D01*
X550564Y584824D01*
X550518Y584734D01*
X550500Y584662D01*
X550473Y584593D01*
X550458Y584494D01*
X550434Y584396D01*
X550433Y584322D01*
X550422Y584248D01*
X550431Y584148D01*
X550429Y584048D01*
X550445Y583975D01*
X550451Y583901D01*
X550482Y583805D01*
X550503Y583707D01*
X550535Y583640D01*
X550558Y583569D01*
X550610Y583483D01*
X550653Y583392D01*
X550700Y583334D01*
X550738Y583271D01*
X550808Y583199D01*
X550871Y583120D01*
X550929Y583074D01*
X550981Y583021D01*
X551065Y582966D01*
X551144Y582904D01*
X551234Y582858D01*
X551274Y582832D01*
X551308Y582820D01*
X551362Y582793D01*
X553151Y582052D01*
X556652Y578551D01*
X558547Y573976D01*
X558547Y569024D01*
X556652Y564449D01*
X553151Y560948D01*
X551362Y560207D01*
X551274Y560158D01*
X551182Y560118D01*
X551122Y560074D01*
X551057Y560038D01*
X550983Y559971D01*
X550902Y559911D01*
X550854Y559854D01*
X550799Y559804D01*
X550742Y559721D01*
X550677Y559645D01*
X550643Y559578D01*
X550601Y559517D01*
X550564Y559424D01*
X550518Y559334D01*
X550500Y559262D01*
X550473Y559193D01*
X550458Y559094D01*
X550434Y558996D01*
X550433Y558922D01*
X550422Y558848D01*
X550431Y558748D01*
X550429Y558648D01*
X550445Y558575D01*
X550451Y558501D01*
X550482Y558405D01*
X550503Y558307D01*
X550535Y558240D01*
X550558Y558169D01*
X550610Y558083D01*
X550653Y557992D01*
X550700Y557934D01*
X550738Y557871D01*
X550808Y557799D01*
X550871Y557720D01*
X550929Y557674D01*
X550981Y557621D01*
X551065Y557566D01*
X551144Y557504D01*
X551234Y557458D01*
X551274Y557432D01*
X551308Y557420D01*
X551362Y557393D01*
X553151Y556652D01*
X556652Y553151D01*
X558547Y548576D01*
X558547Y543624D01*
X556652Y539049D01*
X553151Y535548D01*
X551362Y534807D01*
X551274Y534758D01*
X551182Y534718D01*
X551122Y534674D01*
X551057Y534638D01*
X550983Y534571D01*
X550902Y534511D01*
X550854Y534454D01*
X550799Y534404D01*
X550742Y534321D01*
X550677Y534245D01*
X550643Y534178D01*
X550601Y534117D01*
X550564Y534024D01*
X550518Y533934D01*
X550500Y533862D01*
X550473Y533793D01*
X550458Y533694D01*
X550434Y533596D01*
X550433Y533522D01*
X550422Y533448D01*
X550431Y533348D01*
X550429Y533248D01*
X550445Y533175D01*
X550451Y533101D01*
X550482Y533005D01*
X550503Y532907D01*
X550535Y532840D01*
X550558Y532769D01*
X550610Y532683D01*
X550653Y532592D01*
X550700Y532534D01*
X550738Y532471D01*
X550808Y532399D01*
X550871Y532320D01*
X550929Y532274D01*
X550981Y532221D01*
X551065Y532166D01*
X551144Y532104D01*
X551234Y532058D01*
X551274Y532032D01*
X551308Y532020D01*
X551362Y531993D01*
X553151Y531252D01*
X556652Y527751D01*
X558547Y523176D01*
X558547Y518224D01*
X556652Y513649D01*
X553151Y510148D01*
X551362Y509407D01*
X551274Y509358D01*
X551182Y509318D01*
X551122Y509274D01*
X551057Y509238D01*
X550983Y509171D01*
X550902Y509111D01*
X550854Y509054D01*
X550799Y509004D01*
X550742Y508921D01*
X550677Y508845D01*
X550643Y508778D01*
X550601Y508717D01*
X550564Y508624D01*
X550518Y508534D01*
X550500Y508462D01*
X550473Y508393D01*
X550458Y508294D01*
X550434Y508196D01*
X550433Y508122D01*
X550422Y508048D01*
X550431Y507948D01*
X550429Y507848D01*
X550445Y507775D01*
X550451Y507701D01*
X550482Y507605D01*
X550503Y507507D01*
X550535Y507440D01*
X550558Y507369D01*
X550610Y507283D01*
X550653Y507192D01*
X550700Y507134D01*
X550738Y507071D01*
X550808Y506999D01*
X550871Y506920D01*
X550929Y506874D01*
X550981Y506821D01*
X551065Y506766D01*
X551144Y506704D01*
X551234Y506658D01*
X551274Y506632D01*
X551308Y506620D01*
X551362Y506593D01*
X553151Y505852D01*
X556652Y502351D01*
X558547Y497776D01*
X558547Y492824D01*
X556652Y488249D01*
X553151Y484748D01*
X551362Y484007D01*
X551274Y483958D01*
X551182Y483918D01*
X551122Y483874D01*
X551057Y483838D01*
X550983Y483771D01*
X550902Y483711D01*
X550854Y483654D01*
X550799Y483604D01*
X550742Y483521D01*
X550677Y483445D01*
X550643Y483378D01*
X550601Y483317D01*
X550564Y483224D01*
X550518Y483134D01*
X550500Y483062D01*
X550473Y482993D01*
X550458Y482894D01*
X550434Y482796D01*
X550433Y482722D01*
X550422Y482648D01*
X550431Y482548D01*
X550429Y482448D01*
X550445Y482375D01*
X550451Y482301D01*
X550482Y482205D01*
X550503Y482107D01*
X550535Y482040D01*
X550558Y481969D01*
X550610Y481883D01*
X550653Y481792D01*
X550700Y481734D01*
X550738Y481671D01*
X550808Y481599D01*
X550871Y481520D01*
X550929Y481474D01*
X550981Y481421D01*
X551065Y481366D01*
X551144Y481304D01*
X551234Y481258D01*
X551274Y481232D01*
X551308Y481220D01*
X551362Y481193D01*
X553151Y480452D01*
X556652Y476951D01*
X558547Y472376D01*
X558547Y467424D01*
X556652Y462849D01*
X553151Y459348D01*
X551362Y458607D01*
X551274Y458558D01*
X551182Y458518D01*
X551122Y458474D01*
X551057Y458438D01*
X550983Y458371D01*
X550902Y458311D01*
X550854Y458254D01*
X550799Y458204D01*
X550742Y458121D01*
X550677Y458045D01*
X550643Y457978D01*
X550601Y457917D01*
X550564Y457824D01*
X550518Y457734D01*
X550500Y457662D01*
X550473Y457593D01*
X550458Y457494D01*
X550434Y457396D01*
X550433Y457322D01*
X550422Y457248D01*
X550431Y457148D01*
X550429Y457048D01*
X550445Y456975D01*
X550451Y456901D01*
X550482Y456805D01*
X550503Y456707D01*
X550535Y456640D01*
X550558Y456569D01*
X550610Y456483D01*
X550653Y456392D01*
X550700Y456334D01*
X550738Y456271D01*
X550808Y456199D01*
X550871Y456120D01*
X550929Y456074D01*
X550981Y456021D01*
X551065Y455966D01*
X551144Y455904D01*
X551234Y455858D01*
X551274Y455832D01*
X551308Y455820D01*
X551362Y455793D01*
X553151Y455052D01*
X556652Y451551D01*
X558547Y446976D01*
X558547Y442024D01*
X556652Y437449D01*
X553151Y433948D01*
X551362Y433207D01*
X551274Y433158D01*
X551182Y433118D01*
X551122Y433074D01*
X551057Y433038D01*
X550983Y432971D01*
X550902Y432911D01*
X550854Y432854D01*
X550799Y432804D01*
X550742Y432721D01*
X550677Y432645D01*
X550643Y432578D01*
X550601Y432517D01*
X550564Y432424D01*
X550518Y432334D01*
X550500Y432262D01*
X550473Y432193D01*
X550458Y432094D01*
X550434Y431996D01*
X550433Y431922D01*
X550422Y431848D01*
X550431Y431748D01*
X550429Y431648D01*
X550445Y431575D01*
X550451Y431501D01*
X550482Y431405D01*
X550503Y431307D01*
X550535Y431240D01*
X550558Y431169D01*
X550610Y431083D01*
X550653Y430992D01*
X550700Y430934D01*
X550738Y430871D01*
X550808Y430799D01*
X550871Y430720D01*
X550929Y430674D01*
X550981Y430621D01*
X551065Y430566D01*
X551144Y430504D01*
X551234Y430458D01*
X551274Y430432D01*
X551308Y430420D01*
X551362Y430393D01*
X553151Y429652D01*
X556652Y426151D01*
X558547Y421576D01*
X558547Y416624D01*
X556652Y412049D01*
X553151Y408548D01*
X551362Y407807D01*
X551274Y407758D01*
X551182Y407718D01*
X551122Y407674D01*
X551057Y407638D01*
X550983Y407571D01*
X550902Y407511D01*
X550854Y407454D01*
X550799Y407404D01*
X550742Y407321D01*
X550677Y407245D01*
X550643Y407178D01*
X550601Y407117D01*
X550564Y407024D01*
X550518Y406934D01*
X550500Y406862D01*
X550473Y406793D01*
X550458Y406694D01*
X550434Y406596D01*
X550433Y406522D01*
X550422Y406448D01*
X550431Y406348D01*
X550429Y406248D01*
X550445Y406175D01*
X550451Y406101D01*
X550482Y406005D01*
X550503Y405907D01*
X550535Y405840D01*
X550558Y405769D01*
X550610Y405683D01*
X550653Y405592D01*
X550700Y405534D01*
X550738Y405471D01*
X550808Y405399D01*
X550871Y405320D01*
X550929Y405274D01*
X550981Y405221D01*
X551065Y405166D01*
X551144Y405104D01*
X551234Y405058D01*
X551274Y405032D01*
X551308Y405020D01*
X551362Y404993D01*
X553151Y404252D01*
X556652Y400751D01*
X558547Y396176D01*
X558547Y391224D01*
X556652Y386649D01*
X553151Y383148D01*
X548576Y381253D01*
X543624Y381253D01*
X539049Y383148D01*
X535548Y386649D01*
X533653Y391224D01*
X533653Y396176D01*
X535548Y400751D01*
X539049Y404252D01*
X540838Y404993D01*
X540926Y405041D01*
X541018Y405081D01*
X541078Y405126D01*
X541143Y405162D01*
X541217Y405229D01*
X541298Y405289D01*
X541346Y405346D01*
X541401Y405396D01*
X541458Y405479D01*
X541523Y405555D01*
X541557Y405622D01*
X541599Y405683D01*
X541636Y405776D01*
X541682Y405866D01*
X541700Y405938D01*
X541727Y406007D01*
X541742Y406106D01*
X541766Y406204D01*
X541767Y406278D01*
X541778Y406352D01*
X541769Y406452D01*
X541771Y406552D01*
X541755Y406625D01*
X541749Y406699D01*
X541718Y406795D01*
X541697Y406893D01*
X541665Y406960D01*
X541642Y407031D01*
X541590Y407117D01*
X541547Y407208D01*
X541500Y407266D01*
X541462Y407329D01*
X541392Y407402D01*
X541329Y407480D01*
X541271Y407526D01*
X541219Y407579D01*
X541135Y407634D01*
X541056Y407696D01*
X540966Y407742D01*
X540926Y407768D01*
X540892Y407780D01*
X540838Y407807D01*
X539049Y408548D01*
X535548Y412049D01*
X534911Y413587D01*
X534874Y413654D01*
X534846Y413725D01*
X534790Y413805D01*
X534742Y413892D01*
X534691Y413948D01*
X534647Y414011D01*
X534574Y414077D01*
X534508Y414150D01*
X534445Y414193D01*
X534388Y414244D01*
X534302Y414292D01*
X534221Y414348D01*
X534150Y414376D01*
X534083Y414413D01*
X533988Y414440D01*
X533897Y414476D01*
X533821Y414487D01*
X533748Y414508D01*
X533599Y414520D01*
X533552Y414527D01*
X533533Y414525D01*
X533504Y414527D01*
X514978Y414527D01*
X514878Y414516D01*
X514778Y414514D01*
X514706Y414496D01*
X514632Y414487D01*
X514537Y414453D01*
X514440Y414429D01*
X514374Y414395D01*
X514304Y414370D01*
X514219Y414315D01*
X514130Y414269D01*
X514073Y414221D01*
X514011Y414181D01*
X513941Y414109D01*
X513865Y414044D01*
X513820Y413984D01*
X513769Y413930D01*
X513717Y413844D01*
X513658Y413763D01*
X513628Y413695D01*
X513590Y413631D01*
X513559Y413535D01*
X513520Y413443D01*
X513506Y413370D01*
X513484Y413299D01*
X513476Y413199D01*
X513458Y413100D01*
X513462Y413026D01*
X513456Y412952D01*
X513471Y412852D01*
X513476Y412752D01*
X513496Y412681D01*
X513507Y412607D01*
X513545Y412514D01*
X513572Y412417D01*
X513609Y412352D01*
X513636Y412283D01*
X513693Y412201D01*
X513742Y412113D01*
X513808Y412037D01*
X513835Y411997D01*
X513861Y411973D01*
X513901Y411927D01*
X514850Y410977D01*
X516081Y408007D01*
X516081Y404793D01*
X514850Y401823D01*
X513019Y399991D01*
X512940Y399892D01*
X512856Y399798D01*
X512832Y399756D01*
X512802Y399718D01*
X512748Y399604D01*
X512687Y399493D01*
X512674Y399447D01*
X512653Y399403D01*
X512627Y399280D01*
X512592Y399158D01*
X512587Y399097D01*
X512580Y399062D01*
X512581Y399014D01*
X512573Y398914D01*
X512573Y396225D01*
X512587Y396099D01*
X512594Y395973D01*
X512607Y395927D01*
X512613Y395879D01*
X512655Y395760D01*
X512690Y395638D01*
X512714Y395596D01*
X512730Y395551D01*
X512799Y395444D01*
X512860Y395334D01*
X512900Y395288D01*
X512919Y395258D01*
X512954Y395224D01*
X513019Y395148D01*
X547548Y360619D01*
X547647Y360540D01*
X547741Y360456D01*
X547783Y360432D01*
X547821Y360402D01*
X547935Y360348D01*
X548046Y360287D01*
X548092Y360274D01*
X548136Y360253D01*
X548259Y360227D01*
X548381Y360192D01*
X548442Y360187D01*
X548477Y360180D01*
X548525Y360181D01*
X548625Y360173D01*
X568975Y360173D01*
X569101Y360187D01*
X569227Y360194D01*
X569273Y360207D01*
X569321Y360213D01*
X569440Y360255D01*
X569562Y360290D01*
X569604Y360314D01*
X569649Y360330D01*
X569756Y360399D01*
X569866Y360460D01*
X569912Y360500D01*
X569942Y360519D01*
X569976Y360554D01*
X570052Y360619D01*
X579181Y369748D01*
X579260Y369847D01*
X579344Y369941D01*
X579368Y369983D01*
X579398Y370021D01*
X579452Y370135D01*
X579513Y370246D01*
X579526Y370292D01*
X579547Y370336D01*
X579573Y370459D01*
X579608Y370581D01*
X579613Y370642D01*
X579620Y370677D01*
X579619Y370725D01*
X579627Y370825D01*
X579627Y456360D01*
X580323Y458040D01*
X581824Y459541D01*
X623114Y500831D01*
X623162Y500891D01*
X623217Y500945D01*
X623270Y501028D01*
X623331Y501104D01*
X623364Y501174D01*
X623405Y501238D01*
X623438Y501331D01*
X623480Y501419D01*
X623496Y501494D01*
X623522Y501567D01*
X623533Y501664D01*
X623553Y501760D01*
X623552Y501837D01*
X623560Y501913D01*
X623551Y501991D01*
X623551Y510267D01*
X624394Y512300D01*
X625950Y513856D01*
X627983Y514699D01*
X642017Y514699D01*
X642567Y514471D01*
X644050Y513856D01*
X645606Y512300D01*
X646449Y510267D01*
X646449Y502233D01*
X645606Y500200D01*
X644050Y498644D01*
X642017Y497801D01*
X641096Y497801D01*
X641070Y497798D01*
X641044Y497800D01*
X640897Y497778D01*
X640750Y497761D01*
X640725Y497753D01*
X640699Y497749D01*
X640561Y497694D01*
X640422Y497644D01*
X640400Y497630D01*
X640375Y497620D01*
X640254Y497535D01*
X640129Y497455D01*
X640111Y497436D01*
X640089Y497421D01*
X639990Y497311D01*
X639887Y497204D01*
X639873Y497182D01*
X639856Y497162D01*
X639784Y497032D01*
X639708Y496905D01*
X639700Y496880D01*
X639687Y496857D01*
X639647Y496714D01*
X639602Y496573D01*
X639600Y496547D01*
X639592Y496522D01*
X639573Y496278D01*
X639573Y483174D01*
X639581Y483098D01*
X639580Y483021D01*
X639601Y482925D01*
X639613Y482828D01*
X639638Y482756D01*
X639655Y482681D01*
X639697Y482592D01*
X639730Y482499D01*
X639772Y482435D01*
X639804Y482366D01*
X639866Y482289D01*
X639919Y482207D01*
X639974Y482153D01*
X640022Y482094D01*
X640099Y482033D01*
X640170Y481964D01*
X640235Y481925D01*
X640295Y481878D01*
X640428Y481810D01*
X640469Y481786D01*
X640487Y481780D01*
X640513Y481766D01*
X643242Y480636D01*
X647136Y476742D01*
X649244Y471654D01*
X649244Y466146D01*
X647136Y461058D01*
X643242Y457164D01*
X638154Y455056D01*
X632646Y455056D01*
X627558Y457164D01*
X623664Y461058D01*
X621556Y466146D01*
X621556Y471654D01*
X623664Y476742D01*
X627558Y480636D01*
X629487Y481435D01*
X629554Y481472D01*
X629625Y481500D01*
X629706Y481557D01*
X629792Y481604D01*
X629848Y481656D01*
X629911Y481699D01*
X629977Y481772D01*
X630050Y481839D01*
X630093Y481901D01*
X630144Y481958D01*
X630192Y482044D01*
X630248Y482125D01*
X630276Y482196D01*
X630313Y482263D01*
X630340Y482358D01*
X630376Y482449D01*
X630387Y482525D01*
X630408Y482599D01*
X630420Y482747D01*
X630427Y482794D01*
X630425Y482813D01*
X630427Y482842D01*
X630427Y491533D01*
X630425Y491549D01*
X630426Y491560D01*
X630417Y491623D01*
X630416Y491633D01*
X630414Y491733D01*
X630396Y491805D01*
X630387Y491879D01*
X630354Y491974D01*
X630329Y492071D01*
X630295Y492137D01*
X630270Y492207D01*
X630215Y492292D01*
X630169Y492381D01*
X630121Y492438D01*
X630081Y492500D01*
X630009Y492570D01*
X629944Y492646D01*
X629884Y492691D01*
X629830Y492742D01*
X629744Y492794D01*
X629663Y492854D01*
X629595Y492883D01*
X629531Y492921D01*
X629435Y492952D01*
X629343Y492992D01*
X629270Y493005D01*
X629199Y493027D01*
X629099Y493035D01*
X629000Y493053D01*
X628926Y493049D01*
X628852Y493055D01*
X628752Y493040D01*
X628652Y493035D01*
X628581Y493015D01*
X628507Y493004D01*
X628414Y492967D01*
X628317Y492939D01*
X628252Y492902D01*
X628183Y492875D01*
X628101Y492818D01*
X628013Y492769D01*
X627937Y492703D01*
X627897Y492676D01*
X627873Y492650D01*
X627827Y492610D01*
X589219Y454002D01*
X589140Y453903D01*
X589056Y453809D01*
X589032Y453767D01*
X589002Y453729D01*
X588948Y453615D01*
X588887Y453504D01*
X588874Y453458D01*
X588853Y453414D01*
X588827Y453291D01*
X588792Y453169D01*
X588787Y453108D01*
X588780Y453073D01*
X588781Y453025D01*
X588773Y452925D01*
X588773Y367390D01*
X588077Y365710D01*
X586576Y364209D01*
X575591Y353224D01*
X574090Y351723D01*
X572410Y351027D01*
X545190Y351027D01*
X543510Y351723D01*
X504123Y391110D01*
X503427Y392790D01*
X503427Y398914D01*
X503413Y399039D01*
X503406Y399166D01*
X503393Y399212D01*
X503387Y399260D01*
X503345Y399379D01*
X503310Y399501D01*
X503286Y399543D01*
X503270Y399588D01*
X503201Y399694D01*
X503140Y399805D01*
X503100Y399851D01*
X503081Y399881D01*
X503046Y399915D01*
X502981Y399991D01*
X501150Y401823D01*
X499919Y404793D01*
X499919Y408007D01*
X501150Y410977D01*
X502099Y411927D01*
X502162Y412006D01*
X502231Y412078D01*
X502269Y412142D01*
X502316Y412200D01*
X502359Y412291D01*
X502410Y412377D01*
X502433Y412448D01*
X502465Y412515D01*
X502486Y412613D01*
X502516Y412709D01*
X502522Y412783D01*
X502538Y412856D01*
X502536Y412956D01*
X502544Y413056D01*
X502533Y413130D01*
X502532Y413204D01*
X502508Y413301D01*
X502493Y413401D01*
X502465Y413470D01*
X502447Y413542D01*
X502401Y413631D01*
X502364Y413725D01*
X502321Y413786D01*
X502287Y413852D01*
X502222Y413928D01*
X502165Y414011D01*
X502110Y414061D01*
X502062Y414117D01*
X501981Y414177D01*
X501906Y414244D01*
X501841Y414280D01*
X501781Y414325D01*
X501689Y414364D01*
X501601Y414413D01*
X501529Y414433D01*
X501461Y414463D01*
X501362Y414480D01*
X501266Y414508D01*
X501166Y414516D01*
X501118Y414524D01*
X501082Y414522D01*
X501022Y414527D01*
X472425Y414527D01*
X472299Y414513D01*
X472173Y414506D01*
X472127Y414493D01*
X472079Y414487D01*
X471960Y414445D01*
X471838Y414410D01*
X471796Y414386D01*
X471751Y414370D01*
X471644Y414301D01*
X471534Y414240D01*
X471488Y414200D01*
X471458Y414181D01*
X471424Y414146D01*
X471348Y414081D01*
X408990Y351723D01*
X407310Y351027D01*
X337178Y351027D01*
X337078Y351016D01*
X336978Y351014D01*
X336906Y350996D01*
X336832Y350987D01*
X336737Y350953D01*
X336640Y350929D01*
X336574Y350895D01*
X336504Y350870D01*
X336419Y350815D01*
X336330Y350769D01*
X336273Y350721D01*
X336211Y350681D01*
X336141Y350609D01*
X336065Y350544D01*
X336020Y350484D01*
X335969Y350430D01*
X335917Y350344D01*
X335858Y350263D01*
X335828Y350195D01*
X335790Y350131D01*
X335759Y350035D01*
X335720Y349943D01*
X335706Y349870D01*
X335684Y349799D01*
X335676Y349699D01*
X335658Y349600D01*
X335662Y349526D01*
X335656Y349452D01*
X335671Y349352D01*
X335676Y349252D01*
X335696Y349181D01*
X335707Y349107D01*
X335745Y349014D01*
X335772Y348917D01*
X335809Y348852D01*
X335836Y348783D01*
X335893Y348701D01*
X335942Y348613D01*
X336008Y348537D01*
X336035Y348497D01*
X336061Y348473D01*
X336101Y348427D01*
X337050Y347477D01*
X338281Y344507D01*
X338281Y341293D01*
X337050Y338323D01*
X335219Y336491D01*
X335140Y336392D01*
X335056Y336298D01*
X335032Y336256D01*
X335002Y336218D01*
X334948Y336104D01*
X334887Y335993D01*
X334874Y335947D01*
X334853Y335903D01*
X334827Y335780D01*
X334792Y335658D01*
X334787Y335597D01*
X334780Y335562D01*
X334781Y335514D01*
X334773Y335414D01*
X334773Y258275D01*
X334787Y258149D01*
X334794Y258023D01*
X334807Y257977D01*
X334813Y257929D01*
X334855Y257810D01*
X334890Y257688D01*
X334914Y257646D01*
X334930Y257601D01*
X334999Y257494D01*
X335060Y257384D01*
X335100Y257338D01*
X335119Y257308D01*
X335154Y257274D01*
X335219Y257198D01*
X393812Y198605D01*
X393911Y198526D01*
X394005Y198442D01*
X394047Y198418D01*
X394085Y198388D01*
X394199Y198334D01*
X394310Y198273D01*
X394356Y198260D01*
X394400Y198239D01*
X394523Y198213D01*
X394645Y198178D01*
X394706Y198173D01*
X394741Y198166D01*
X394789Y198167D01*
X394889Y198159D01*
X403257Y198159D01*
X404521Y197635D01*
X405290Y197316D01*
X406846Y195760D01*
X407156Y195013D01*
X407193Y194946D01*
X407221Y194875D01*
X407277Y194795D01*
X407325Y194708D01*
X407377Y194652D01*
X407420Y194589D01*
X407493Y194523D01*
X407559Y194450D01*
X407622Y194407D01*
X407679Y194356D01*
X407765Y194308D01*
X407846Y194252D01*
X407917Y194224D01*
X407984Y194187D01*
X408079Y194160D01*
X408170Y194124D01*
X408246Y194113D01*
X408319Y194092D01*
X408468Y194080D01*
X408515Y194073D01*
X408534Y194075D01*
X408563Y194073D01*
X494292Y194073D01*
X494368Y194081D01*
X494444Y194080D01*
X494541Y194101D01*
X494638Y194113D01*
X494710Y194138D01*
X494785Y194155D01*
X494874Y194197D01*
X494966Y194230D01*
X495030Y194272D01*
X495099Y194304D01*
X495176Y194366D01*
X495259Y194419D01*
X495312Y194474D01*
X495372Y194522D01*
X495433Y194599D01*
X495501Y194670D01*
X495540Y194735D01*
X495588Y194795D01*
X495656Y194929D01*
X495680Y194969D01*
X495686Y194987D01*
X495699Y195013D01*
X496664Y197342D01*
X500558Y201236D01*
X505646Y203344D01*
X511154Y203344D01*
X516242Y201236D01*
X520136Y197342D01*
X522244Y192254D01*
X522244Y186746D01*
X520136Y181658D01*
X516242Y177764D01*
X511154Y175656D01*
X505646Y175656D01*
G37*
%LPD*%
%LPC*%
G36*
X391453Y382401D02*
X391453Y382401D01*
X387300Y384121D01*
X384121Y387300D01*
X382401Y391453D01*
X382401Y395947D01*
X384121Y400100D01*
X387300Y403279D01*
X391438Y404993D01*
X391526Y405042D01*
X391618Y405082D01*
X391678Y405126D01*
X391743Y405162D01*
X391817Y405229D01*
X391898Y405289D01*
X391946Y405346D01*
X392001Y405396D01*
X392058Y405479D01*
X392123Y405555D01*
X392157Y405622D01*
X392199Y405683D01*
X392236Y405776D01*
X392282Y405866D01*
X392300Y405938D01*
X392327Y406007D01*
X392341Y406106D01*
X392366Y406204D01*
X392367Y406278D01*
X392378Y406352D01*
X392369Y406452D01*
X392371Y406552D01*
X392355Y406625D01*
X392349Y406699D01*
X392318Y406795D01*
X392296Y406893D01*
X392264Y406960D01*
X392242Y407031D01*
X392190Y407117D01*
X392147Y407208D01*
X392100Y407266D01*
X392062Y407329D01*
X391992Y407401D01*
X391929Y407480D01*
X391871Y407526D01*
X391819Y407579D01*
X391735Y407634D01*
X391656Y407696D01*
X391566Y407742D01*
X391526Y407768D01*
X391492Y407780D01*
X391438Y407807D01*
X387300Y409521D01*
X384121Y412700D01*
X383754Y413587D01*
X383717Y413654D01*
X383689Y413725D01*
X383633Y413805D01*
X383585Y413892D01*
X383533Y413948D01*
X383490Y414011D01*
X383417Y414077D01*
X383350Y414150D01*
X383288Y414193D01*
X383231Y414244D01*
X383145Y414292D01*
X383064Y414348D01*
X382993Y414376D01*
X382926Y414413D01*
X382831Y414440D01*
X382740Y414476D01*
X382664Y414487D01*
X382590Y414508D01*
X382442Y414520D01*
X382395Y414527D01*
X382376Y414525D01*
X382347Y414527D01*
X358125Y414527D01*
X357999Y414513D01*
X357873Y414506D01*
X357827Y414493D01*
X357779Y414487D01*
X357660Y414445D01*
X357538Y414410D01*
X357496Y414386D01*
X357451Y414370D01*
X357344Y414301D01*
X357234Y414240D01*
X357188Y414200D01*
X357158Y414181D01*
X357124Y414146D01*
X357048Y414081D01*
X351427Y408460D01*
X351348Y408361D01*
X351264Y408267D01*
X351240Y408225D01*
X351210Y408187D01*
X351156Y408073D01*
X351095Y407962D01*
X351082Y407916D01*
X351061Y407872D01*
X351035Y407749D01*
X351000Y407627D01*
X350995Y407566D01*
X350988Y407531D01*
X350989Y407483D01*
X350981Y407383D01*
X350981Y404793D01*
X349750Y401823D01*
X347477Y399550D01*
X344507Y398319D01*
X341293Y398319D01*
X338323Y399550D01*
X336050Y401823D01*
X334819Y404793D01*
X334819Y408007D01*
X336050Y410977D01*
X338323Y413250D01*
X341293Y414481D01*
X343883Y414481D01*
X344009Y414495D01*
X344135Y414502D01*
X344181Y414515D01*
X344229Y414521D01*
X344348Y414563D01*
X344470Y414598D01*
X344512Y414622D01*
X344557Y414638D01*
X344664Y414707D01*
X344774Y414768D01*
X344820Y414808D01*
X344850Y414827D01*
X344884Y414862D01*
X344960Y414927D01*
X353010Y422977D01*
X354690Y423673D01*
X382347Y423673D01*
X382422Y423681D01*
X382499Y423680D01*
X382595Y423701D01*
X382693Y423713D01*
X382765Y423738D01*
X382839Y423755D01*
X382928Y423797D01*
X383021Y423830D01*
X383085Y423872D01*
X383154Y423904D01*
X383231Y423966D01*
X383314Y424019D01*
X383367Y424074D01*
X383427Y424122D01*
X383488Y424199D01*
X383556Y424270D01*
X383595Y424335D01*
X383643Y424395D01*
X383711Y424528D01*
X383735Y424569D01*
X383741Y424587D01*
X383754Y424613D01*
X384121Y425500D01*
X387300Y428679D01*
X391438Y430393D01*
X391526Y430442D01*
X391618Y430482D01*
X391678Y430526D01*
X391743Y430562D01*
X391817Y430629D01*
X391898Y430689D01*
X391946Y430746D01*
X392001Y430796D01*
X392058Y430879D01*
X392123Y430955D01*
X392157Y431022D01*
X392199Y431083D01*
X392236Y431176D01*
X392282Y431266D01*
X392300Y431338D01*
X392327Y431407D01*
X392341Y431506D01*
X392366Y431604D01*
X392367Y431678D01*
X392378Y431752D01*
X392369Y431852D01*
X392371Y431952D01*
X392355Y432025D01*
X392349Y432099D01*
X392318Y432195D01*
X392296Y432293D01*
X392264Y432360D01*
X392242Y432431D01*
X392190Y432517D01*
X392147Y432608D01*
X392100Y432666D01*
X392062Y432729D01*
X391992Y432801D01*
X391929Y432880D01*
X391871Y432926D01*
X391819Y432979D01*
X391735Y433034D01*
X391656Y433096D01*
X391566Y433142D01*
X391526Y433168D01*
X391492Y433180D01*
X391438Y433207D01*
X387300Y434921D01*
X384121Y438100D01*
X382401Y442253D01*
X382401Y446747D01*
X384121Y450900D01*
X387300Y454079D01*
X391438Y455793D01*
X391526Y455842D01*
X391618Y455882D01*
X391678Y455926D01*
X391743Y455962D01*
X391817Y456029D01*
X391898Y456089D01*
X391946Y456146D01*
X392001Y456196D01*
X392058Y456279D01*
X392123Y456355D01*
X392157Y456422D01*
X392199Y456483D01*
X392236Y456576D01*
X392282Y456666D01*
X392300Y456738D01*
X392327Y456807D01*
X392341Y456906D01*
X392366Y457004D01*
X392367Y457078D01*
X392378Y457152D01*
X392369Y457252D01*
X392371Y457352D01*
X392355Y457425D01*
X392349Y457499D01*
X392318Y457595D01*
X392296Y457693D01*
X392264Y457760D01*
X392242Y457831D01*
X392190Y457917D01*
X392147Y458008D01*
X392100Y458066D01*
X392062Y458129D01*
X391992Y458201D01*
X391929Y458280D01*
X391871Y458326D01*
X391819Y458379D01*
X391735Y458434D01*
X391656Y458496D01*
X391566Y458542D01*
X391526Y458568D01*
X391492Y458580D01*
X391438Y458607D01*
X387300Y460321D01*
X384121Y463500D01*
X382401Y467653D01*
X382401Y472147D01*
X384121Y476300D01*
X387300Y479479D01*
X391438Y481193D01*
X391526Y481242D01*
X391618Y481282D01*
X391678Y481326D01*
X391743Y481362D01*
X391817Y481429D01*
X391898Y481489D01*
X391946Y481546D01*
X392001Y481596D01*
X392058Y481679D01*
X392123Y481755D01*
X392157Y481822D01*
X392199Y481883D01*
X392236Y481976D01*
X392282Y482066D01*
X392300Y482138D01*
X392327Y482207D01*
X392341Y482306D01*
X392366Y482404D01*
X392367Y482478D01*
X392378Y482552D01*
X392369Y482652D01*
X392371Y482752D01*
X392355Y482825D01*
X392349Y482899D01*
X392318Y482995D01*
X392296Y483093D01*
X392264Y483160D01*
X392242Y483231D01*
X392190Y483317D01*
X392147Y483408D01*
X392100Y483466D01*
X392062Y483529D01*
X391992Y483601D01*
X391929Y483680D01*
X391871Y483726D01*
X391819Y483779D01*
X391735Y483834D01*
X391656Y483896D01*
X391566Y483942D01*
X391526Y483968D01*
X391492Y483980D01*
X391438Y484007D01*
X387300Y485721D01*
X384121Y488900D01*
X382401Y493053D01*
X382401Y497547D01*
X384121Y501700D01*
X387300Y504879D01*
X391438Y506593D01*
X391526Y506642D01*
X391618Y506682D01*
X391678Y506726D01*
X391743Y506762D01*
X391817Y506829D01*
X391898Y506889D01*
X391946Y506946D01*
X392001Y506996D01*
X392058Y507079D01*
X392123Y507155D01*
X392157Y507222D01*
X392199Y507283D01*
X392236Y507376D01*
X392282Y507466D01*
X392300Y507538D01*
X392327Y507607D01*
X392341Y507706D01*
X392366Y507804D01*
X392367Y507878D01*
X392378Y507952D01*
X392369Y508052D01*
X392371Y508152D01*
X392355Y508225D01*
X392349Y508299D01*
X392318Y508395D01*
X392296Y508493D01*
X392264Y508560D01*
X392242Y508631D01*
X392190Y508717D01*
X392147Y508808D01*
X392100Y508866D01*
X392062Y508929D01*
X391992Y509001D01*
X391929Y509080D01*
X391871Y509126D01*
X391819Y509179D01*
X391735Y509234D01*
X391656Y509296D01*
X391566Y509342D01*
X391526Y509368D01*
X391492Y509380D01*
X391438Y509407D01*
X387300Y511121D01*
X384121Y514300D01*
X382401Y518453D01*
X382401Y522947D01*
X384121Y527100D01*
X387300Y530279D01*
X391144Y531871D01*
X391188Y531895D01*
X391235Y531912D01*
X391339Y531980D01*
X391448Y532040D01*
X391485Y532074D01*
X391528Y532101D01*
X391614Y532191D01*
X391706Y532274D01*
X391735Y532316D01*
X391770Y532352D01*
X391834Y532459D01*
X391904Y532561D01*
X391923Y532608D01*
X391949Y532651D01*
X391987Y532769D01*
X392032Y532885D01*
X392040Y532935D01*
X392055Y532983D01*
X392065Y533107D01*
X392083Y533230D01*
X392079Y533280D01*
X392083Y533330D01*
X392065Y533453D01*
X392054Y533577D01*
X392039Y533625D01*
X392031Y533675D01*
X391985Y533790D01*
X391947Y533909D01*
X391921Y533952D01*
X391903Y533999D01*
X391832Y534101D01*
X391767Y534207D01*
X391732Y534244D01*
X391704Y534285D01*
X391611Y534368D01*
X391525Y534457D01*
X391482Y534485D01*
X391445Y534518D01*
X391336Y534578D01*
X391231Y534646D01*
X391184Y534663D01*
X391140Y534687D01*
X391020Y534721D01*
X390903Y534762D01*
X390853Y534768D01*
X390804Y534782D01*
X390561Y534801D01*
X384187Y534801D01*
X382401Y536587D01*
X382401Y540277D01*
X382399Y540293D01*
X382400Y540304D01*
X382393Y540356D01*
X382394Y540430D01*
X382373Y540526D01*
X382361Y540623D01*
X382336Y540695D01*
X382319Y540770D01*
X382277Y540859D01*
X382244Y540951D01*
X382202Y541016D01*
X382170Y541085D01*
X382108Y541162D01*
X382055Y541244D01*
X382000Y541297D01*
X381952Y541357D01*
X381875Y541418D01*
X381804Y541486D01*
X381739Y541526D01*
X381679Y541573D01*
X381546Y541641D01*
X381505Y541665D01*
X381487Y541671D01*
X381461Y541684D01*
X380160Y542223D01*
X218328Y704055D01*
X218229Y704134D01*
X218135Y704218D01*
X218093Y704242D01*
X218055Y704272D01*
X217941Y704326D01*
X217830Y704387D01*
X217784Y704400D01*
X217740Y704421D01*
X217617Y704447D01*
X217495Y704482D01*
X217434Y704487D01*
X217399Y704494D01*
X217351Y704493D01*
X217251Y704501D01*
X208883Y704501D01*
X206850Y705344D01*
X205294Y706900D01*
X205071Y707437D01*
X205034Y707504D01*
X205006Y707575D01*
X204950Y707655D01*
X204902Y707742D01*
X204850Y707798D01*
X204807Y707861D01*
X204734Y707927D01*
X204668Y708000D01*
X204605Y708043D01*
X204548Y708094D01*
X204462Y708142D01*
X204381Y708198D01*
X204310Y708226D01*
X204243Y708263D01*
X204148Y708290D01*
X204057Y708326D01*
X203981Y708337D01*
X203908Y708358D01*
X203759Y708370D01*
X203712Y708377D01*
X203693Y708375D01*
X203664Y708377D01*
X188240Y708377D01*
X186560Y709073D01*
X132386Y763247D01*
X132326Y763295D01*
X132273Y763350D01*
X132190Y763403D01*
X132113Y763464D01*
X132044Y763496D01*
X131980Y763538D01*
X131887Y763571D01*
X131798Y763613D01*
X131723Y763629D01*
X131651Y763654D01*
X131553Y763665D01*
X131457Y763686D01*
X131381Y763685D01*
X131305Y763693D01*
X131207Y763682D01*
X131109Y763680D01*
X131035Y763661D01*
X130959Y763653D01*
X130817Y763607D01*
X130771Y763595D01*
X130754Y763586D01*
X130726Y763577D01*
X129697Y763151D01*
X127494Y763151D01*
X127394Y763140D01*
X127294Y763138D01*
X127222Y763120D01*
X127148Y763111D01*
X127053Y763078D01*
X126956Y763053D01*
X126890Y763019D01*
X126820Y762994D01*
X126735Y762939D01*
X126646Y762893D01*
X126589Y762845D01*
X126527Y762805D01*
X126457Y762733D01*
X126381Y762668D01*
X126336Y762608D01*
X126285Y762554D01*
X126233Y762468D01*
X126174Y762387D01*
X126144Y762319D01*
X126106Y762255D01*
X126075Y762159D01*
X126036Y762067D01*
X126022Y761994D01*
X126000Y761923D01*
X125992Y761823D01*
X125974Y761724D01*
X125978Y761650D01*
X125972Y761576D01*
X125987Y761476D01*
X125992Y761376D01*
X126012Y761305D01*
X126023Y761231D01*
X126060Y761138D01*
X126088Y761041D01*
X126125Y760976D01*
X126152Y760907D01*
X126209Y760825D01*
X126258Y760737D01*
X126324Y760661D01*
X126351Y760621D01*
X126378Y760597D01*
X126417Y760551D01*
X129310Y757658D01*
X131449Y752494D01*
X131449Y746906D01*
X129310Y741742D01*
X125358Y737790D01*
X120194Y735651D01*
X114606Y735651D01*
X109442Y737790D01*
X105490Y741742D01*
X103351Y746906D01*
X103351Y752494D01*
X105490Y757658D01*
X109442Y761610D01*
X114606Y763749D01*
X118341Y763749D01*
X118441Y763760D01*
X118542Y763762D01*
X118614Y763780D01*
X118688Y763789D01*
X118782Y763822D01*
X118880Y763847D01*
X118946Y763881D01*
X119016Y763906D01*
X119100Y763961D01*
X119189Y764007D01*
X119246Y764055D01*
X119309Y764095D01*
X119378Y764167D01*
X119455Y764232D01*
X119499Y764292D01*
X119551Y764346D01*
X119602Y764432D01*
X119662Y764513D01*
X119691Y764581D01*
X119730Y764645D01*
X119760Y764741D01*
X119800Y764833D01*
X119813Y764906D01*
X119836Y764977D01*
X119844Y765077D01*
X119862Y765176D01*
X119858Y765250D01*
X119864Y765324D01*
X119849Y765424D01*
X119844Y765524D01*
X119823Y765595D01*
X119812Y765669D01*
X119775Y765762D01*
X119747Y765859D01*
X119711Y765924D01*
X119683Y765993D01*
X119626Y766075D01*
X119577Y766163D01*
X119512Y766239D01*
X119484Y766279D01*
X119458Y766303D01*
X119419Y766349D01*
X117609Y768158D01*
X115851Y772403D01*
X115851Y776997D01*
X117610Y781242D01*
X120858Y784490D01*
X125103Y786249D01*
X129697Y786249D01*
X133942Y784490D01*
X137190Y781242D01*
X138949Y776997D01*
X138949Y772403D01*
X138523Y771374D01*
X138502Y771301D01*
X138471Y771230D01*
X138454Y771134D01*
X138427Y771039D01*
X138423Y770963D01*
X138410Y770887D01*
X138415Y770789D01*
X138410Y770691D01*
X138424Y770616D01*
X138428Y770539D01*
X138455Y770445D01*
X138473Y770348D01*
X138503Y770278D01*
X138524Y770204D01*
X138572Y770119D01*
X138611Y770028D01*
X138657Y769967D01*
X138694Y769900D01*
X138791Y769787D01*
X138819Y769749D01*
X138834Y769736D01*
X138853Y769714D01*
X190598Y717969D01*
X190697Y717890D01*
X190791Y717806D01*
X190833Y717782D01*
X190871Y717752D01*
X190985Y717698D01*
X191096Y717637D01*
X191142Y717624D01*
X191186Y717603D01*
X191309Y717577D01*
X191431Y717542D01*
X191492Y717537D01*
X191527Y717530D01*
X191575Y717531D01*
X191675Y717523D01*
X203664Y717523D01*
X203740Y717531D01*
X203816Y717530D01*
X203912Y717551D01*
X204010Y717563D01*
X204082Y717588D01*
X204157Y717605D01*
X204246Y717647D01*
X204338Y717680D01*
X204402Y717722D01*
X204471Y717754D01*
X204548Y717816D01*
X204631Y717869D01*
X204684Y717924D01*
X204744Y717972D01*
X204805Y718049D01*
X204873Y718120D01*
X204912Y718185D01*
X204960Y718245D01*
X205028Y718379D01*
X205052Y718419D01*
X205058Y718437D01*
X205071Y718463D01*
X205294Y719000D01*
X206850Y720556D01*
X208883Y721399D01*
X222917Y721399D01*
X224950Y720556D01*
X226506Y719000D01*
X227349Y716967D01*
X227349Y708739D01*
X227343Y708704D01*
X227348Y708607D01*
X227343Y708509D01*
X227357Y708433D01*
X227360Y708356D01*
X227388Y708262D01*
X227405Y708166D01*
X227436Y708095D01*
X227457Y708022D01*
X227505Y707936D01*
X227544Y707846D01*
X227590Y707785D01*
X227627Y707717D01*
X227723Y707604D01*
X227752Y707566D01*
X227766Y707554D01*
X227786Y707531D01*
X379976Y555341D01*
X379996Y555325D01*
X380013Y555305D01*
X380132Y555217D01*
X380249Y555125D01*
X380272Y555113D01*
X380293Y555098D01*
X380430Y555039D01*
X380564Y554976D01*
X380589Y554970D01*
X380613Y554960D01*
X380760Y554934D01*
X380904Y554902D01*
X380930Y554903D01*
X380956Y554898D01*
X381105Y554906D01*
X381253Y554908D01*
X381278Y554915D01*
X381304Y554916D01*
X381447Y554957D01*
X381591Y554993D01*
X381614Y555005D01*
X381639Y555013D01*
X381769Y555085D01*
X381901Y555153D01*
X381921Y555170D01*
X381943Y555183D01*
X382130Y555341D01*
X384187Y557399D01*
X403213Y557399D01*
X404999Y555613D01*
X404999Y536587D01*
X403213Y534801D01*
X396839Y534801D01*
X396789Y534796D01*
X396739Y534798D01*
X396617Y534776D01*
X396493Y534761D01*
X396446Y534744D01*
X396396Y534735D01*
X396282Y534686D01*
X396165Y534644D01*
X396123Y534617D01*
X396077Y534597D01*
X395977Y534522D01*
X395872Y534455D01*
X395837Y534419D01*
X395797Y534389D01*
X395717Y534294D01*
X395630Y534204D01*
X395604Y534161D01*
X395572Y534123D01*
X395515Y534012D01*
X395451Y533905D01*
X395436Y533857D01*
X395413Y533812D01*
X395383Y533692D01*
X395345Y533573D01*
X395341Y533523D01*
X395329Y533474D01*
X395327Y533350D01*
X395317Y533226D01*
X395324Y533176D01*
X395324Y533126D01*
X395350Y533004D01*
X395369Y532881D01*
X395387Y532834D01*
X395398Y532785D01*
X395451Y532673D01*
X395497Y532557D01*
X395526Y532516D01*
X395548Y532470D01*
X395625Y532373D01*
X395696Y532271D01*
X395734Y532237D01*
X395765Y532198D01*
X395863Y532121D01*
X395955Y532038D01*
X395999Y532013D01*
X396039Y531982D01*
X396256Y531871D01*
X400100Y530279D01*
X403279Y527100D01*
X403646Y526213D01*
X403683Y526146D01*
X403711Y526075D01*
X403767Y525995D01*
X403815Y525908D01*
X403867Y525852D01*
X403910Y525789D01*
X403983Y525723D01*
X404050Y525650D01*
X404112Y525607D01*
X404169Y525556D01*
X404255Y525508D01*
X404336Y525452D01*
X404407Y525424D01*
X404474Y525387D01*
X404569Y525360D01*
X404660Y525324D01*
X404736Y525313D01*
X404810Y525292D01*
X404958Y525280D01*
X405005Y525273D01*
X405024Y525275D01*
X405053Y525273D01*
X429275Y525273D01*
X429401Y525287D01*
X429527Y525294D01*
X429573Y525307D01*
X429621Y525313D01*
X429740Y525355D01*
X429862Y525390D01*
X429904Y525414D01*
X429949Y525430D01*
X430056Y525499D01*
X430166Y525560D01*
X430212Y525600D01*
X430242Y525619D01*
X430276Y525654D01*
X430352Y525719D01*
X452181Y547548D01*
X452260Y547647D01*
X452344Y547741D01*
X452368Y547783D01*
X452398Y547821D01*
X452452Y547935D01*
X452513Y548046D01*
X452526Y548092D01*
X452547Y548136D01*
X452573Y548259D01*
X452608Y548381D01*
X452613Y548442D01*
X452620Y548477D01*
X452619Y548525D01*
X452627Y548625D01*
X452627Y648610D01*
X453323Y650290D01*
X518110Y715077D01*
X519790Y715773D01*
X655051Y715773D01*
X655150Y715784D01*
X655250Y715786D01*
X655323Y715804D01*
X655398Y715813D01*
X655491Y715846D01*
X655588Y715870D01*
X655655Y715905D01*
X655726Y715930D01*
X655809Y715984D01*
X655898Y716029D01*
X655978Y716093D01*
X656019Y716119D01*
X656043Y716144D01*
X656089Y716181D01*
X716716Y772630D01*
X716816Y772747D01*
X716918Y772860D01*
X716929Y772879D01*
X716942Y772895D01*
X717013Y773031D01*
X717087Y773165D01*
X717093Y773186D01*
X717102Y773204D01*
X717140Y773353D01*
X717182Y773501D01*
X717184Y773526D01*
X717188Y773542D01*
X717189Y773587D01*
X717201Y773745D01*
X717201Y781717D01*
X718044Y783750D01*
X719600Y785306D01*
X721633Y786149D01*
X729667Y786149D01*
X731700Y785306D01*
X733256Y783750D01*
X734099Y781717D01*
X734099Y780796D01*
X734102Y780770D01*
X734100Y780744D01*
X734122Y780597D01*
X734139Y780450D01*
X734147Y780425D01*
X734151Y780399D01*
X734206Y780261D01*
X734256Y780122D01*
X734270Y780100D01*
X734280Y780075D01*
X734365Y779954D01*
X734445Y779829D01*
X734464Y779811D01*
X734479Y779789D01*
X734589Y779690D01*
X734696Y779587D01*
X734718Y779573D01*
X734738Y779556D01*
X734868Y779484D01*
X734995Y779408D01*
X735020Y779400D01*
X735043Y779387D01*
X735186Y779347D01*
X735327Y779302D01*
X735353Y779300D01*
X735378Y779292D01*
X735622Y779273D01*
X814276Y779273D01*
X814352Y779281D01*
X814428Y779280D01*
X814525Y779301D01*
X814622Y779313D01*
X814694Y779338D01*
X814769Y779355D01*
X814858Y779397D01*
X814950Y779430D01*
X815015Y779472D01*
X815084Y779504D01*
X815160Y779566D01*
X815243Y779619D01*
X815296Y779674D01*
X815356Y779722D01*
X815417Y779799D01*
X815485Y779870D01*
X815525Y779935D01*
X815572Y779995D01*
X815640Y780128D01*
X815664Y780169D01*
X815670Y780187D01*
X815683Y780213D01*
X816109Y781242D01*
X819358Y784490D01*
X823603Y786249D01*
X828197Y786249D01*
X832442Y784490D01*
X835690Y781242D01*
X837449Y776997D01*
X837449Y772403D01*
X835690Y768158D01*
X832442Y764910D01*
X828197Y763151D01*
X825994Y763151D01*
X825894Y763140D01*
X825794Y763138D01*
X825722Y763120D01*
X825648Y763111D01*
X825553Y763078D01*
X825456Y763053D01*
X825390Y763019D01*
X825320Y762994D01*
X825235Y762939D01*
X825146Y762893D01*
X825089Y762845D01*
X825027Y762805D01*
X824957Y762733D01*
X824881Y762668D01*
X824836Y762608D01*
X824785Y762554D01*
X824733Y762468D01*
X824674Y762387D01*
X824644Y762319D01*
X824606Y762255D01*
X824575Y762159D01*
X824536Y762067D01*
X824522Y761994D01*
X824500Y761923D01*
X824492Y761823D01*
X824474Y761724D01*
X824478Y761650D01*
X824472Y761576D01*
X824487Y761476D01*
X824492Y761376D01*
X824512Y761305D01*
X824523Y761231D01*
X824560Y761138D01*
X824588Y761041D01*
X824625Y760976D01*
X824652Y760907D01*
X824709Y760825D01*
X824758Y760737D01*
X824824Y760661D01*
X824851Y760621D01*
X824878Y760597D01*
X824917Y760551D01*
X827810Y757658D01*
X829949Y752494D01*
X829949Y746906D01*
X827810Y741742D01*
X823858Y737790D01*
X818694Y735651D01*
X813106Y735651D01*
X807942Y737790D01*
X803990Y741742D01*
X801851Y746906D01*
X801851Y752494D01*
X803990Y757658D01*
X807942Y761610D01*
X813106Y763749D01*
X816841Y763749D01*
X816941Y763760D01*
X817042Y763762D01*
X817114Y763780D01*
X817188Y763789D01*
X817282Y763822D01*
X817380Y763847D01*
X817446Y763881D01*
X817516Y763906D01*
X817600Y763961D01*
X817689Y764007D01*
X817746Y764055D01*
X817809Y764095D01*
X817878Y764167D01*
X817955Y764232D01*
X817999Y764292D01*
X818051Y764346D01*
X818102Y764432D01*
X818162Y764513D01*
X818191Y764581D01*
X818230Y764645D01*
X818260Y764741D01*
X818300Y764833D01*
X818313Y764906D01*
X818336Y764977D01*
X818344Y765077D01*
X818362Y765176D01*
X818358Y765250D01*
X818364Y765324D01*
X818349Y765424D01*
X818344Y765524D01*
X818323Y765595D01*
X818312Y765669D01*
X818275Y765762D01*
X818247Y765859D01*
X818211Y765924D01*
X818183Y765993D01*
X818126Y766075D01*
X818077Y766163D01*
X818012Y766239D01*
X817984Y766279D01*
X817958Y766303D01*
X817919Y766349D01*
X816109Y768158D01*
X815683Y769187D01*
X815646Y769254D01*
X815618Y769325D01*
X815562Y769405D01*
X815514Y769492D01*
X815463Y769548D01*
X815419Y769611D01*
X815346Y769677D01*
X815280Y769750D01*
X815217Y769793D01*
X815160Y769844D01*
X815074Y769892D01*
X814993Y769948D01*
X814922Y769976D01*
X814855Y770013D01*
X814760Y770040D01*
X814669Y770076D01*
X814593Y770087D01*
X814520Y770108D01*
X814371Y770120D01*
X814324Y770127D01*
X814305Y770125D01*
X814276Y770127D01*
X735622Y770127D01*
X735596Y770124D01*
X735570Y770126D01*
X735423Y770104D01*
X735276Y770087D01*
X735251Y770079D01*
X735225Y770075D01*
X735087Y770020D01*
X734948Y769970D01*
X734926Y769956D01*
X734901Y769946D01*
X734780Y769861D01*
X734655Y769781D01*
X734637Y769762D01*
X734615Y769747D01*
X734516Y769637D01*
X734413Y769530D01*
X734399Y769508D01*
X734382Y769488D01*
X734310Y769358D01*
X734234Y769231D01*
X734226Y769206D01*
X734213Y769183D01*
X734173Y769040D01*
X734128Y768899D01*
X734126Y768873D01*
X734118Y768848D01*
X734099Y768604D01*
X734099Y767683D01*
X733256Y765650D01*
X731700Y764094D01*
X729667Y763251D01*
X721634Y763251D01*
X721452Y763326D01*
X721404Y763340D01*
X721360Y763361D01*
X721237Y763388D01*
X721117Y763422D01*
X721068Y763425D01*
X721019Y763435D01*
X720894Y763433D01*
X720769Y763439D01*
X720720Y763430D01*
X720671Y763430D01*
X720549Y763399D01*
X720426Y763377D01*
X720381Y763357D01*
X720333Y763345D01*
X720221Y763288D01*
X720106Y763238D01*
X720067Y763208D01*
X720023Y763186D01*
X719831Y763034D01*
X660645Y707927D01*
X660631Y707911D01*
X660606Y707889D01*
X659993Y707276D01*
X659953Y707255D01*
X659947Y707251D01*
X659150Y706954D01*
X659131Y706944D01*
X659099Y706934D01*
X658298Y706602D01*
X658253Y706598D01*
X658246Y706596D01*
X657396Y706626D01*
X657374Y706625D01*
X657341Y706627D01*
X523225Y706627D01*
X523099Y706613D01*
X522973Y706606D01*
X522927Y706593D01*
X522879Y706587D01*
X522760Y706545D01*
X522638Y706510D01*
X522596Y706486D01*
X522551Y706470D01*
X522444Y706401D01*
X522334Y706340D01*
X522288Y706300D01*
X522258Y706281D01*
X522224Y706246D01*
X522148Y706181D01*
X462219Y646252D01*
X462140Y646153D01*
X462056Y646059D01*
X462032Y646017D01*
X462002Y645979D01*
X461948Y645865D01*
X461887Y645754D01*
X461874Y645708D01*
X461853Y645664D01*
X461827Y645541D01*
X461792Y645419D01*
X461787Y645358D01*
X461780Y645323D01*
X461781Y645275D01*
X461773Y645175D01*
X461773Y545190D01*
X461077Y543510D01*
X434390Y516823D01*
X432710Y516127D01*
X405053Y516127D01*
X404978Y516119D01*
X404901Y516120D01*
X404805Y516099D01*
X404707Y516087D01*
X404635Y516062D01*
X404561Y516045D01*
X404472Y516003D01*
X404379Y515970D01*
X404315Y515928D01*
X404246Y515896D01*
X404169Y515834D01*
X404086Y515781D01*
X404033Y515726D01*
X403973Y515678D01*
X403912Y515601D01*
X403844Y515530D01*
X403805Y515465D01*
X403757Y515405D01*
X403689Y515272D01*
X403665Y515231D01*
X403659Y515213D01*
X403646Y515187D01*
X403279Y514300D01*
X400100Y511121D01*
X395962Y509407D01*
X395874Y509359D01*
X395782Y509319D01*
X395722Y509274D01*
X395657Y509238D01*
X395583Y509171D01*
X395502Y509111D01*
X395454Y509054D01*
X395399Y509004D01*
X395342Y508921D01*
X395277Y508845D01*
X395243Y508778D01*
X395201Y508717D01*
X395164Y508624D01*
X395118Y508534D01*
X395101Y508462D01*
X395073Y508393D01*
X395059Y508294D01*
X395034Y508196D01*
X395033Y508122D01*
X395022Y508048D01*
X395031Y507948D01*
X395029Y507848D01*
X395045Y507775D01*
X395051Y507701D01*
X395082Y507605D01*
X395104Y507507D01*
X395136Y507440D01*
X395158Y507369D01*
X395210Y507283D01*
X395253Y507192D01*
X395300Y507134D01*
X395338Y507071D01*
X395408Y506998D01*
X395471Y506920D01*
X395529Y506874D01*
X395581Y506821D01*
X395665Y506766D01*
X395744Y506704D01*
X395834Y506658D01*
X395874Y506632D01*
X395908Y506620D01*
X395962Y506593D01*
X400100Y504879D01*
X403279Y501700D01*
X403646Y500813D01*
X403683Y500746D01*
X403711Y500675D01*
X403767Y500595D01*
X403815Y500508D01*
X403867Y500452D01*
X403910Y500389D01*
X403983Y500323D01*
X404050Y500250D01*
X404112Y500207D01*
X404169Y500156D01*
X404255Y500108D01*
X404336Y500052D01*
X404407Y500024D01*
X404474Y499987D01*
X404569Y499960D01*
X404660Y499924D01*
X404736Y499913D01*
X404810Y499892D01*
X404958Y499880D01*
X405005Y499873D01*
X405024Y499875D01*
X405053Y499873D01*
X458110Y499873D01*
X459790Y499177D01*
X505940Y453027D01*
X506039Y452948D01*
X506133Y452864D01*
X506175Y452840D01*
X506213Y452810D01*
X506327Y452756D01*
X506438Y452695D01*
X506484Y452682D01*
X506528Y452661D01*
X506651Y452635D01*
X506773Y452600D01*
X506834Y452595D01*
X506869Y452588D01*
X506917Y452589D01*
X507017Y452581D01*
X509607Y452581D01*
X512577Y451350D01*
X514850Y449077D01*
X516081Y446107D01*
X516081Y442893D01*
X514850Y439923D01*
X512577Y437650D01*
X509607Y436419D01*
X506393Y436419D01*
X503423Y437650D01*
X501150Y439923D01*
X499919Y442893D01*
X499919Y445483D01*
X499905Y445609D01*
X499898Y445735D01*
X499885Y445781D01*
X499879Y445829D01*
X499837Y445948D01*
X499802Y446070D01*
X499778Y446112D01*
X499762Y446157D01*
X499693Y446264D01*
X499632Y446374D01*
X499592Y446420D01*
X499573Y446450D01*
X499538Y446484D01*
X499473Y446560D01*
X455752Y490281D01*
X455653Y490360D01*
X455559Y490444D01*
X455517Y490468D01*
X455479Y490498D01*
X455365Y490552D01*
X455254Y490613D01*
X455208Y490626D01*
X455164Y490647D01*
X455041Y490673D01*
X454919Y490708D01*
X454858Y490713D01*
X454823Y490720D01*
X454775Y490719D01*
X454675Y490727D01*
X405053Y490727D01*
X404978Y490719D01*
X404901Y490720D01*
X404805Y490699D01*
X404707Y490687D01*
X404635Y490662D01*
X404561Y490645D01*
X404472Y490603D01*
X404379Y490570D01*
X404315Y490528D01*
X404246Y490496D01*
X404169Y490434D01*
X404086Y490381D01*
X404033Y490326D01*
X403973Y490278D01*
X403912Y490201D01*
X403844Y490130D01*
X403805Y490065D01*
X403757Y490005D01*
X403689Y489872D01*
X403665Y489831D01*
X403659Y489813D01*
X403646Y489787D01*
X403279Y488900D01*
X400100Y485721D01*
X395962Y484007D01*
X395874Y483959D01*
X395782Y483919D01*
X395722Y483874D01*
X395657Y483838D01*
X395583Y483771D01*
X395502Y483711D01*
X395454Y483654D01*
X395399Y483604D01*
X395342Y483521D01*
X395277Y483445D01*
X395243Y483378D01*
X395201Y483317D01*
X395164Y483224D01*
X395118Y483134D01*
X395101Y483062D01*
X395073Y482993D01*
X395059Y482894D01*
X395034Y482796D01*
X395033Y482722D01*
X395022Y482648D01*
X395031Y482548D01*
X395029Y482448D01*
X395045Y482375D01*
X395051Y482301D01*
X395082Y482205D01*
X395104Y482107D01*
X395136Y482040D01*
X395158Y481969D01*
X395210Y481883D01*
X395253Y481792D01*
X395300Y481734D01*
X395338Y481671D01*
X395408Y481598D01*
X395471Y481520D01*
X395529Y481474D01*
X395581Y481421D01*
X395665Y481366D01*
X395744Y481304D01*
X395834Y481258D01*
X395874Y481232D01*
X395908Y481220D01*
X395962Y481193D01*
X400100Y479479D01*
X403279Y476300D01*
X403646Y475413D01*
X403683Y475346D01*
X403711Y475275D01*
X403767Y475195D01*
X403815Y475108D01*
X403867Y475052D01*
X403910Y474989D01*
X403983Y474923D01*
X404050Y474850D01*
X404112Y474807D01*
X404169Y474756D01*
X404255Y474708D01*
X404336Y474652D01*
X404407Y474624D01*
X404474Y474587D01*
X404569Y474560D01*
X404660Y474524D01*
X404736Y474513D01*
X404810Y474492D01*
X404958Y474480D01*
X405005Y474473D01*
X405024Y474475D01*
X405053Y474473D01*
X407310Y474473D01*
X408990Y473777D01*
X442440Y440327D01*
X442539Y440248D01*
X442633Y440164D01*
X442675Y440140D01*
X442713Y440110D01*
X442827Y440056D01*
X442938Y439995D01*
X442984Y439982D01*
X443028Y439961D01*
X443151Y439935D01*
X443273Y439900D01*
X443334Y439895D01*
X443369Y439888D01*
X443417Y439889D01*
X443517Y439881D01*
X446107Y439881D01*
X449077Y438650D01*
X451350Y436377D01*
X452581Y433407D01*
X452581Y430193D01*
X451350Y427223D01*
X449077Y424950D01*
X446107Y423719D01*
X442893Y423719D01*
X439923Y424950D01*
X437650Y427223D01*
X436419Y430193D01*
X436419Y432783D01*
X436405Y432909D01*
X436398Y433035D01*
X436385Y433081D01*
X436379Y433129D01*
X436337Y433248D01*
X436302Y433370D01*
X436278Y433412D01*
X436262Y433457D01*
X436193Y433564D01*
X436132Y433674D01*
X436092Y433720D01*
X436073Y433750D01*
X436038Y433784D01*
X435973Y433860D01*
X405785Y464048D01*
X405668Y464141D01*
X405553Y464238D01*
X405531Y464249D01*
X405512Y464264D01*
X405376Y464329D01*
X405243Y464397D01*
X405219Y464403D01*
X405197Y464413D01*
X405050Y464445D01*
X404904Y464481D01*
X404880Y464482D01*
X404857Y464487D01*
X404707Y464484D01*
X404556Y464486D01*
X404532Y464481D01*
X404508Y464481D01*
X404362Y464444D01*
X404215Y464412D01*
X404194Y464402D01*
X404170Y464396D01*
X404036Y464327D01*
X403901Y464262D01*
X403882Y464247D01*
X403860Y464236D01*
X403745Y464138D01*
X403628Y464045D01*
X403613Y464026D01*
X403595Y464010D01*
X403505Y463889D01*
X403412Y463771D01*
X403399Y463745D01*
X403388Y463730D01*
X403369Y463687D01*
X403301Y463554D01*
X403279Y463500D01*
X400100Y460321D01*
X395962Y458607D01*
X395874Y458559D01*
X395782Y458519D01*
X395722Y458474D01*
X395657Y458438D01*
X395583Y458371D01*
X395502Y458311D01*
X395454Y458254D01*
X395399Y458204D01*
X395342Y458121D01*
X395277Y458045D01*
X395243Y457978D01*
X395201Y457917D01*
X395164Y457824D01*
X395118Y457734D01*
X395101Y457662D01*
X395073Y457593D01*
X395059Y457494D01*
X395034Y457396D01*
X395033Y457322D01*
X395022Y457248D01*
X395031Y457148D01*
X395029Y457048D01*
X395045Y456975D01*
X395051Y456901D01*
X395082Y456805D01*
X395104Y456707D01*
X395136Y456640D01*
X395158Y456569D01*
X395210Y456483D01*
X395253Y456392D01*
X395300Y456334D01*
X395338Y456271D01*
X395408Y456198D01*
X395471Y456120D01*
X395529Y456074D01*
X395581Y456021D01*
X395665Y455966D01*
X395744Y455904D01*
X395834Y455858D01*
X395874Y455832D01*
X395908Y455820D01*
X395962Y455793D01*
X400100Y454079D01*
X403279Y450900D01*
X404999Y446747D01*
X404999Y442253D01*
X403279Y438100D01*
X400100Y434921D01*
X395962Y433207D01*
X395874Y433159D01*
X395782Y433119D01*
X395722Y433074D01*
X395657Y433038D01*
X395583Y432971D01*
X395502Y432911D01*
X395454Y432854D01*
X395399Y432804D01*
X395342Y432721D01*
X395277Y432645D01*
X395243Y432578D01*
X395201Y432517D01*
X395164Y432424D01*
X395118Y432334D01*
X395101Y432262D01*
X395073Y432193D01*
X395059Y432094D01*
X395034Y431996D01*
X395033Y431922D01*
X395022Y431848D01*
X395031Y431748D01*
X395029Y431648D01*
X395045Y431575D01*
X395051Y431501D01*
X395082Y431405D01*
X395104Y431307D01*
X395136Y431240D01*
X395158Y431169D01*
X395210Y431083D01*
X395253Y430992D01*
X395300Y430934D01*
X395338Y430871D01*
X395408Y430798D01*
X395471Y430720D01*
X395529Y430674D01*
X395581Y430621D01*
X395665Y430566D01*
X395744Y430504D01*
X395834Y430458D01*
X395874Y430432D01*
X395908Y430420D01*
X395962Y430393D01*
X400100Y428679D01*
X403279Y425500D01*
X404999Y421347D01*
X404999Y416853D01*
X403279Y412700D01*
X400100Y409521D01*
X395962Y407807D01*
X395874Y407759D01*
X395782Y407719D01*
X395722Y407674D01*
X395657Y407638D01*
X395583Y407571D01*
X395502Y407511D01*
X395454Y407454D01*
X395399Y407404D01*
X395342Y407321D01*
X395277Y407245D01*
X395243Y407178D01*
X395201Y407117D01*
X395164Y407024D01*
X395118Y406934D01*
X395101Y406862D01*
X395073Y406793D01*
X395059Y406694D01*
X395034Y406596D01*
X395033Y406522D01*
X395022Y406448D01*
X395031Y406348D01*
X395029Y406248D01*
X395045Y406175D01*
X395051Y406101D01*
X395082Y406005D01*
X395104Y405907D01*
X395136Y405840D01*
X395158Y405769D01*
X395210Y405683D01*
X395253Y405592D01*
X395300Y405534D01*
X395338Y405471D01*
X395408Y405398D01*
X395471Y405320D01*
X395529Y405274D01*
X395581Y405221D01*
X395665Y405166D01*
X395744Y405104D01*
X395834Y405058D01*
X395874Y405032D01*
X395908Y405020D01*
X395962Y404993D01*
X400100Y403279D01*
X403279Y400100D01*
X404999Y395947D01*
X404999Y391453D01*
X403279Y387300D01*
X400100Y384121D01*
X395947Y382401D01*
X391453Y382401D01*
G37*
%LPD*%
%LPC*%
G36*
X564483Y272701D02*
X564483Y272701D01*
X562450Y273544D01*
X560894Y275100D01*
X560051Y277133D01*
X560051Y283751D01*
X560037Y283877D01*
X560030Y284003D01*
X560017Y284049D01*
X560011Y284097D01*
X559969Y284216D01*
X559934Y284338D01*
X559910Y284380D01*
X559894Y284425D01*
X559825Y284532D01*
X559764Y284642D01*
X559724Y284688D01*
X559705Y284718D01*
X559670Y284752D01*
X559605Y284828D01*
X471960Y372473D01*
X471861Y372552D01*
X471767Y372636D01*
X471725Y372660D01*
X471687Y372690D01*
X471573Y372744D01*
X471462Y372805D01*
X471416Y372818D01*
X471372Y372839D01*
X471249Y372865D01*
X471127Y372900D01*
X471066Y372905D01*
X471031Y372912D01*
X470983Y372911D01*
X470883Y372919D01*
X468293Y372919D01*
X465323Y374150D01*
X463050Y376423D01*
X461819Y379393D01*
X461819Y382607D01*
X463050Y385577D01*
X465323Y387850D01*
X468293Y389081D01*
X471507Y389081D01*
X473251Y388358D01*
X473348Y388331D01*
X473441Y388294D01*
X473515Y388283D01*
X473587Y388263D01*
X473687Y388258D01*
X473786Y388243D01*
X473861Y388249D01*
X473935Y388246D01*
X474033Y388264D01*
X474134Y388272D01*
X474204Y388295D01*
X474278Y388308D01*
X474370Y388348D01*
X474465Y388379D01*
X474529Y388417D01*
X474597Y388447D01*
X474678Y388507D01*
X474764Y388559D01*
X474817Y388611D01*
X474877Y388655D01*
X474942Y388732D01*
X475014Y388802D01*
X475054Y388864D01*
X475102Y388921D01*
X475148Y389010D01*
X475202Y389095D01*
X475227Y389165D01*
X475261Y389231D01*
X475285Y389329D01*
X475319Y389423D01*
X475327Y389497D01*
X475345Y389569D01*
X475346Y389670D01*
X475358Y389770D01*
X475349Y389843D01*
X475350Y389918D01*
X475329Y390016D01*
X475317Y390116D01*
X475286Y390211D01*
X475276Y390258D01*
X475260Y390291D01*
X475242Y390349D01*
X474519Y392093D01*
X474519Y395307D01*
X475750Y398277D01*
X478023Y400550D01*
X480993Y401781D01*
X484207Y401781D01*
X487177Y400550D01*
X489450Y398277D01*
X490681Y395307D01*
X490681Y392717D01*
X490695Y392591D01*
X490702Y392465D01*
X490715Y392419D01*
X490721Y392371D01*
X490763Y392252D01*
X490798Y392130D01*
X490822Y392088D01*
X490838Y392043D01*
X490907Y391936D01*
X490968Y391826D01*
X491008Y391780D01*
X491027Y391750D01*
X491062Y391716D01*
X491127Y391640D01*
X549215Y333552D01*
X549314Y333473D01*
X549408Y333389D01*
X549450Y333365D01*
X549488Y333335D01*
X549602Y333281D01*
X549713Y333220D01*
X549759Y333207D01*
X549803Y333186D01*
X549926Y333160D01*
X550048Y333125D01*
X550109Y333120D01*
X550144Y333113D01*
X550192Y333114D01*
X550292Y333106D01*
X622939Y333106D01*
X623039Y333117D01*
X623139Y333119D01*
X623211Y333137D01*
X623285Y333146D01*
X623380Y333179D01*
X623477Y333204D01*
X623543Y333238D01*
X623613Y333263D01*
X623698Y333318D01*
X623787Y333364D01*
X623843Y333412D01*
X623906Y333452D01*
X623976Y333524D01*
X624052Y333589D01*
X624096Y333649D01*
X624148Y333703D01*
X624200Y333789D01*
X624259Y333870D01*
X624289Y333938D01*
X624327Y334002D01*
X624358Y334097D01*
X624397Y334190D01*
X624411Y334263D01*
X624433Y334334D01*
X624441Y334434D01*
X624459Y334533D01*
X624455Y334607D01*
X624461Y334681D01*
X624446Y334780D01*
X624441Y334881D01*
X624421Y334952D01*
X624409Y335026D01*
X624372Y335119D01*
X624345Y335216D01*
X624308Y335281D01*
X624281Y335350D01*
X624224Y335432D01*
X624174Y335520D01*
X624109Y335596D01*
X624082Y335636D01*
X624055Y335660D01*
X624016Y335706D01*
X623664Y336058D01*
X621556Y341146D01*
X621556Y346654D01*
X623664Y351742D01*
X627558Y355636D01*
X632646Y357744D01*
X638154Y357744D01*
X643242Y355636D01*
X647136Y351742D01*
X649244Y346654D01*
X649244Y341146D01*
X647136Y336058D01*
X646784Y335706D01*
X646722Y335628D01*
X646652Y335555D01*
X646614Y335491D01*
X646567Y335433D01*
X646524Y335342D01*
X646473Y335256D01*
X646450Y335185D01*
X646419Y335118D01*
X646397Y335020D01*
X646367Y334924D01*
X646361Y334850D01*
X646345Y334777D01*
X646347Y334677D01*
X646339Y334577D01*
X646350Y334503D01*
X646351Y334429D01*
X646376Y334332D01*
X646391Y334232D01*
X646418Y334163D01*
X646436Y334091D01*
X646482Y334002D01*
X646519Y333908D01*
X646562Y333847D01*
X646596Y333781D01*
X646661Y333704D01*
X646718Y333622D01*
X646773Y333572D01*
X646822Y333516D01*
X646902Y333456D01*
X646977Y333389D01*
X647042Y333353D01*
X647102Y333308D01*
X647194Y333269D01*
X647282Y333220D01*
X647354Y333200D01*
X647422Y333170D01*
X647521Y333153D01*
X647617Y333125D01*
X647717Y333117D01*
X647765Y333109D01*
X647801Y333111D01*
X647861Y333106D01*
X672939Y333106D01*
X673039Y333117D01*
X673139Y333119D01*
X673211Y333137D01*
X673285Y333146D01*
X673380Y333179D01*
X673477Y333204D01*
X673543Y333238D01*
X673613Y333263D01*
X673698Y333318D01*
X673787Y333364D01*
X673843Y333412D01*
X673906Y333452D01*
X673976Y333524D01*
X674052Y333589D01*
X674096Y333649D01*
X674148Y333703D01*
X674200Y333789D01*
X674259Y333870D01*
X674289Y333938D01*
X674327Y334002D01*
X674358Y334097D01*
X674397Y334190D01*
X674411Y334263D01*
X674433Y334334D01*
X674441Y334434D01*
X674459Y334533D01*
X674455Y334607D01*
X674461Y334681D01*
X674446Y334780D01*
X674441Y334881D01*
X674421Y334952D01*
X674409Y335026D01*
X674372Y335119D01*
X674345Y335216D01*
X674308Y335281D01*
X674281Y335350D01*
X674224Y335432D01*
X674174Y335520D01*
X674109Y335596D01*
X674082Y335636D01*
X674055Y335660D01*
X674016Y335706D01*
X673664Y336058D01*
X671556Y341146D01*
X671556Y346654D01*
X673664Y351742D01*
X677558Y355636D01*
X682646Y357744D01*
X688154Y357744D01*
X693242Y355636D01*
X697136Y351742D01*
X699244Y346654D01*
X699244Y341146D01*
X697136Y336058D01*
X696784Y335706D01*
X696722Y335628D01*
X696652Y335555D01*
X696614Y335491D01*
X696567Y335433D01*
X696524Y335342D01*
X696473Y335256D01*
X696450Y335185D01*
X696419Y335118D01*
X696397Y335020D01*
X696367Y334924D01*
X696361Y334850D01*
X696345Y334777D01*
X696347Y334677D01*
X696339Y334577D01*
X696350Y334503D01*
X696351Y334429D01*
X696376Y334332D01*
X696391Y334232D01*
X696418Y334163D01*
X696436Y334091D01*
X696482Y334002D01*
X696519Y333908D01*
X696562Y333847D01*
X696596Y333781D01*
X696661Y333704D01*
X696718Y333622D01*
X696773Y333572D01*
X696822Y333516D01*
X696902Y333456D01*
X696977Y333389D01*
X697042Y333353D01*
X697102Y333308D01*
X697194Y333269D01*
X697282Y333220D01*
X697354Y333200D01*
X697422Y333170D01*
X697521Y333153D01*
X697617Y333125D01*
X697717Y333117D01*
X697765Y333109D01*
X697801Y333111D01*
X697861Y333106D01*
X732408Y333106D01*
X732534Y333120D01*
X732660Y333127D01*
X732706Y333140D01*
X732754Y333146D01*
X732873Y333188D01*
X732995Y333223D01*
X733037Y333247D01*
X733082Y333263D01*
X733189Y333332D01*
X733299Y333393D01*
X733345Y333433D01*
X733375Y333452D01*
X733409Y333487D01*
X733485Y333552D01*
X740773Y340840D01*
X740852Y340939D01*
X740936Y341033D01*
X740960Y341075D01*
X740990Y341113D01*
X741044Y341227D01*
X741105Y341338D01*
X741118Y341384D01*
X741139Y341428D01*
X741165Y341551D01*
X741200Y341673D01*
X741205Y341734D01*
X741212Y341769D01*
X741211Y341817D01*
X741219Y341917D01*
X741219Y344507D01*
X742450Y347477D01*
X744723Y349750D01*
X747693Y350981D01*
X750907Y350981D01*
X753877Y349750D01*
X756150Y347477D01*
X757381Y344507D01*
X757381Y341293D01*
X756150Y338323D01*
X753877Y336050D01*
X750907Y334819D01*
X748317Y334819D01*
X748191Y334805D01*
X748065Y334798D01*
X748019Y334785D01*
X747971Y334779D01*
X747852Y334737D01*
X747730Y334702D01*
X747688Y334678D01*
X747643Y334662D01*
X747536Y334593D01*
X747426Y334532D01*
X747380Y334492D01*
X747350Y334473D01*
X747316Y334438D01*
X747240Y334373D01*
X737523Y324656D01*
X735843Y323960D01*
X546857Y323960D01*
X545177Y324656D01*
X484660Y385173D01*
X484561Y385252D01*
X484467Y385336D01*
X484425Y385360D01*
X484387Y385390D01*
X484273Y385444D01*
X484162Y385505D01*
X484116Y385518D01*
X484072Y385539D01*
X483949Y385565D01*
X483827Y385600D01*
X483766Y385605D01*
X483731Y385612D01*
X483683Y385611D01*
X483583Y385619D01*
X480993Y385619D01*
X479376Y386289D01*
X479249Y386342D01*
X479152Y386369D01*
X479059Y386406D01*
X478985Y386417D01*
X478913Y386437D01*
X478813Y386442D01*
X478714Y386457D01*
X478639Y386451D01*
X478565Y386454D01*
X478467Y386436D01*
X478366Y386428D01*
X478296Y386405D01*
X478222Y386392D01*
X478130Y386352D01*
X478035Y386321D01*
X477971Y386283D01*
X477903Y386253D01*
X477822Y386193D01*
X477736Y386141D01*
X477683Y386089D01*
X477623Y386045D01*
X477558Y385968D01*
X477486Y385898D01*
X477446Y385836D01*
X477398Y385779D01*
X477352Y385690D01*
X477298Y385605D01*
X477273Y385535D01*
X477239Y385469D01*
X477215Y385371D01*
X477181Y385277D01*
X477173Y385203D01*
X477155Y385131D01*
X477154Y385030D01*
X477142Y384930D01*
X477151Y384857D01*
X477150Y384782D01*
X477171Y384684D01*
X477183Y384584D01*
X477214Y384489D01*
X477224Y384442D01*
X477240Y384409D01*
X477258Y384351D01*
X477981Y382607D01*
X477981Y380017D01*
X477995Y379891D01*
X478002Y379765D01*
X478015Y379719D01*
X478021Y379671D01*
X478063Y379552D01*
X478098Y379430D01*
X478122Y379388D01*
X478138Y379343D01*
X478207Y379236D01*
X478268Y379126D01*
X478308Y379080D01*
X478327Y379050D01*
X478362Y379016D01*
X478427Y378940D01*
X567322Y290045D01*
X567421Y289966D01*
X567515Y289882D01*
X567557Y289858D01*
X567595Y289828D01*
X567709Y289774D01*
X567820Y289713D01*
X567866Y289700D01*
X567910Y289679D01*
X568033Y289653D01*
X568155Y289618D01*
X568216Y289613D01*
X568251Y289606D01*
X568299Y289607D01*
X568399Y289599D01*
X578517Y289599D01*
X580550Y288756D01*
X582106Y287200D01*
X582949Y285167D01*
X582949Y284496D01*
X582952Y284470D01*
X582950Y284444D01*
X582972Y284297D01*
X582989Y284150D01*
X582997Y284125D01*
X583001Y284099D01*
X583056Y283961D01*
X583106Y283822D01*
X583120Y283800D01*
X583130Y283775D01*
X583215Y283654D01*
X583295Y283529D01*
X583314Y283511D01*
X583329Y283489D01*
X583439Y283390D01*
X583546Y283287D01*
X583568Y283273D01*
X583588Y283256D01*
X583718Y283184D01*
X583845Y283108D01*
X583870Y283100D01*
X583893Y283087D01*
X584036Y283047D01*
X584177Y283002D01*
X584203Y283000D01*
X584228Y282992D01*
X584472Y282973D01*
X734475Y282973D01*
X734601Y282987D01*
X734727Y282994D01*
X734773Y283007D01*
X734821Y283013D01*
X734940Y283055D01*
X735062Y283090D01*
X735104Y283114D01*
X735149Y283130D01*
X735256Y283199D01*
X735366Y283260D01*
X735412Y283300D01*
X735442Y283319D01*
X735476Y283354D01*
X735552Y283419D01*
X761891Y309757D01*
X761938Y309817D01*
X761993Y309871D01*
X762046Y309953D01*
X762107Y310030D01*
X762140Y310100D01*
X762181Y310164D01*
X762214Y310257D01*
X762256Y310346D01*
X762272Y310420D01*
X762298Y310492D01*
X762309Y310590D01*
X762330Y310686D01*
X762328Y310763D01*
X762337Y310839D01*
X762325Y310937D01*
X762324Y311035D01*
X762305Y311109D01*
X762296Y311185D01*
X762250Y311327D01*
X762239Y311373D01*
X762230Y311390D01*
X762221Y311417D01*
X761256Y313746D01*
X761256Y319254D01*
X763364Y324342D01*
X767258Y328236D01*
X772346Y330344D01*
X777854Y330344D01*
X782942Y328236D01*
X786836Y324342D01*
X788944Y319254D01*
X788944Y313746D01*
X786836Y308658D01*
X782942Y304764D01*
X777854Y302656D01*
X772346Y302656D01*
X770017Y303621D01*
X769944Y303642D01*
X769874Y303672D01*
X769777Y303690D01*
X769682Y303717D01*
X769606Y303720D01*
X769531Y303734D01*
X769432Y303729D01*
X769334Y303734D01*
X769259Y303720D01*
X769183Y303716D01*
X769088Y303689D01*
X768991Y303671D01*
X768921Y303640D01*
X768848Y303619D01*
X768762Y303571D01*
X768672Y303532D01*
X768610Y303486D01*
X768544Y303449D01*
X768430Y303352D01*
X768392Y303324D01*
X768380Y303310D01*
X768357Y303291D01*
X739590Y274523D01*
X737910Y273827D01*
X581465Y273827D01*
X581339Y273813D01*
X581213Y273806D01*
X581166Y273793D01*
X581118Y273787D01*
X580999Y273745D01*
X580878Y273710D01*
X580836Y273686D01*
X580790Y273670D01*
X580684Y273601D01*
X580669Y273593D01*
X578517Y272701D01*
X564483Y272701D01*
G37*
%LPD*%
%LPC*%
G36*
X430193Y588819D02*
X430193Y588819D01*
X427223Y590050D01*
X424950Y592323D01*
X423719Y595293D01*
X423719Y597883D01*
X423705Y598009D01*
X423698Y598135D01*
X423685Y598181D01*
X423679Y598229D01*
X423637Y598348D01*
X423602Y598470D01*
X423578Y598512D01*
X423562Y598557D01*
X423493Y598664D01*
X423432Y598774D01*
X423392Y598820D01*
X423373Y598850D01*
X423338Y598884D01*
X423273Y598960D01*
X252552Y769681D01*
X252453Y769760D01*
X252359Y769844D01*
X252317Y769868D01*
X252279Y769898D01*
X252165Y769952D01*
X252054Y770013D01*
X252008Y770026D01*
X251964Y770047D01*
X251841Y770073D01*
X251719Y770108D01*
X251658Y770113D01*
X251623Y770120D01*
X251575Y770119D01*
X251475Y770127D01*
X189024Y770127D01*
X188948Y770119D01*
X188872Y770120D01*
X188775Y770099D01*
X188678Y770087D01*
X188606Y770062D01*
X188531Y770045D01*
X188442Y770003D01*
X188350Y769970D01*
X188285Y769928D01*
X188216Y769896D01*
X188140Y769834D01*
X188057Y769781D01*
X188004Y769726D01*
X187944Y769678D01*
X187883Y769601D01*
X187815Y769530D01*
X187775Y769465D01*
X187728Y769405D01*
X187660Y769272D01*
X187636Y769231D01*
X187630Y769213D01*
X187617Y769187D01*
X187191Y768158D01*
X185381Y766349D01*
X185319Y766271D01*
X185249Y766198D01*
X185211Y766134D01*
X185165Y766076D01*
X185122Y765985D01*
X185070Y765899D01*
X185048Y765828D01*
X185016Y765761D01*
X184995Y765663D01*
X184964Y765567D01*
X184958Y765493D01*
X184943Y765420D01*
X184944Y765320D01*
X184936Y765220D01*
X184947Y765146D01*
X184949Y765072D01*
X184973Y764975D01*
X184988Y764875D01*
X185015Y764806D01*
X185034Y764734D01*
X185080Y764645D01*
X185117Y764551D01*
X185159Y764490D01*
X185193Y764424D01*
X185258Y764348D01*
X185316Y764265D01*
X185371Y764215D01*
X185419Y764159D01*
X185500Y764099D01*
X185574Y764032D01*
X185639Y763996D01*
X185699Y763951D01*
X185791Y763912D01*
X185879Y763863D01*
X185951Y763843D01*
X186019Y763813D01*
X186118Y763796D01*
X186215Y763768D01*
X186315Y763760D01*
X186362Y763752D01*
X186398Y763754D01*
X186459Y763749D01*
X190194Y763749D01*
X195358Y761610D01*
X199310Y757658D01*
X201449Y752494D01*
X201449Y746906D01*
X199310Y741742D01*
X195358Y737790D01*
X190194Y735651D01*
X184606Y735651D01*
X179442Y737790D01*
X175490Y741742D01*
X173351Y746906D01*
X173351Y752494D01*
X175490Y757658D01*
X178383Y760551D01*
X178445Y760629D01*
X178515Y760702D01*
X178553Y760766D01*
X178600Y760824D01*
X178643Y760915D01*
X178694Y761001D01*
X178717Y761072D01*
X178749Y761139D01*
X178770Y761237D01*
X178800Y761333D01*
X178806Y761407D01*
X178822Y761480D01*
X178820Y761580D01*
X178828Y761680D01*
X178817Y761754D01*
X178816Y761828D01*
X178791Y761925D01*
X178777Y762025D01*
X178749Y762094D01*
X178731Y762166D01*
X178685Y762255D01*
X178648Y762349D01*
X178605Y762410D01*
X178571Y762476D01*
X178506Y762552D01*
X178449Y762635D01*
X178394Y762685D01*
X178345Y762741D01*
X178265Y762801D01*
X178190Y762868D01*
X178125Y762904D01*
X178065Y762949D01*
X177973Y762988D01*
X177885Y763037D01*
X177813Y763057D01*
X177745Y763087D01*
X177646Y763104D01*
X177550Y763132D01*
X177450Y763140D01*
X177402Y763148D01*
X177366Y763146D01*
X177306Y763151D01*
X175103Y763151D01*
X170858Y764910D01*
X167610Y768158D01*
X165851Y772403D01*
X165851Y776997D01*
X167610Y781242D01*
X170858Y784490D01*
X175103Y786249D01*
X179697Y786249D01*
X183942Y784490D01*
X187191Y781242D01*
X187617Y780213D01*
X187654Y780146D01*
X187682Y780075D01*
X187738Y779995D01*
X187786Y779908D01*
X187837Y779852D01*
X187881Y779789D01*
X187954Y779723D01*
X188020Y779650D01*
X188083Y779607D01*
X188140Y779556D01*
X188226Y779508D01*
X188307Y779452D01*
X188378Y779424D01*
X188445Y779387D01*
X188540Y779360D01*
X188631Y779324D01*
X188707Y779313D01*
X188780Y779292D01*
X188929Y779280D01*
X188976Y779273D01*
X188995Y779275D01*
X189024Y779273D01*
X254910Y779273D01*
X256590Y778577D01*
X429740Y605427D01*
X429839Y605348D01*
X429933Y605264D01*
X429975Y605240D01*
X430013Y605210D01*
X430127Y605156D01*
X430238Y605095D01*
X430284Y605082D01*
X430328Y605061D01*
X430451Y605035D01*
X430573Y605000D01*
X430634Y604995D01*
X430669Y604988D01*
X430717Y604989D01*
X430817Y604981D01*
X433407Y604981D01*
X436377Y603750D01*
X438650Y601477D01*
X439881Y598507D01*
X439881Y595293D01*
X438650Y592323D01*
X436377Y590050D01*
X433407Y588819D01*
X430193Y588819D01*
G37*
%LPD*%
%LPC*%
G36*
X34919Y13939D02*
X34919Y13939D01*
X28774Y15586D01*
X23265Y18767D01*
X18767Y23265D01*
X15586Y28774D01*
X13939Y34919D01*
X13939Y41281D01*
X15586Y47426D01*
X18767Y52935D01*
X23265Y57433D01*
X28774Y60614D01*
X34919Y62261D01*
X41281Y62261D01*
X47426Y60614D01*
X52935Y57433D01*
X57433Y52935D01*
X60614Y47426D01*
X62261Y41281D01*
X62261Y34919D01*
X60614Y28774D01*
X57433Y23265D01*
X52935Y18767D01*
X47426Y15586D01*
X41281Y13939D01*
X34919Y13939D01*
G37*
%LPD*%
%LPC*%
G36*
X795953Y438959D02*
X795953Y438959D01*
X792983Y440190D01*
X790710Y442463D01*
X789479Y445433D01*
X789479Y448647D01*
X790710Y451617D01*
X792983Y453890D01*
X795953Y455121D01*
X798543Y455121D01*
X798669Y455135D01*
X798795Y455142D01*
X798841Y455155D01*
X798889Y455161D01*
X799008Y455203D01*
X799130Y455238D01*
X799172Y455262D01*
X799217Y455278D01*
X799324Y455347D01*
X799434Y455408D01*
X799480Y455448D01*
X799510Y455467D01*
X799544Y455502D01*
X799620Y455567D01*
X801800Y457747D01*
X803480Y458443D01*
X818344Y458443D01*
X818420Y458451D01*
X818496Y458450D01*
X818592Y458471D01*
X818690Y458483D01*
X818762Y458508D01*
X818837Y458525D01*
X818926Y458567D01*
X819018Y458600D01*
X819082Y458642D01*
X819151Y458674D01*
X819228Y458736D01*
X819311Y458789D01*
X819364Y458844D01*
X819424Y458892D01*
X819485Y458969D01*
X819553Y459040D01*
X819592Y459105D01*
X819640Y459165D01*
X819708Y459299D01*
X819732Y459339D01*
X819738Y459357D01*
X819751Y459383D01*
X819974Y459920D01*
X821530Y461476D01*
X823563Y462319D01*
X831931Y462319D01*
X832057Y462333D01*
X832183Y462340D01*
X832229Y462353D01*
X832277Y462359D01*
X832396Y462401D01*
X832518Y462436D01*
X832560Y462460D01*
X832605Y462476D01*
X832712Y462545D01*
X832822Y462606D01*
X832868Y462646D01*
X832898Y462665D01*
X832932Y462700D01*
X833008Y462765D01*
X841519Y471276D01*
X843020Y472777D01*
X844700Y473473D01*
X887992Y473473D01*
X888068Y473481D01*
X888144Y473480D01*
X888241Y473501D01*
X888338Y473513D01*
X888410Y473538D01*
X888485Y473555D01*
X888574Y473597D01*
X888666Y473630D01*
X888730Y473672D01*
X888799Y473704D01*
X888876Y473766D01*
X888959Y473819D01*
X889012Y473874D01*
X889072Y473922D01*
X889133Y473999D01*
X889201Y474070D01*
X889240Y474135D01*
X889288Y474195D01*
X889356Y474329D01*
X889380Y474369D01*
X889386Y474387D01*
X889399Y474413D01*
X890364Y476742D01*
X894258Y480636D01*
X899346Y482744D01*
X904854Y482744D01*
X909942Y480636D01*
X913836Y476742D01*
X915944Y471654D01*
X915944Y466146D01*
X913836Y461058D01*
X909942Y457164D01*
X904854Y455056D01*
X899346Y455056D01*
X894258Y457164D01*
X890364Y461058D01*
X889399Y463387D01*
X889362Y463454D01*
X889334Y463525D01*
X889278Y463606D01*
X889230Y463692D01*
X889179Y463748D01*
X889135Y463811D01*
X889062Y463877D01*
X888996Y463950D01*
X888933Y463993D01*
X888876Y464044D01*
X888790Y464092D01*
X888709Y464148D01*
X888638Y464176D01*
X888571Y464213D01*
X888476Y464240D01*
X888385Y464276D01*
X888309Y464287D01*
X888236Y464308D01*
X888087Y464320D01*
X888040Y464327D01*
X888021Y464325D01*
X887992Y464327D01*
X848135Y464327D01*
X848009Y464313D01*
X847883Y464306D01*
X847837Y464293D01*
X847789Y464287D01*
X847670Y464245D01*
X847548Y464210D01*
X847506Y464186D01*
X847461Y464170D01*
X847354Y464101D01*
X847244Y464040D01*
X847198Y464000D01*
X847168Y463981D01*
X847134Y463946D01*
X847058Y463881D01*
X842466Y459289D01*
X842418Y459229D01*
X842363Y459175D01*
X842310Y459092D01*
X842249Y459016D01*
X842216Y458946D01*
X842175Y458882D01*
X842142Y458789D01*
X842100Y458701D01*
X842084Y458626D01*
X842058Y458553D01*
X842047Y458456D01*
X842027Y458360D01*
X842028Y458283D01*
X842020Y458207D01*
X842029Y458129D01*
X842029Y449853D01*
X841186Y447820D01*
X839630Y446264D01*
X837597Y445421D01*
X823563Y445421D01*
X821530Y446264D01*
X819974Y447820D01*
X819751Y448357D01*
X819714Y448424D01*
X819686Y448495D01*
X819630Y448575D01*
X819582Y448662D01*
X819530Y448718D01*
X819487Y448781D01*
X819414Y448847D01*
X819348Y448920D01*
X819285Y448963D01*
X819228Y449014D01*
X819142Y449062D01*
X819061Y449118D01*
X818990Y449146D01*
X818923Y449183D01*
X818828Y449210D01*
X818737Y449246D01*
X818661Y449257D01*
X818588Y449278D01*
X818439Y449290D01*
X818392Y449297D01*
X818373Y449295D01*
X818344Y449297D01*
X807164Y449297D01*
X807138Y449294D01*
X807112Y449296D01*
X806965Y449274D01*
X806818Y449257D01*
X806793Y449249D01*
X806767Y449245D01*
X806629Y449190D01*
X806490Y449140D01*
X806468Y449126D01*
X806443Y449116D01*
X806322Y449031D01*
X806197Y448951D01*
X806179Y448932D01*
X806157Y448917D01*
X806058Y448807D01*
X805955Y448700D01*
X805941Y448678D01*
X805924Y448658D01*
X805852Y448528D01*
X805776Y448401D01*
X805768Y448376D01*
X805755Y448353D01*
X805715Y448210D01*
X805670Y448069D01*
X805668Y448043D01*
X805660Y448018D01*
X805641Y447774D01*
X805641Y445433D01*
X804410Y442463D01*
X802137Y440190D01*
X799167Y438959D01*
X795953Y438959D01*
G37*
%LPD*%
%LPC*%
G36*
X546010Y649925D02*
X546010Y649925D01*
X545987Y649939D01*
X545968Y649956D01*
X545838Y650028D01*
X545711Y650104D01*
X545686Y650112D01*
X545663Y650125D01*
X545520Y650165D01*
X545379Y650210D01*
X545353Y650212D01*
X545328Y650220D01*
X545084Y650239D01*
X534415Y650239D01*
X534455Y650496D01*
X535036Y652283D01*
X535889Y653957D01*
X536994Y655478D01*
X538322Y656806D01*
X539843Y657911D01*
X541563Y658787D01*
X541597Y658810D01*
X541634Y658826D01*
X541742Y658906D01*
X541853Y658980D01*
X541881Y659010D01*
X541914Y659034D01*
X542001Y659136D01*
X542092Y659234D01*
X542113Y659269D01*
X542139Y659300D01*
X542200Y659419D01*
X542268Y659535D01*
X542279Y659574D01*
X542298Y659610D01*
X542330Y659740D01*
X542370Y659868D01*
X542372Y659909D01*
X542382Y659949D01*
X542384Y660083D01*
X542393Y660216D01*
X542387Y660256D01*
X542387Y660297D01*
X542359Y660428D01*
X542337Y660560D01*
X542322Y660598D01*
X542313Y660638D01*
X542256Y660758D01*
X542204Y660882D01*
X542181Y660916D01*
X542163Y660952D01*
X542080Y661057D01*
X542002Y661166D01*
X541971Y661193D01*
X541946Y661225D01*
X541841Y661307D01*
X541740Y661396D01*
X541704Y661415D01*
X541672Y661441D01*
X541454Y661552D01*
X539049Y662548D01*
X535548Y666049D01*
X533653Y670624D01*
X533653Y675576D01*
X535548Y680151D01*
X539049Y683652D01*
X543624Y685547D01*
X548576Y685547D01*
X553151Y683652D01*
X556652Y680151D01*
X558547Y675576D01*
X558547Y670624D01*
X556652Y666049D01*
X553151Y662548D01*
X550746Y661552D01*
X550710Y661532D01*
X550671Y661519D01*
X550558Y661448D01*
X550441Y661383D01*
X550411Y661355D01*
X550376Y661334D01*
X550282Y661239D01*
X550183Y661149D01*
X550160Y661115D01*
X550131Y661086D01*
X550061Y660972D01*
X549985Y660862D01*
X549970Y660824D01*
X549948Y660789D01*
X549906Y660662D01*
X549857Y660538D01*
X549851Y660497D01*
X549838Y660459D01*
X549825Y660325D01*
X549806Y660193D01*
X549809Y660152D01*
X549806Y660112D01*
X549824Y659979D01*
X549835Y659846D01*
X549847Y659807D01*
X549853Y659766D01*
X549901Y659642D01*
X549942Y659514D01*
X549963Y659479D01*
X549977Y659441D01*
X550052Y659330D01*
X550122Y659215D01*
X550150Y659186D01*
X550173Y659152D01*
X550271Y659062D01*
X550364Y658965D01*
X550399Y658943D01*
X550429Y658916D01*
X550637Y658787D01*
X552357Y657911D01*
X553878Y656806D01*
X555206Y655478D01*
X556311Y653957D01*
X557164Y652283D01*
X557745Y650496D01*
X557785Y650239D01*
X547116Y650239D01*
X547090Y650236D01*
X547064Y650238D01*
X546917Y650216D01*
X546770Y650199D01*
X546745Y650191D01*
X546719Y650187D01*
X546582Y650132D01*
X546442Y650082D01*
X546420Y650068D01*
X546395Y650058D01*
X546274Y649973D01*
X546149Y649893D01*
X546131Y649874D01*
X546109Y649859D01*
X546095Y649843D01*
X546010Y649925D01*
G37*
%LPD*%
%LPC*%
G36*
X73320Y483996D02*
X73320Y483996D01*
X67998Y486201D01*
X63926Y490273D01*
X61721Y495595D01*
X61721Y501355D01*
X63926Y506677D01*
X67998Y510749D01*
X73320Y512954D01*
X79080Y512954D01*
X84402Y510749D01*
X88474Y506677D01*
X90679Y501355D01*
X90679Y495595D01*
X88474Y490273D01*
X84402Y486201D01*
X79080Y483996D01*
X73320Y483996D01*
G37*
%LPD*%
%LPC*%
G36*
X225720Y483996D02*
X225720Y483996D01*
X220398Y486201D01*
X216326Y490273D01*
X214121Y495595D01*
X214121Y501355D01*
X216326Y506677D01*
X220398Y510749D01*
X225720Y512954D01*
X231480Y512954D01*
X236802Y510749D01*
X240874Y506677D01*
X243079Y501355D01*
X243079Y495595D01*
X240874Y490273D01*
X236802Y486201D01*
X231480Y483996D01*
X225720Y483996D01*
G37*
%LPD*%
%LPC*%
G36*
X73320Y350646D02*
X73320Y350646D01*
X67998Y352851D01*
X63926Y356923D01*
X61721Y362245D01*
X61721Y368005D01*
X63926Y373327D01*
X67998Y377399D01*
X73320Y379604D01*
X79080Y379604D01*
X84402Y377399D01*
X88474Y373327D01*
X90679Y368005D01*
X90679Y362245D01*
X88474Y356923D01*
X84402Y352851D01*
X79080Y350646D01*
X73320Y350646D01*
G37*
%LPD*%
%LPC*%
G36*
X822346Y482456D02*
X822346Y482456D01*
X817258Y484564D01*
X813364Y488458D01*
X811256Y493546D01*
X811256Y499054D01*
X813364Y504142D01*
X817258Y508036D01*
X822346Y510144D01*
X827854Y510144D01*
X832942Y508036D01*
X836836Y504142D01*
X838944Y499054D01*
X838944Y493546D01*
X836836Y488458D01*
X832942Y484564D01*
X827854Y482456D01*
X822346Y482456D01*
G37*
%LPD*%
%LPC*%
G36*
X505646Y50656D02*
X505646Y50656D01*
X500558Y52764D01*
X496664Y56658D01*
X494556Y61746D01*
X494556Y67254D01*
X496664Y72342D01*
X500558Y76236D01*
X505646Y78344D01*
X511154Y78344D01*
X516242Y76236D01*
X520136Y72342D01*
X522244Y67254D01*
X522244Y61746D01*
X520136Y56658D01*
X516242Y52764D01*
X511154Y50656D01*
X505646Y50656D01*
G37*
%LPD*%
%LPC*%
G36*
X555646Y50656D02*
X555646Y50656D01*
X550558Y52764D01*
X546664Y56658D01*
X544556Y61746D01*
X544556Y67254D01*
X546664Y72342D01*
X550558Y76236D01*
X555646Y78344D01*
X561154Y78344D01*
X566242Y76236D01*
X570136Y72342D01*
X572244Y67254D01*
X572244Y61746D01*
X570136Y56658D01*
X566242Y52764D01*
X561154Y50656D01*
X555646Y50656D01*
G37*
%LPD*%
%LPC*%
G36*
X822346Y177656D02*
X822346Y177656D01*
X817258Y179764D01*
X813364Y183658D01*
X811256Y188746D01*
X811256Y194254D01*
X813364Y199342D01*
X817258Y203236D01*
X822346Y205344D01*
X827854Y205344D01*
X832942Y203236D01*
X836836Y199342D01*
X838944Y194254D01*
X838944Y188746D01*
X836836Y183658D01*
X832942Y179764D01*
X827854Y177656D01*
X822346Y177656D01*
G37*
%LPD*%
%LPC*%
G36*
X772346Y177656D02*
X772346Y177656D01*
X767258Y179764D01*
X763364Y183658D01*
X761256Y188746D01*
X761256Y194254D01*
X763364Y199342D01*
X767258Y203236D01*
X772346Y205344D01*
X777854Y205344D01*
X782942Y203236D01*
X786836Y199342D01*
X788944Y194254D01*
X788944Y188746D01*
X786836Y183658D01*
X782942Y179764D01*
X777854Y177656D01*
X772346Y177656D01*
G37*
%LPD*%
%LPC*%
G36*
X899346Y330056D02*
X899346Y330056D01*
X894258Y332164D01*
X890364Y336058D01*
X888256Y341146D01*
X888256Y346654D01*
X890364Y351742D01*
X894258Y355636D01*
X899346Y357744D01*
X904854Y357744D01*
X909942Y355636D01*
X913836Y351742D01*
X915944Y346654D01*
X915944Y341146D01*
X913836Y336058D01*
X909942Y332164D01*
X904854Y330056D01*
X899346Y330056D01*
G37*
%LPD*%
%LPC*%
G36*
X949346Y330056D02*
X949346Y330056D01*
X944258Y332164D01*
X940364Y336058D01*
X938256Y341146D01*
X938256Y346654D01*
X940364Y351742D01*
X944258Y355636D01*
X949346Y357744D01*
X954854Y357744D01*
X959942Y355636D01*
X963836Y351742D01*
X965944Y346654D01*
X965944Y341146D01*
X963836Y336058D01*
X959942Y332164D01*
X954854Y330056D01*
X949346Y330056D01*
G37*
%LPD*%
%LPC*%
G36*
X772346Y482456D02*
X772346Y482456D01*
X767258Y484564D01*
X763364Y488458D01*
X761256Y493546D01*
X761256Y499054D01*
X763364Y504142D01*
X767258Y508036D01*
X772346Y510144D01*
X777854Y510144D01*
X782942Y508036D01*
X786836Y504142D01*
X788944Y499054D01*
X788944Y493546D01*
X786836Y488458D01*
X782942Y484564D01*
X777854Y482456D01*
X772346Y482456D01*
G37*
%LPD*%
%LPC*%
G36*
X181775Y496061D02*
X181775Y496061D01*
X177387Y497879D01*
X174029Y501237D01*
X172211Y505625D01*
X172211Y510375D01*
X174029Y514763D01*
X177387Y518121D01*
X181775Y519939D01*
X186525Y519939D01*
X190913Y518121D01*
X194271Y514763D01*
X196089Y510375D01*
X196089Y505625D01*
X194271Y501237D01*
X190913Y497879D01*
X186525Y496061D01*
X181775Y496061D01*
G37*
%LPD*%
%LPC*%
G36*
X118275Y496061D02*
X118275Y496061D01*
X113887Y497879D01*
X110529Y501237D01*
X108711Y505625D01*
X108711Y510375D01*
X110529Y514763D01*
X113887Y518121D01*
X118275Y519939D01*
X123025Y519939D01*
X127413Y518121D01*
X130771Y514763D01*
X132589Y510375D01*
X132589Y505625D01*
X130771Y501237D01*
X127413Y497879D01*
X123025Y496061D01*
X118275Y496061D01*
G37*
%LPD*%
%LPC*%
G36*
X181775Y546861D02*
X181775Y546861D01*
X177387Y548679D01*
X174029Y552037D01*
X172211Y556425D01*
X172211Y561175D01*
X174029Y565563D01*
X177387Y568921D01*
X181775Y570739D01*
X186525Y570739D01*
X190913Y568921D01*
X194271Y565563D01*
X196089Y561175D01*
X196089Y556425D01*
X194271Y552037D01*
X190913Y548679D01*
X186525Y546861D01*
X181775Y546861D01*
G37*
%LPD*%
%LPC*%
G36*
X118275Y546861D02*
X118275Y546861D01*
X113887Y548679D01*
X110529Y552037D01*
X108711Y556425D01*
X108711Y561175D01*
X110529Y565563D01*
X113887Y568921D01*
X118275Y570739D01*
X123025Y570739D01*
X127413Y568921D01*
X130771Y565563D01*
X132589Y561175D01*
X132589Y556425D01*
X130771Y552037D01*
X127413Y548679D01*
X123025Y546861D01*
X118275Y546861D01*
G37*
%LPD*%
%LPC*%
G36*
X547033Y731059D02*
X547033Y731059D01*
X544063Y732290D01*
X541790Y734563D01*
X540559Y737533D01*
X540559Y740747D01*
X541790Y743717D01*
X544063Y745990D01*
X547033Y747221D01*
X550247Y747221D01*
X553217Y745990D01*
X555490Y743717D01*
X556721Y740747D01*
X556721Y737533D01*
X555490Y734563D01*
X553217Y732290D01*
X550247Y731059D01*
X547033Y731059D01*
G37*
%LPD*%
%LPC*%
G36*
X912793Y83359D02*
X912793Y83359D01*
X909823Y84590D01*
X907550Y86863D01*
X906319Y89833D01*
X906319Y93047D01*
X907550Y96017D01*
X909823Y98290D01*
X912793Y99521D01*
X916007Y99521D01*
X918977Y98290D01*
X921250Y96017D01*
X922481Y93047D01*
X922481Y89833D01*
X921250Y86863D01*
X918977Y84590D01*
X916007Y83359D01*
X912793Y83359D01*
G37*
%LPD*%
%LPC*%
G36*
X508933Y250999D02*
X508933Y250999D01*
X505963Y252230D01*
X503690Y254503D01*
X502459Y257473D01*
X502459Y260687D01*
X503690Y263657D01*
X505963Y265930D01*
X508933Y267161D01*
X512147Y267161D01*
X515117Y265930D01*
X517390Y263657D01*
X518621Y260687D01*
X518621Y257473D01*
X517390Y254503D01*
X515117Y252230D01*
X512147Y250999D01*
X508933Y250999D01*
G37*
%LPD*%
%LPC*%
G36*
X66973Y662479D02*
X66973Y662479D01*
X64003Y663710D01*
X61730Y665983D01*
X60499Y668953D01*
X60499Y672167D01*
X61730Y675137D01*
X64003Y677410D01*
X66973Y678641D01*
X70187Y678641D01*
X73157Y677410D01*
X75430Y675137D01*
X76661Y672167D01*
X76661Y668953D01*
X75430Y665983D01*
X73157Y663710D01*
X70187Y662479D01*
X66973Y662479D01*
G37*
%LPD*%
%LPC*%
G36*
X180022Y327978D02*
X180022Y327978D01*
X189021Y327978D01*
X188949Y327523D01*
X188393Y325812D01*
X187576Y324209D01*
X186519Y322753D01*
X185247Y321481D01*
X183791Y320424D01*
X182188Y319607D01*
X180477Y319051D01*
X180022Y318979D01*
X180022Y327978D01*
G37*
%LPD*%
%LPC*%
G36*
X53022Y404178D02*
X53022Y404178D01*
X62021Y404178D01*
X61949Y403723D01*
X61393Y402012D01*
X60576Y400409D01*
X59519Y398953D01*
X58247Y397681D01*
X56791Y396624D01*
X55188Y395807D01*
X53477Y395251D01*
X53022Y395179D01*
X53022Y404178D01*
G37*
%LPD*%
%LPC*%
G36*
X48123Y395251D02*
X48123Y395251D01*
X46412Y395807D01*
X44809Y396624D01*
X43353Y397681D01*
X42081Y398953D01*
X41024Y400409D01*
X40207Y402012D01*
X39651Y403723D01*
X39579Y404178D01*
X48578Y404178D01*
X48578Y395179D01*
X48123Y395251D01*
G37*
%LPD*%
%LPC*%
G36*
X699449Y777399D02*
X699449Y777399D01*
X699449Y785641D01*
X700161Y785641D01*
X701132Y785448D01*
X702046Y785069D01*
X702869Y784519D01*
X703569Y783819D01*
X704119Y782996D01*
X704498Y782082D01*
X704691Y781111D01*
X704691Y777399D01*
X699449Y777399D01*
G37*
%LPD*%
%LPC*%
G36*
X218599Y686749D02*
X218599Y686749D01*
X218599Y691991D01*
X222311Y691991D01*
X223282Y691798D01*
X224196Y691419D01*
X225019Y690869D01*
X225719Y690169D01*
X226269Y689346D01*
X226648Y688432D01*
X226841Y687461D01*
X226841Y686749D01*
X218599Y686749D01*
G37*
%LPD*%
%LPC*%
G36*
X637699Y537849D02*
X637699Y537849D01*
X637699Y543091D01*
X641411Y543091D01*
X642382Y542898D01*
X643296Y542519D01*
X644119Y541969D01*
X644819Y541269D01*
X645369Y540446D01*
X645748Y539532D01*
X645941Y538561D01*
X645941Y537849D01*
X637699Y537849D01*
G37*
%LPD*%
%LPC*%
G36*
X711359Y618169D02*
X711359Y618169D01*
X711359Y623411D01*
X715071Y623411D01*
X716042Y623218D01*
X716956Y622839D01*
X717779Y622289D01*
X718479Y621589D01*
X719029Y620766D01*
X719408Y619852D01*
X719601Y618881D01*
X719601Y618169D01*
X711359Y618169D01*
G37*
%LPD*%
%LPC*%
G36*
X833279Y427669D02*
X833279Y427669D01*
X833279Y432911D01*
X836991Y432911D01*
X837962Y432718D01*
X838876Y432339D01*
X839699Y431789D01*
X840399Y431089D01*
X840949Y430266D01*
X841328Y429352D01*
X841521Y428381D01*
X841521Y427669D01*
X833279Y427669D01*
G37*
%LPD*%
%LPC*%
G36*
X574199Y254949D02*
X574199Y254949D01*
X574199Y260191D01*
X577911Y260191D01*
X578882Y259998D01*
X579796Y259619D01*
X580619Y259069D01*
X581319Y258369D01*
X581869Y257546D01*
X582248Y256632D01*
X582441Y255661D01*
X582441Y254949D01*
X574199Y254949D01*
G37*
%LPD*%
%LPC*%
G36*
X398939Y163509D02*
X398939Y163509D01*
X398939Y168751D01*
X402651Y168751D01*
X403622Y168558D01*
X404536Y168179D01*
X405359Y167629D01*
X406059Y166929D01*
X406609Y166106D01*
X406988Y165192D01*
X407181Y164221D01*
X407181Y163509D01*
X398939Y163509D01*
G37*
%LPD*%
%LPC*%
G36*
X204959Y686749D02*
X204959Y686749D01*
X204959Y687461D01*
X205009Y687712D01*
X205152Y688432D01*
X205531Y689346D01*
X206081Y690169D01*
X206781Y690869D01*
X207604Y691419D01*
X208518Y691798D01*
X209489Y691991D01*
X213201Y691991D01*
X213201Y686749D01*
X204959Y686749D01*
G37*
%LPD*%
%LPC*%
G36*
X699449Y763759D02*
X699449Y763759D01*
X699449Y772001D01*
X704691Y772001D01*
X704691Y768289D01*
X704536Y767511D01*
X704498Y767318D01*
X704119Y766404D01*
X703569Y765581D01*
X702869Y764881D01*
X702046Y764331D01*
X701132Y763952D01*
X700161Y763759D01*
X699449Y763759D01*
G37*
%LPD*%
%LPC*%
G36*
X624059Y537849D02*
X624059Y537849D01*
X624059Y538561D01*
X624252Y539532D01*
X624631Y540446D01*
X625181Y541269D01*
X625881Y541969D01*
X626704Y542519D01*
X627618Y542898D01*
X628589Y543091D01*
X632301Y543091D01*
X632301Y537849D01*
X624059Y537849D01*
G37*
%LPD*%
%LPC*%
G36*
X560559Y254949D02*
X560559Y254949D01*
X560559Y255661D01*
X560752Y256632D01*
X561131Y257546D01*
X561681Y258369D01*
X562381Y259069D01*
X563204Y259619D01*
X564118Y259998D01*
X565089Y260191D01*
X568801Y260191D01*
X568801Y254949D01*
X560559Y254949D01*
G37*
%LPD*%
%LPC*%
G36*
X385299Y163509D02*
X385299Y163509D01*
X385299Y164221D01*
X385492Y165192D01*
X385871Y166106D01*
X386421Y166929D01*
X387121Y167629D01*
X387944Y168179D01*
X388858Y168558D01*
X389829Y168751D01*
X393541Y168751D01*
X393541Y163509D01*
X385299Y163509D01*
G37*
%LPD*%
%LPC*%
G36*
X819639Y427669D02*
X819639Y427669D01*
X819639Y428381D01*
X819714Y428759D01*
X819715Y428759D01*
X819715Y428760D01*
X819832Y429352D01*
X820211Y430266D01*
X820761Y431089D01*
X821461Y431789D01*
X822284Y432339D01*
X823198Y432718D01*
X824169Y432911D01*
X827881Y432911D01*
X827881Y427669D01*
X819639Y427669D01*
G37*
%LPD*%
%LPC*%
G36*
X697719Y618169D02*
X697719Y618169D01*
X697719Y618881D01*
X697776Y619165D01*
X697776Y619166D01*
X697912Y619852D01*
X698291Y620766D01*
X698841Y621589D01*
X699541Y622289D01*
X700364Y622839D01*
X701278Y623218D01*
X702249Y623411D01*
X705961Y623411D01*
X705961Y618169D01*
X697719Y618169D01*
G37*
%LPD*%
%LPC*%
G36*
X637699Y527209D02*
X637699Y527209D01*
X637699Y532451D01*
X645941Y532451D01*
X645941Y531739D01*
X645875Y531408D01*
X645875Y531407D01*
X645748Y530768D01*
X645369Y529854D01*
X644819Y529031D01*
X644119Y528331D01*
X643296Y527781D01*
X642382Y527402D01*
X641411Y527209D01*
X637699Y527209D01*
G37*
%LPD*%
%LPC*%
G36*
X574199Y244309D02*
X574199Y244309D01*
X574199Y249551D01*
X582441Y249551D01*
X582441Y248839D01*
X582290Y248083D01*
X582248Y247868D01*
X581869Y246954D01*
X581319Y246131D01*
X580619Y245431D01*
X579796Y244881D01*
X578882Y244502D01*
X577911Y244309D01*
X574199Y244309D01*
G37*
%LPD*%
%LPC*%
G36*
X688809Y777399D02*
X688809Y777399D01*
X688809Y781111D01*
X689002Y782082D01*
X689381Y782996D01*
X689931Y783819D01*
X690631Y784519D01*
X691454Y785069D01*
X692368Y785448D01*
X693339Y785641D01*
X694051Y785641D01*
X694051Y777399D01*
X688809Y777399D01*
G37*
%LPD*%
%LPC*%
G36*
X833279Y417029D02*
X833279Y417029D01*
X833279Y422271D01*
X841521Y422271D01*
X841521Y421559D01*
X841328Y420588D01*
X840949Y419674D01*
X840399Y418851D01*
X839699Y418151D01*
X838876Y417601D01*
X837962Y417222D01*
X836991Y417029D01*
X833279Y417029D01*
G37*
%LPD*%
%LPC*%
G36*
X711359Y607529D02*
X711359Y607529D01*
X711359Y612771D01*
X719601Y612771D01*
X719601Y612059D01*
X719408Y611088D01*
X719029Y610174D01*
X718479Y609351D01*
X717779Y608651D01*
X716956Y608101D01*
X716042Y607722D01*
X715071Y607529D01*
X711359Y607529D01*
G37*
%LPD*%
%LPC*%
G36*
X218599Y676109D02*
X218599Y676109D01*
X218599Y681351D01*
X226841Y681351D01*
X226841Y680639D01*
X226648Y679668D01*
X226269Y678754D01*
X225719Y677931D01*
X225019Y677231D01*
X224196Y676681D01*
X223282Y676302D01*
X222311Y676109D01*
X218599Y676109D01*
G37*
%LPD*%
%LPC*%
G36*
X398939Y152869D02*
X398939Y152869D01*
X398939Y158111D01*
X407181Y158111D01*
X407181Y157399D01*
X407039Y156688D01*
X406988Y156428D01*
X406609Y155514D01*
X406059Y154691D01*
X405359Y153991D01*
X404536Y153441D01*
X403622Y153062D01*
X402651Y152869D01*
X398939Y152869D01*
G37*
%LPD*%
%LPC*%
G36*
X824169Y417029D02*
X824169Y417029D01*
X823198Y417222D01*
X822284Y417601D01*
X821461Y418151D01*
X820761Y418851D01*
X820211Y419674D01*
X819832Y420588D01*
X819639Y421559D01*
X819639Y422271D01*
X827881Y422271D01*
X827881Y417029D01*
X824169Y417029D01*
G37*
%LPD*%
%LPC*%
G36*
X702249Y607529D02*
X702249Y607529D01*
X701278Y607722D01*
X700364Y608101D01*
X699541Y608651D01*
X698841Y609351D01*
X698291Y610174D01*
X697912Y611088D01*
X697719Y612059D01*
X697719Y612771D01*
X705961Y612771D01*
X705961Y607529D01*
X702249Y607529D01*
G37*
%LPD*%
%LPC*%
G36*
X565089Y244309D02*
X565089Y244309D01*
X564118Y244502D01*
X563204Y244881D01*
X562381Y245431D01*
X561681Y246131D01*
X561131Y246954D01*
X560752Y247868D01*
X560559Y248839D01*
X560559Y249551D01*
X568801Y249551D01*
X568801Y244309D01*
X565089Y244309D01*
G37*
%LPD*%
%LPC*%
G36*
X693339Y763759D02*
X693339Y763759D01*
X692368Y763952D01*
X691454Y764331D01*
X690631Y764881D01*
X689931Y765581D01*
X689381Y766404D01*
X689002Y767318D01*
X688809Y768289D01*
X688809Y772001D01*
X694051Y772001D01*
X694051Y763759D01*
X693339Y763759D01*
G37*
%LPD*%
%LPC*%
G36*
X209489Y676109D02*
X209489Y676109D01*
X208518Y676302D01*
X207604Y676681D01*
X206781Y677231D01*
X206081Y677931D01*
X205531Y678754D01*
X205152Y679668D01*
X204959Y680639D01*
X204959Y681351D01*
X213201Y681351D01*
X213201Y676109D01*
X209489Y676109D01*
G37*
%LPD*%
%LPC*%
G36*
X389829Y152869D02*
X389829Y152869D01*
X388858Y153062D01*
X387944Y153441D01*
X387121Y153991D01*
X386421Y154691D01*
X385871Y155514D01*
X385492Y156428D01*
X385299Y157399D01*
X385299Y158111D01*
X393541Y158111D01*
X393541Y152869D01*
X389829Y152869D01*
G37*
%LPD*%
%LPC*%
G36*
X628589Y527209D02*
X628589Y527209D01*
X627618Y527402D01*
X626704Y527781D01*
X625881Y528331D01*
X625181Y529031D01*
X624631Y529854D01*
X624252Y530768D01*
X624059Y531739D01*
X624059Y532451D01*
X632301Y532451D01*
X632301Y527209D01*
X628589Y527209D01*
G37*
%LPD*%
D10*
X546100Y393700D03*
X546100Y419100D03*
X546100Y444500D03*
X546100Y469900D03*
X546100Y495300D03*
X546100Y520700D03*
X546100Y546100D03*
X546100Y571500D03*
X546100Y596900D03*
X546100Y622300D03*
X546100Y647700D03*
X546100Y673100D03*
D11*
X393700Y546100D03*
D12*
X393700Y520700D03*
X393700Y495300D03*
X393700Y469900D03*
X393700Y444500D03*
X393700Y419100D03*
X393700Y393700D03*
D13*
X577416Y284066D02*
X577416Y278234D01*
X565584Y278234D01*
X565584Y284066D01*
X577416Y284066D01*
X577416Y282954D02*
X565584Y282954D01*
X565584Y255166D02*
X565584Y249334D01*
X565584Y255166D02*
X577416Y255166D01*
X577416Y249334D01*
X565584Y249334D01*
X565584Y254054D02*
X577416Y254054D01*
X402156Y192626D02*
X402156Y186794D01*
X390324Y186794D01*
X390324Y192626D01*
X402156Y192626D01*
X402156Y191514D02*
X390324Y191514D01*
X390324Y163726D02*
X390324Y157894D01*
X390324Y163726D02*
X402156Y163726D01*
X402156Y157894D01*
X390324Y157894D01*
X390324Y162614D02*
X402156Y162614D01*
X714576Y641454D02*
X714576Y647286D01*
X714576Y641454D02*
X702744Y641454D01*
X702744Y647286D01*
X714576Y647286D01*
X714576Y646174D02*
X702744Y646174D01*
X702744Y618386D02*
X702744Y612554D01*
X702744Y618386D02*
X714576Y618386D01*
X714576Y612554D01*
X702744Y612554D01*
X702744Y617274D02*
X714576Y617274D01*
X836496Y456786D02*
X836496Y450954D01*
X824664Y450954D01*
X824664Y456786D01*
X836496Y456786D01*
X836496Y455674D02*
X824664Y455674D01*
X824664Y427886D02*
X824664Y422054D01*
X824664Y427886D02*
X836496Y427886D01*
X836496Y422054D01*
X824664Y422054D01*
X824664Y426774D02*
X836496Y426774D01*
X629084Y503334D02*
X629084Y509166D01*
X640916Y509166D01*
X640916Y503334D01*
X629084Y503334D01*
X629084Y508054D02*
X640916Y508054D01*
X640916Y532234D02*
X640916Y538066D01*
X640916Y532234D02*
X629084Y532234D01*
X629084Y538066D01*
X640916Y538066D01*
X640916Y536954D02*
X629084Y536954D01*
X722734Y768784D02*
X728566Y768784D01*
X722734Y768784D02*
X722734Y780616D01*
X728566Y780616D01*
X728566Y768784D01*
X728566Y773504D02*
X722734Y773504D01*
X722734Y778224D02*
X728566Y778224D01*
X699666Y780616D02*
X693834Y780616D01*
X699666Y780616D02*
X699666Y768784D01*
X693834Y768784D01*
X693834Y780616D01*
X693834Y773504D02*
X699666Y773504D01*
X699666Y778224D02*
X693834Y778224D01*
X221816Y715866D02*
X221816Y710034D01*
X209984Y710034D01*
X209984Y715866D01*
X221816Y715866D01*
X221816Y714754D02*
X209984Y714754D01*
X209984Y686966D02*
X209984Y681134D01*
X209984Y686966D02*
X221816Y686966D01*
X221816Y681134D01*
X209984Y681134D01*
X209984Y685854D02*
X221816Y685854D01*
D14*
X76200Y498475D03*
X228600Y498475D03*
X228600Y365125D03*
X76200Y365125D03*
D15*
X177800Y330200D03*
X152400Y330200D03*
X127000Y330200D03*
X50800Y431800D03*
X50800Y406400D03*
X50800Y457200D03*
X184150Y508000D03*
X120650Y508000D03*
X120650Y558800D03*
X184150Y558800D03*
D16*
X775100Y191500D03*
X825100Y191500D03*
X825100Y316500D03*
X775100Y316500D03*
X508400Y64500D03*
X558400Y64500D03*
X558400Y189500D03*
X508400Y189500D03*
X775100Y496300D03*
X825100Y496300D03*
X825100Y621300D03*
X775100Y621300D03*
X902100Y343900D03*
X952100Y343900D03*
X952100Y468900D03*
X902100Y468900D03*
X635400Y343900D03*
X685400Y343900D03*
X685400Y468900D03*
X635400Y468900D03*
D17*
X885900Y749700D03*
X815900Y749700D03*
D18*
X875900Y774700D03*
X825900Y774700D03*
D17*
X187400Y749700D03*
X117400Y749700D03*
D18*
X177400Y774700D03*
X127400Y774700D03*
D19*
X546100Y596900D02*
X609600Y596900D01*
X685800Y520700D01*
X685800Y469300D01*
X685400Y468900D01*
X546100Y596900D02*
X609600Y660400D01*
X787400Y660400D01*
X825100Y622700D01*
X825100Y621300D01*
X914400Y596900D02*
X609600Y596900D01*
X914400Y596900D02*
X952500Y558800D01*
X952500Y469300D01*
X952100Y468900D01*
X825100Y381400D02*
X685800Y520700D01*
X825100Y381400D02*
X825100Y316500D01*
X889000Y317500D02*
X825100Y381400D01*
X889000Y317500D02*
X889000Y266700D01*
X850900Y228600D01*
X597500Y228600D02*
X558400Y189500D01*
X597500Y228600D02*
X850900Y228600D01*
X787400Y660400D02*
X914400Y660400D01*
X939800Y685800D01*
X939800Y749300D02*
X914400Y774700D01*
X875900Y774700D01*
X939800Y749300D02*
X939800Y685800D01*
X546100Y596900D02*
X495300Y596900D01*
D20*
X495300Y596900D03*
X431800Y596900D03*
D19*
X254000Y774700D01*
X177400Y774700D01*
X571500Y281150D02*
X573450Y278400D01*
X737000Y278400D01*
X775100Y316500D01*
X571500Y281150D02*
X569956Y280944D01*
X469900Y381000D01*
D20*
X469900Y381000D03*
X330200Y342900D03*
X342900Y406400D03*
D19*
X355600Y419100D01*
X393700Y419100D01*
X396450Y189500D02*
X508400Y189500D01*
X396450Y189500D02*
X396240Y189710D01*
X330200Y255750D01*
X330200Y342900D01*
X752030Y644370D02*
X775100Y621300D01*
D20*
X665480Y645160D03*
D19*
X708660Y644370D02*
X752030Y644370D01*
X707870Y645160D02*
X665480Y645160D01*
X707870Y645160D02*
X708660Y644370D01*
D20*
X749300Y342900D03*
D19*
X734933Y328533D01*
X547767Y328533D01*
X482600Y393700D01*
D20*
X482600Y393700D03*
X444500Y431800D03*
D19*
X406400Y469900D01*
X393700Y469900D01*
X804390Y453870D02*
X830580Y453870D01*
X804390Y453870D02*
X797560Y447040D01*
D20*
X797560Y447040D03*
D19*
X845610Y468900D02*
X902100Y468900D01*
X845610Y468900D02*
X830580Y453870D01*
X635400Y468900D02*
X635000Y469300D01*
X635000Y506250D01*
X584200Y368300D02*
X571500Y355600D01*
X546100Y355600D01*
X508000Y393700D01*
X508000Y406400D01*
D20*
X508000Y406400D03*
X508000Y444500D03*
D19*
X457200Y495300D01*
X393700Y495300D01*
X584200Y455450D02*
X635000Y506250D01*
X584200Y455450D02*
X584200Y368300D01*
X725650Y774700D02*
X825900Y774700D01*
X725650Y774700D02*
X657450Y711200D01*
X520700Y711200D01*
X457200Y647700D01*
X457200Y546100D01*
X431800Y520700D01*
X393700Y520700D01*
X382750Y546100D02*
X215900Y712950D01*
X382750Y546100D02*
X393700Y546100D01*
X215900Y712950D02*
X189150Y712950D01*
X127400Y774700D01*
X469900Y419100D02*
X546100Y419100D01*
X469900Y419100D02*
X406400Y355600D01*
X165862Y343662D02*
X152400Y330200D01*
X165862Y343662D02*
X281178Y343662D01*
X293116Y355600D01*
X406400Y355600D01*
X292100Y431800D02*
X50800Y431800D01*
X292100Y431800D02*
X355600Y368300D01*
D20*
X355600Y368300D03*
X68580Y670560D03*
X510540Y259080D03*
X914400Y91440D03*
X548640Y739140D03*
M02*
