G04 EAGLE Gerber RS-274X export*
G75*
%MOMM*%
%FSLAX34Y34*%
%LPD*%
%INBottom Copper*%
%IPPOS*%
%AMOC8*
5,1,8,0,0,1.08239X$1,22.5*%
G01*
%ADD10C,1.879600*%
%ADD11R,1.650000X1.650000*%
%ADD12C,1.650000*%
%ADD13C,2.286000*%
%ADD14C,1.778000*%
%ADD15C,2.159000*%
%ADD16C,2.200000*%
%ADD17C,1.700000*%
%ADD18C,1.006400*%
%ADD19C,0.304800*%

G36*
X988342Y10164D02*
X988342Y10164D01*
X988368Y10162D01*
X988515Y10184D01*
X988662Y10201D01*
X988687Y10209D01*
X988713Y10213D01*
X988851Y10268D01*
X988990Y10318D01*
X989012Y10332D01*
X989037Y10342D01*
X989158Y10427D01*
X989283Y10507D01*
X989301Y10526D01*
X989323Y10541D01*
X989422Y10651D01*
X989525Y10758D01*
X989539Y10780D01*
X989556Y10800D01*
X989628Y10930D01*
X989704Y11057D01*
X989712Y11082D01*
X989725Y11105D01*
X989765Y11248D01*
X989810Y11389D01*
X989812Y11415D01*
X989820Y11440D01*
X989839Y11684D01*
X989839Y22371D01*
X989837Y22387D01*
X989838Y22399D01*
X989828Y22466D01*
X989825Y22496D01*
X989819Y22621D01*
X989805Y22668D01*
X989799Y22717D01*
X989757Y22835D01*
X989722Y22956D01*
X989698Y22999D01*
X989682Y23045D01*
X989614Y23151D01*
X989553Y23260D01*
X989519Y23297D01*
X989493Y23338D01*
X989402Y23425D01*
X989318Y23518D01*
X989278Y23546D01*
X989242Y23580D01*
X989134Y23645D01*
X989031Y23716D01*
X988985Y23734D01*
X988943Y23759D01*
X988823Y23797D01*
X988706Y23843D01*
X988658Y23850D01*
X988611Y23865D01*
X988486Y23875D01*
X988362Y23893D01*
X988313Y23889D01*
X988264Y23893D01*
X988140Y23875D01*
X988014Y23864D01*
X987968Y23849D01*
X987919Y23841D01*
X987802Y23795D01*
X987683Y23756D01*
X987641Y23731D01*
X987595Y23713D01*
X987492Y23641D01*
X987385Y23576D01*
X987349Y23542D01*
X987309Y23514D01*
X987225Y23421D01*
X987135Y23333D01*
X987121Y23313D01*
X982575Y18767D01*
X977066Y15586D01*
X970921Y13939D01*
X964559Y13939D01*
X958414Y15586D01*
X952905Y18767D01*
X948407Y23265D01*
X945226Y28774D01*
X943579Y34919D01*
X943579Y41281D01*
X945226Y47426D01*
X948407Y52935D01*
X952905Y57433D01*
X958414Y60614D01*
X964559Y62261D01*
X970921Y62261D01*
X977066Y60614D01*
X982575Y57433D01*
X987126Y52882D01*
X987139Y52862D01*
X987174Y52828D01*
X987204Y52789D01*
X987299Y52707D01*
X987390Y52620D01*
X987432Y52595D01*
X987469Y52563D01*
X987581Y52506D01*
X987689Y52441D01*
X987736Y52426D01*
X987779Y52404D01*
X987901Y52373D01*
X988021Y52335D01*
X988070Y52331D01*
X988117Y52319D01*
X988243Y52317D01*
X988368Y52307D01*
X988417Y52314D01*
X988466Y52313D01*
X988589Y52340D01*
X988713Y52359D01*
X988758Y52377D01*
X988806Y52387D01*
X988920Y52441D01*
X989037Y52487D01*
X989077Y52515D01*
X989121Y52536D01*
X989220Y52615D01*
X989323Y52686D01*
X989356Y52723D01*
X989394Y52753D01*
X989472Y52852D01*
X989556Y52945D01*
X989580Y52988D01*
X989611Y53026D01*
X989664Y53140D01*
X989725Y53250D01*
X989738Y53297D01*
X989759Y53342D01*
X989785Y53464D01*
X989820Y53585D01*
X989825Y53647D01*
X989832Y53682D01*
X989831Y53730D01*
X989839Y53829D01*
X989839Y788316D01*
X989836Y788342D01*
X989838Y788368D01*
X989816Y788515D01*
X989799Y788662D01*
X989791Y788687D01*
X989787Y788713D01*
X989732Y788851D01*
X989682Y788990D01*
X989668Y789012D01*
X989658Y789037D01*
X989573Y789158D01*
X989493Y789283D01*
X989474Y789301D01*
X989459Y789323D01*
X989349Y789422D01*
X989242Y789525D01*
X989220Y789539D01*
X989200Y789556D01*
X989070Y789628D01*
X988943Y789704D01*
X988918Y789712D01*
X988895Y789725D01*
X988752Y789765D01*
X988611Y789810D01*
X988585Y789812D01*
X988560Y789820D01*
X988316Y789839D01*
X11684Y789839D01*
X11658Y789836D01*
X11632Y789838D01*
X11485Y789816D01*
X11338Y789799D01*
X11313Y789791D01*
X11287Y789787D01*
X11149Y789732D01*
X11010Y789682D01*
X10988Y789668D01*
X10963Y789658D01*
X10842Y789573D01*
X10717Y789493D01*
X10699Y789474D01*
X10677Y789459D01*
X10578Y789349D01*
X10475Y789242D01*
X10461Y789220D01*
X10444Y789200D01*
X10372Y789070D01*
X10296Y788943D01*
X10288Y788918D01*
X10275Y788895D01*
X10235Y788752D01*
X10190Y788611D01*
X10188Y788585D01*
X10180Y788560D01*
X10161Y788316D01*
X10161Y11684D01*
X10164Y11658D01*
X10162Y11632D01*
X10184Y11485D01*
X10201Y11338D01*
X10209Y11313D01*
X10213Y11287D01*
X10268Y11149D01*
X10318Y11010D01*
X10332Y10988D01*
X10342Y10963D01*
X10427Y10842D01*
X10507Y10717D01*
X10526Y10699D01*
X10541Y10677D01*
X10651Y10578D01*
X10758Y10475D01*
X10780Y10461D01*
X10800Y10444D01*
X10930Y10372D01*
X11057Y10296D01*
X11082Y10288D01*
X11105Y10275D01*
X11248Y10235D01*
X11389Y10190D01*
X11415Y10188D01*
X11440Y10180D01*
X11684Y10161D01*
X988316Y10161D01*
X988342Y10164D01*
G37*
%LPC*%
G36*
X353993Y360219D02*
X353993Y360219D01*
X351023Y361450D01*
X348750Y363723D01*
X347519Y366693D01*
X347519Y369907D01*
X348750Y372877D01*
X351023Y375150D01*
X353993Y376381D01*
X357207Y376381D01*
X360177Y375150D01*
X362009Y373319D01*
X362108Y373240D01*
X362202Y373156D01*
X362244Y373132D01*
X362282Y373102D01*
X362396Y373048D01*
X362507Y372987D01*
X362553Y372974D01*
X362597Y372953D01*
X362720Y372927D01*
X362842Y372892D01*
X362903Y372887D01*
X362938Y372880D01*
X362986Y372881D01*
X363086Y372873D01*
X462922Y372873D01*
X463022Y372884D01*
X463122Y372886D01*
X463194Y372904D01*
X463268Y372913D01*
X463363Y372947D01*
X463460Y372971D01*
X463526Y373005D01*
X463596Y373030D01*
X463681Y373085D01*
X463770Y373131D01*
X463827Y373179D01*
X463889Y373219D01*
X463959Y373291D01*
X464035Y373356D01*
X464080Y373416D01*
X464131Y373470D01*
X464183Y373556D01*
X464242Y373637D01*
X464272Y373705D01*
X464310Y373769D01*
X464341Y373865D01*
X464380Y373957D01*
X464394Y374030D01*
X464416Y374101D01*
X464424Y374201D01*
X464442Y374300D01*
X464438Y374374D01*
X464444Y374448D01*
X464429Y374548D01*
X464424Y374648D01*
X464404Y374719D01*
X464393Y374793D01*
X464355Y374886D01*
X464328Y374983D01*
X464291Y375048D01*
X464264Y375117D01*
X464207Y375199D01*
X464158Y375287D01*
X464092Y375363D01*
X464065Y375403D01*
X464039Y375427D01*
X463999Y375473D01*
X463050Y376423D01*
X461819Y379393D01*
X461819Y381983D01*
X461805Y382109D01*
X461798Y382235D01*
X461785Y382281D01*
X461779Y382329D01*
X461737Y382448D01*
X461702Y382570D01*
X461678Y382612D01*
X461662Y382657D01*
X461593Y382764D01*
X461532Y382874D01*
X461492Y382920D01*
X461473Y382950D01*
X461438Y382984D01*
X461373Y383060D01*
X455752Y388681D01*
X455653Y388760D01*
X455559Y388844D01*
X455517Y388868D01*
X455479Y388898D01*
X455365Y388952D01*
X455254Y389013D01*
X455208Y389026D01*
X455164Y389047D01*
X455041Y389073D01*
X454919Y389108D01*
X454858Y389113D01*
X454823Y389120D01*
X454775Y389119D01*
X454675Y389127D01*
X405053Y389127D01*
X404978Y389119D01*
X404901Y389120D01*
X404805Y389099D01*
X404707Y389087D01*
X404635Y389062D01*
X404561Y389045D01*
X404472Y389003D01*
X404379Y388970D01*
X404315Y388928D01*
X404246Y388896D01*
X404169Y388834D01*
X404086Y388781D01*
X404033Y388726D01*
X403973Y388678D01*
X403912Y388601D01*
X403844Y388530D01*
X403805Y388465D01*
X403757Y388405D01*
X403689Y388272D01*
X403665Y388231D01*
X403659Y388213D01*
X403646Y388187D01*
X403279Y387300D01*
X400100Y384121D01*
X395947Y382401D01*
X391453Y382401D01*
X387300Y384121D01*
X384121Y387300D01*
X382401Y391453D01*
X382401Y395947D01*
X384121Y400100D01*
X387300Y403279D01*
X391438Y404993D01*
X391526Y405042D01*
X391618Y405082D01*
X391678Y405126D01*
X391743Y405162D01*
X391817Y405229D01*
X391898Y405289D01*
X391946Y405346D01*
X392001Y405396D01*
X392058Y405479D01*
X392123Y405555D01*
X392157Y405622D01*
X392199Y405683D01*
X392236Y405776D01*
X392282Y405866D01*
X392300Y405938D01*
X392327Y406007D01*
X392341Y406106D01*
X392366Y406204D01*
X392367Y406278D01*
X392378Y406352D01*
X392369Y406452D01*
X392371Y406552D01*
X392355Y406625D01*
X392349Y406699D01*
X392318Y406795D01*
X392296Y406893D01*
X392264Y406960D01*
X392242Y407031D01*
X392190Y407117D01*
X392147Y407208D01*
X392100Y407266D01*
X392062Y407329D01*
X391992Y407401D01*
X391929Y407480D01*
X391871Y407526D01*
X391819Y407579D01*
X391735Y407634D01*
X391656Y407696D01*
X391566Y407742D01*
X391526Y407768D01*
X391492Y407780D01*
X391438Y407807D01*
X387300Y409521D01*
X384121Y412700D01*
X382401Y416853D01*
X382401Y421347D01*
X384121Y425500D01*
X387300Y428679D01*
X391438Y430393D01*
X391526Y430442D01*
X391618Y430482D01*
X391678Y430526D01*
X391743Y430562D01*
X391817Y430629D01*
X391898Y430689D01*
X391946Y430746D01*
X392001Y430796D01*
X392058Y430879D01*
X392123Y430955D01*
X392157Y431022D01*
X392199Y431083D01*
X392236Y431176D01*
X392282Y431266D01*
X392300Y431338D01*
X392327Y431407D01*
X392341Y431506D01*
X392366Y431604D01*
X392367Y431678D01*
X392378Y431752D01*
X392369Y431852D01*
X392371Y431952D01*
X392355Y432025D01*
X392349Y432099D01*
X392318Y432195D01*
X392296Y432293D01*
X392264Y432360D01*
X392242Y432431D01*
X392190Y432517D01*
X392147Y432608D01*
X392100Y432666D01*
X392062Y432729D01*
X391992Y432801D01*
X391929Y432880D01*
X391871Y432926D01*
X391819Y432979D01*
X391735Y433034D01*
X391656Y433096D01*
X391566Y433142D01*
X391526Y433168D01*
X391492Y433180D01*
X391438Y433207D01*
X387300Y434921D01*
X384121Y438100D01*
X382401Y442253D01*
X382401Y446747D01*
X384121Y450900D01*
X387300Y454079D01*
X391438Y455793D01*
X391526Y455842D01*
X391618Y455882D01*
X391678Y455926D01*
X391743Y455962D01*
X391817Y456029D01*
X391898Y456089D01*
X391946Y456146D01*
X392001Y456196D01*
X392058Y456279D01*
X392123Y456355D01*
X392157Y456422D01*
X392199Y456483D01*
X392236Y456576D01*
X392282Y456666D01*
X392300Y456738D01*
X392327Y456807D01*
X392341Y456906D01*
X392366Y457004D01*
X392367Y457078D01*
X392378Y457152D01*
X392369Y457252D01*
X392371Y457352D01*
X392355Y457425D01*
X392349Y457499D01*
X392318Y457595D01*
X392296Y457693D01*
X392264Y457760D01*
X392242Y457831D01*
X392190Y457917D01*
X392147Y458008D01*
X392100Y458066D01*
X392062Y458129D01*
X391992Y458201D01*
X391929Y458280D01*
X391871Y458326D01*
X391819Y458379D01*
X391735Y458434D01*
X391656Y458496D01*
X391566Y458542D01*
X391526Y458568D01*
X391492Y458580D01*
X391438Y458607D01*
X387300Y460321D01*
X384121Y463500D01*
X382401Y467653D01*
X382401Y472147D01*
X384121Y476300D01*
X387300Y479479D01*
X391438Y481193D01*
X391526Y481242D01*
X391618Y481282D01*
X391678Y481326D01*
X391743Y481362D01*
X391817Y481429D01*
X391898Y481489D01*
X391946Y481546D01*
X392001Y481596D01*
X392058Y481679D01*
X392123Y481755D01*
X392157Y481822D01*
X392199Y481883D01*
X392236Y481976D01*
X392282Y482066D01*
X392300Y482138D01*
X392327Y482207D01*
X392341Y482306D01*
X392366Y482404D01*
X392367Y482478D01*
X392378Y482552D01*
X392369Y482652D01*
X392371Y482752D01*
X392355Y482825D01*
X392349Y482899D01*
X392318Y482995D01*
X392296Y483093D01*
X392264Y483160D01*
X392242Y483231D01*
X392190Y483317D01*
X392147Y483408D01*
X392100Y483466D01*
X392062Y483529D01*
X391992Y483601D01*
X391929Y483680D01*
X391871Y483726D01*
X391819Y483779D01*
X391735Y483834D01*
X391656Y483896D01*
X391566Y483942D01*
X391526Y483968D01*
X391492Y483980D01*
X391438Y484007D01*
X387300Y485721D01*
X384121Y488900D01*
X382401Y493053D01*
X382401Y497547D01*
X384121Y501700D01*
X387300Y504879D01*
X391438Y506593D01*
X391526Y506642D01*
X391618Y506682D01*
X391678Y506726D01*
X391743Y506762D01*
X391817Y506829D01*
X391898Y506889D01*
X391946Y506946D01*
X392001Y506996D01*
X392058Y507079D01*
X392123Y507155D01*
X392157Y507222D01*
X392199Y507283D01*
X392236Y507376D01*
X392282Y507466D01*
X392300Y507538D01*
X392327Y507607D01*
X392341Y507706D01*
X392366Y507804D01*
X392367Y507878D01*
X392378Y507952D01*
X392369Y508052D01*
X392371Y508152D01*
X392355Y508225D01*
X392349Y508299D01*
X392318Y508395D01*
X392296Y508493D01*
X392264Y508560D01*
X392242Y508631D01*
X392190Y508717D01*
X392147Y508808D01*
X392100Y508866D01*
X392062Y508929D01*
X391992Y509001D01*
X391929Y509080D01*
X391871Y509126D01*
X391819Y509179D01*
X391735Y509234D01*
X391656Y509296D01*
X391566Y509342D01*
X391526Y509368D01*
X391492Y509380D01*
X391438Y509407D01*
X387300Y511121D01*
X384121Y514300D01*
X382401Y518453D01*
X382401Y522947D01*
X384121Y527100D01*
X387300Y530279D01*
X391144Y531871D01*
X391188Y531895D01*
X391235Y531912D01*
X391339Y531980D01*
X391448Y532040D01*
X391485Y532074D01*
X391528Y532101D01*
X391614Y532191D01*
X391706Y532274D01*
X391735Y532316D01*
X391770Y532352D01*
X391834Y532459D01*
X391904Y532561D01*
X391923Y532608D01*
X391949Y532651D01*
X391987Y532769D01*
X392032Y532885D01*
X392040Y532935D01*
X392055Y532983D01*
X392065Y533107D01*
X392083Y533230D01*
X392079Y533280D01*
X392083Y533330D01*
X392065Y533453D01*
X392054Y533577D01*
X392039Y533625D01*
X392031Y533675D01*
X391985Y533790D01*
X391947Y533909D01*
X391921Y533952D01*
X391903Y533999D01*
X391832Y534101D01*
X391767Y534207D01*
X391732Y534244D01*
X391704Y534285D01*
X391611Y534368D01*
X391525Y534457D01*
X391482Y534485D01*
X391445Y534518D01*
X391336Y534578D01*
X391231Y534646D01*
X391184Y534663D01*
X391140Y534687D01*
X391020Y534721D01*
X390903Y534762D01*
X390853Y534768D01*
X390804Y534782D01*
X390561Y534801D01*
X384187Y534801D01*
X382401Y536587D01*
X382401Y555613D01*
X384187Y557399D01*
X403213Y557399D01*
X404999Y555613D01*
X404999Y536587D01*
X403213Y534801D01*
X396839Y534801D01*
X396789Y534796D01*
X396739Y534798D01*
X396617Y534776D01*
X396493Y534761D01*
X396446Y534744D01*
X396396Y534735D01*
X396282Y534686D01*
X396165Y534644D01*
X396123Y534617D01*
X396077Y534597D01*
X395977Y534522D01*
X395872Y534455D01*
X395837Y534419D01*
X395797Y534389D01*
X395717Y534294D01*
X395630Y534204D01*
X395604Y534161D01*
X395572Y534123D01*
X395515Y534012D01*
X395451Y533905D01*
X395436Y533857D01*
X395413Y533812D01*
X395383Y533692D01*
X395345Y533573D01*
X395341Y533523D01*
X395329Y533474D01*
X395327Y533350D01*
X395317Y533226D01*
X395324Y533176D01*
X395324Y533126D01*
X395350Y533004D01*
X395369Y532881D01*
X395387Y532834D01*
X395398Y532785D01*
X395451Y532673D01*
X395497Y532557D01*
X395526Y532516D01*
X395548Y532470D01*
X395625Y532373D01*
X395696Y532271D01*
X395734Y532237D01*
X395765Y532198D01*
X395863Y532121D01*
X395955Y532038D01*
X395999Y532013D01*
X396039Y531982D01*
X396256Y531871D01*
X400100Y530279D01*
X403279Y527100D01*
X404999Y522947D01*
X404999Y518453D01*
X403279Y514300D01*
X400100Y511121D01*
X395962Y509407D01*
X395874Y509359D01*
X395782Y509319D01*
X395722Y509274D01*
X395657Y509238D01*
X395583Y509171D01*
X395502Y509111D01*
X395454Y509054D01*
X395399Y509004D01*
X395342Y508921D01*
X395277Y508845D01*
X395243Y508778D01*
X395201Y508717D01*
X395164Y508624D01*
X395118Y508534D01*
X395101Y508462D01*
X395073Y508393D01*
X395059Y508294D01*
X395034Y508196D01*
X395033Y508122D01*
X395022Y508048D01*
X395031Y507948D01*
X395029Y507848D01*
X395045Y507775D01*
X395051Y507701D01*
X395082Y507605D01*
X395104Y507507D01*
X395136Y507440D01*
X395158Y507369D01*
X395210Y507283D01*
X395253Y507192D01*
X395300Y507134D01*
X395338Y507071D01*
X395408Y506998D01*
X395471Y506920D01*
X395529Y506874D01*
X395581Y506821D01*
X395665Y506766D01*
X395744Y506704D01*
X395834Y506658D01*
X395874Y506632D01*
X395908Y506620D01*
X395962Y506593D01*
X400100Y504879D01*
X403279Y501700D01*
X404999Y497547D01*
X404999Y493053D01*
X403279Y488900D01*
X400100Y485721D01*
X395962Y484007D01*
X395874Y483959D01*
X395782Y483919D01*
X395722Y483874D01*
X395657Y483838D01*
X395583Y483771D01*
X395502Y483711D01*
X395454Y483654D01*
X395399Y483604D01*
X395342Y483521D01*
X395277Y483445D01*
X395243Y483378D01*
X395201Y483317D01*
X395164Y483224D01*
X395118Y483134D01*
X395101Y483062D01*
X395073Y482993D01*
X395059Y482894D01*
X395034Y482796D01*
X395033Y482722D01*
X395022Y482648D01*
X395031Y482548D01*
X395029Y482448D01*
X395045Y482375D01*
X395051Y482301D01*
X395082Y482205D01*
X395104Y482107D01*
X395136Y482040D01*
X395158Y481969D01*
X395210Y481883D01*
X395253Y481792D01*
X395300Y481734D01*
X395338Y481671D01*
X395408Y481598D01*
X395471Y481520D01*
X395529Y481474D01*
X395581Y481421D01*
X395665Y481366D01*
X395744Y481304D01*
X395834Y481258D01*
X395874Y481232D01*
X395908Y481220D01*
X395962Y481193D01*
X400100Y479479D01*
X403279Y476300D01*
X404999Y472147D01*
X404999Y467653D01*
X404120Y465531D01*
X404106Y465483D01*
X404085Y465437D01*
X404059Y465316D01*
X404024Y465196D01*
X404022Y465146D01*
X404011Y465097D01*
X404014Y464972D01*
X404007Y464848D01*
X404016Y464799D01*
X404017Y464748D01*
X404048Y464628D01*
X404070Y464505D01*
X404090Y464459D01*
X404102Y464410D01*
X404159Y464300D01*
X404209Y464186D01*
X404239Y464145D01*
X404262Y464100D01*
X404343Y464006D01*
X404417Y463906D01*
X404455Y463873D01*
X404488Y463835D01*
X404588Y463761D01*
X404683Y463681D01*
X404728Y463658D01*
X404768Y463628D01*
X404882Y463579D01*
X404993Y463522D01*
X405042Y463510D01*
X405088Y463490D01*
X405211Y463468D01*
X405331Y463438D01*
X405382Y463437D01*
X405431Y463428D01*
X405555Y463435D01*
X405680Y463433D01*
X405729Y463444D01*
X405779Y463446D01*
X405899Y463481D01*
X406020Y463507D01*
X406066Y463529D01*
X406114Y463543D01*
X406223Y463603D01*
X406335Y463657D01*
X406374Y463688D01*
X406418Y463713D01*
X406604Y463871D01*
X515681Y572948D01*
X515760Y573047D01*
X515844Y573141D01*
X515868Y573183D01*
X515898Y573221D01*
X515952Y573335D01*
X516013Y573446D01*
X516026Y573492D01*
X516047Y573536D01*
X516073Y573659D01*
X516108Y573781D01*
X516113Y573842D01*
X516120Y573877D01*
X516119Y573925D01*
X516127Y574025D01*
X516127Y686710D01*
X516823Y688390D01*
X530810Y702377D01*
X532490Y703073D01*
X610510Y703073D01*
X612190Y702377D01*
X661352Y653215D01*
X661412Y653167D01*
X661465Y653112D01*
X661548Y653059D01*
X661625Y652998D01*
X661694Y652965D01*
X661759Y652924D01*
X661851Y652891D01*
X661940Y652849D01*
X662015Y652833D01*
X662087Y652807D01*
X662185Y652796D01*
X662281Y652776D01*
X662357Y652777D01*
X662433Y652768D01*
X662531Y652780D01*
X662630Y652782D01*
X662704Y652800D01*
X662780Y652809D01*
X662921Y652855D01*
X662968Y652867D01*
X662985Y652875D01*
X663012Y652884D01*
X663873Y653241D01*
X667087Y653241D01*
X670057Y652010D01*
X672330Y649737D01*
X673561Y646767D01*
X673561Y643553D01*
X672330Y640583D01*
X670057Y638310D01*
X667087Y637079D01*
X663873Y637079D01*
X660903Y638310D01*
X658630Y640583D01*
X657399Y643553D01*
X657399Y643603D01*
X657385Y643729D01*
X657378Y643855D01*
X657365Y643901D01*
X657359Y643949D01*
X657317Y644068D01*
X657282Y644190D01*
X657258Y644232D01*
X657242Y644277D01*
X657173Y644384D01*
X657112Y644494D01*
X657072Y644540D01*
X657053Y644570D01*
X657018Y644604D01*
X656953Y644680D01*
X608152Y693481D01*
X608053Y693560D01*
X607959Y693644D01*
X607917Y693668D01*
X607879Y693698D01*
X607765Y693752D01*
X607654Y693813D01*
X607608Y693826D01*
X607564Y693847D01*
X607441Y693873D01*
X607319Y693908D01*
X607258Y693913D01*
X607223Y693920D01*
X607175Y693919D01*
X607075Y693927D01*
X535925Y693927D01*
X535799Y693913D01*
X535673Y693906D01*
X535627Y693893D01*
X535579Y693887D01*
X535460Y693845D01*
X535338Y693810D01*
X535296Y693786D01*
X535251Y693770D01*
X535144Y693701D01*
X535034Y693640D01*
X534988Y693600D01*
X534958Y693581D01*
X534924Y693546D01*
X534848Y693481D01*
X525719Y684352D01*
X525640Y684253D01*
X525556Y684159D01*
X525532Y684117D01*
X525502Y684079D01*
X525448Y683965D01*
X525387Y683854D01*
X525374Y683808D01*
X525353Y683764D01*
X525327Y683641D01*
X525292Y683519D01*
X525287Y683458D01*
X525280Y683423D01*
X525281Y683375D01*
X525273Y683275D01*
X525273Y570590D01*
X524577Y568910D01*
X523076Y567409D01*
X404961Y449295D01*
X404914Y449235D01*
X404859Y449182D01*
X404806Y449099D01*
X404745Y449022D01*
X404712Y448953D01*
X404671Y448888D01*
X404638Y448796D01*
X404596Y448707D01*
X404580Y448632D01*
X404554Y448560D01*
X404543Y448462D01*
X404523Y448366D01*
X404524Y448290D01*
X404515Y448213D01*
X404527Y448116D01*
X404529Y448017D01*
X404547Y447943D01*
X404556Y447867D01*
X404602Y447725D01*
X404614Y447679D01*
X404622Y447662D01*
X404631Y447635D01*
X404999Y446747D01*
X404999Y442253D01*
X403279Y438100D01*
X400100Y434921D01*
X395962Y433207D01*
X395874Y433159D01*
X395782Y433119D01*
X395722Y433074D01*
X395657Y433038D01*
X395583Y432971D01*
X395502Y432911D01*
X395454Y432854D01*
X395399Y432804D01*
X395342Y432721D01*
X395277Y432645D01*
X395243Y432578D01*
X395201Y432517D01*
X395164Y432424D01*
X395118Y432334D01*
X395101Y432262D01*
X395073Y432193D01*
X395059Y432094D01*
X395034Y431996D01*
X395033Y431922D01*
X395022Y431848D01*
X395031Y431748D01*
X395029Y431648D01*
X395045Y431575D01*
X395051Y431501D01*
X395082Y431405D01*
X395104Y431307D01*
X395136Y431240D01*
X395158Y431169D01*
X395210Y431083D01*
X395253Y430992D01*
X395300Y430934D01*
X395338Y430871D01*
X395408Y430798D01*
X395471Y430720D01*
X395529Y430674D01*
X395581Y430621D01*
X395665Y430566D01*
X395744Y430504D01*
X395834Y430458D01*
X395874Y430432D01*
X395908Y430420D01*
X395962Y430393D01*
X400100Y428679D01*
X403279Y425500D01*
X404999Y421347D01*
X404999Y416853D01*
X403279Y412700D01*
X400100Y409521D01*
X395962Y407807D01*
X395874Y407759D01*
X395782Y407719D01*
X395722Y407674D01*
X395657Y407638D01*
X395583Y407571D01*
X395502Y407511D01*
X395454Y407454D01*
X395399Y407404D01*
X395342Y407321D01*
X395277Y407245D01*
X395243Y407178D01*
X395201Y407117D01*
X395164Y407024D01*
X395118Y406934D01*
X395101Y406862D01*
X395073Y406793D01*
X395059Y406694D01*
X395034Y406596D01*
X395033Y406522D01*
X395022Y406448D01*
X395031Y406348D01*
X395029Y406248D01*
X395045Y406175D01*
X395051Y406101D01*
X395082Y406005D01*
X395104Y405907D01*
X395136Y405840D01*
X395158Y405769D01*
X395210Y405683D01*
X395253Y405592D01*
X395300Y405534D01*
X395338Y405471D01*
X395408Y405398D01*
X395471Y405320D01*
X395529Y405274D01*
X395581Y405221D01*
X395665Y405166D01*
X395744Y405104D01*
X395834Y405058D01*
X395874Y405032D01*
X395908Y405020D01*
X395962Y404993D01*
X400100Y403279D01*
X403279Y400100D01*
X403646Y399213D01*
X403683Y399146D01*
X403711Y399075D01*
X403767Y398995D01*
X403815Y398908D01*
X403867Y398852D01*
X403910Y398789D01*
X403983Y398723D01*
X404050Y398650D01*
X404112Y398607D01*
X404169Y398556D01*
X404255Y398508D01*
X404336Y398452D01*
X404407Y398424D01*
X404474Y398387D01*
X404569Y398360D01*
X404660Y398324D01*
X404736Y398313D01*
X404810Y398292D01*
X404958Y398280D01*
X405005Y398273D01*
X405024Y398275D01*
X405053Y398273D01*
X458110Y398273D01*
X459790Y397577D01*
X467840Y389527D01*
X467939Y389448D01*
X468033Y389364D01*
X468075Y389340D01*
X468113Y389310D01*
X468227Y389256D01*
X468338Y389195D01*
X468384Y389182D01*
X468428Y389161D01*
X468551Y389135D01*
X468673Y389100D01*
X468734Y389095D01*
X468769Y389088D01*
X468817Y389089D01*
X468917Y389081D01*
X471507Y389081D01*
X473251Y388358D01*
X473348Y388331D01*
X473441Y388294D01*
X473515Y388283D01*
X473587Y388263D01*
X473687Y388258D01*
X473786Y388243D01*
X473861Y388249D01*
X473935Y388246D01*
X474033Y388264D01*
X474134Y388272D01*
X474204Y388295D01*
X474278Y388308D01*
X474370Y388348D01*
X474465Y388379D01*
X474529Y388417D01*
X474597Y388447D01*
X474678Y388507D01*
X474764Y388559D01*
X474817Y388611D01*
X474877Y388655D01*
X474942Y388732D01*
X475014Y388802D01*
X475054Y388864D01*
X475102Y388921D01*
X475148Y389010D01*
X475202Y389095D01*
X475227Y389165D01*
X475261Y389231D01*
X475285Y389329D01*
X475319Y389423D01*
X475327Y389497D01*
X475345Y389569D01*
X475346Y389670D01*
X475358Y389770D01*
X475349Y389843D01*
X475350Y389918D01*
X475329Y390016D01*
X475317Y390116D01*
X475286Y390211D01*
X475276Y390258D01*
X475260Y390291D01*
X475242Y390349D01*
X474519Y392093D01*
X474519Y394683D01*
X474505Y394809D01*
X474498Y394935D01*
X474485Y394981D01*
X474479Y395029D01*
X474437Y395148D01*
X474402Y395270D01*
X474378Y395312D01*
X474362Y395357D01*
X474293Y395463D01*
X474232Y395574D01*
X474192Y395620D01*
X474173Y395650D01*
X474138Y395684D01*
X474073Y395760D01*
X446560Y423273D01*
X446461Y423352D01*
X446367Y423436D01*
X446325Y423460D01*
X446287Y423490D01*
X446173Y423544D01*
X446062Y423605D01*
X446016Y423618D01*
X445972Y423639D01*
X445849Y423665D01*
X445727Y423700D01*
X445666Y423705D01*
X445631Y423712D01*
X445583Y423711D01*
X445483Y423719D01*
X442893Y423719D01*
X439923Y424950D01*
X437650Y427223D01*
X436419Y430193D01*
X436419Y433407D01*
X437650Y436377D01*
X439923Y438650D01*
X442893Y439881D01*
X446107Y439881D01*
X449077Y438650D01*
X451350Y436377D01*
X452581Y433407D01*
X452581Y430817D01*
X452595Y430691D01*
X452602Y430565D01*
X452615Y430519D01*
X452621Y430471D01*
X452663Y430352D01*
X452698Y430230D01*
X452722Y430188D01*
X452738Y430143D01*
X452807Y430036D01*
X452868Y429926D01*
X452908Y429880D01*
X452927Y429850D01*
X452962Y429816D01*
X453027Y429740D01*
X480540Y402227D01*
X480639Y402148D01*
X480733Y402064D01*
X480775Y402040D01*
X480813Y402010D01*
X480927Y401956D01*
X481038Y401895D01*
X481084Y401882D01*
X481128Y401861D01*
X481251Y401835D01*
X481373Y401800D01*
X481434Y401795D01*
X481469Y401788D01*
X481517Y401789D01*
X481617Y401781D01*
X484207Y401781D01*
X487177Y400550D01*
X489450Y398277D01*
X490681Y395307D01*
X490681Y392093D01*
X489450Y389123D01*
X487177Y386850D01*
X484207Y385619D01*
X480993Y385619D01*
X479376Y386289D01*
X479249Y386342D01*
X479152Y386369D01*
X479059Y386406D01*
X478985Y386417D01*
X478913Y386437D01*
X478813Y386442D01*
X478714Y386457D01*
X478639Y386451D01*
X478565Y386454D01*
X478467Y386436D01*
X478366Y386428D01*
X478296Y386405D01*
X478222Y386392D01*
X478130Y386352D01*
X478035Y386321D01*
X477971Y386283D01*
X477903Y386253D01*
X477822Y386193D01*
X477736Y386141D01*
X477683Y386089D01*
X477623Y386045D01*
X477558Y385968D01*
X477486Y385898D01*
X477446Y385836D01*
X477398Y385779D01*
X477352Y385690D01*
X477298Y385605D01*
X477273Y385535D01*
X477239Y385469D01*
X477215Y385371D01*
X477181Y385277D01*
X477173Y385203D01*
X477155Y385131D01*
X477154Y385030D01*
X477142Y384930D01*
X477151Y384857D01*
X477150Y384782D01*
X477171Y384684D01*
X477183Y384584D01*
X477214Y384489D01*
X477224Y384442D01*
X477240Y384409D01*
X477258Y384351D01*
X477981Y382607D01*
X477981Y379393D01*
X476750Y376423D01*
X475801Y375473D01*
X475738Y375394D01*
X475669Y375322D01*
X475631Y375258D01*
X475584Y375200D01*
X475541Y375109D01*
X475490Y375023D01*
X475467Y374952D01*
X475435Y374885D01*
X475414Y374787D01*
X475384Y374691D01*
X475378Y374617D01*
X475362Y374544D01*
X475364Y374444D01*
X475356Y374344D01*
X475367Y374270D01*
X475368Y374196D01*
X475392Y374099D01*
X475407Y373999D01*
X475435Y373930D01*
X475453Y373858D01*
X475499Y373769D01*
X475536Y373675D01*
X475579Y373614D01*
X475613Y373548D01*
X475678Y373472D01*
X475735Y373389D01*
X475790Y373339D01*
X475838Y373283D01*
X475919Y373223D01*
X475994Y373156D01*
X476059Y373120D01*
X476119Y373075D01*
X476211Y373036D01*
X476299Y372987D01*
X476371Y372967D01*
X476439Y372937D01*
X476538Y372920D01*
X476634Y372892D01*
X476734Y372884D01*
X476782Y372876D01*
X476818Y372878D01*
X476878Y372873D01*
X518175Y372873D01*
X518301Y372887D01*
X518427Y372894D01*
X518473Y372907D01*
X518521Y372913D01*
X518640Y372955D01*
X518762Y372990D01*
X518804Y373014D01*
X518849Y373030D01*
X518956Y373099D01*
X519066Y373160D01*
X519112Y373200D01*
X519142Y373219D01*
X519176Y373254D01*
X519252Y373319D01*
X533960Y388027D01*
X534007Y388087D01*
X534062Y388140D01*
X534115Y388223D01*
X534177Y388300D01*
X534209Y388369D01*
X534250Y388433D01*
X534283Y388526D01*
X534325Y388615D01*
X534342Y388689D01*
X534367Y388762D01*
X534378Y388860D01*
X534399Y388956D01*
X534398Y389032D01*
X534406Y389108D01*
X534395Y389206D01*
X534393Y389304D01*
X534374Y389378D01*
X534365Y389454D01*
X534319Y389596D01*
X534308Y389642D01*
X534299Y389659D01*
X534290Y389687D01*
X533653Y391224D01*
X533653Y396176D01*
X535548Y400751D01*
X539049Y404252D01*
X540838Y404993D01*
X540926Y405041D01*
X541018Y405081D01*
X541078Y405126D01*
X541143Y405162D01*
X541217Y405229D01*
X541298Y405289D01*
X541346Y405346D01*
X541401Y405396D01*
X541458Y405479D01*
X541523Y405555D01*
X541557Y405622D01*
X541599Y405683D01*
X541636Y405776D01*
X541682Y405866D01*
X541700Y405938D01*
X541727Y406007D01*
X541742Y406106D01*
X541766Y406204D01*
X541767Y406278D01*
X541778Y406352D01*
X541769Y406452D01*
X541771Y406552D01*
X541755Y406625D01*
X541749Y406699D01*
X541718Y406795D01*
X541697Y406893D01*
X541665Y406960D01*
X541642Y407031D01*
X541590Y407117D01*
X541547Y407208D01*
X541500Y407266D01*
X541462Y407329D01*
X541392Y407402D01*
X541329Y407480D01*
X541271Y407526D01*
X541219Y407579D01*
X541135Y407634D01*
X541056Y407696D01*
X540966Y407742D01*
X540926Y407768D01*
X540892Y407780D01*
X540838Y407807D01*
X539049Y408548D01*
X535548Y412049D01*
X533653Y416624D01*
X533653Y421576D01*
X535548Y426151D01*
X539049Y429652D01*
X540838Y430393D01*
X540926Y430441D01*
X541018Y430481D01*
X541078Y430526D01*
X541143Y430562D01*
X541217Y430629D01*
X541298Y430689D01*
X541346Y430746D01*
X541401Y430796D01*
X541458Y430879D01*
X541523Y430955D01*
X541557Y431022D01*
X541599Y431083D01*
X541636Y431176D01*
X541682Y431266D01*
X541700Y431338D01*
X541727Y431407D01*
X541742Y431506D01*
X541766Y431604D01*
X541767Y431678D01*
X541778Y431752D01*
X541769Y431852D01*
X541771Y431952D01*
X541755Y432025D01*
X541749Y432099D01*
X541718Y432195D01*
X541697Y432293D01*
X541665Y432360D01*
X541642Y432431D01*
X541590Y432517D01*
X541547Y432608D01*
X541500Y432666D01*
X541462Y432729D01*
X541392Y432802D01*
X541329Y432880D01*
X541271Y432926D01*
X541219Y432979D01*
X541135Y433034D01*
X541056Y433096D01*
X540966Y433142D01*
X540926Y433168D01*
X540892Y433180D01*
X540838Y433207D01*
X539049Y433948D01*
X535548Y437449D01*
X533653Y442024D01*
X533653Y446976D01*
X535548Y451551D01*
X539049Y455052D01*
X540838Y455793D01*
X540926Y455841D01*
X541018Y455881D01*
X541078Y455926D01*
X541143Y455962D01*
X541217Y456029D01*
X541298Y456089D01*
X541346Y456146D01*
X541401Y456196D01*
X541458Y456279D01*
X541523Y456355D01*
X541557Y456422D01*
X541599Y456483D01*
X541636Y456576D01*
X541682Y456666D01*
X541700Y456738D01*
X541727Y456807D01*
X541742Y456906D01*
X541766Y457004D01*
X541767Y457078D01*
X541778Y457152D01*
X541769Y457252D01*
X541771Y457352D01*
X541755Y457425D01*
X541749Y457499D01*
X541718Y457595D01*
X541697Y457693D01*
X541665Y457760D01*
X541642Y457831D01*
X541590Y457917D01*
X541547Y458008D01*
X541500Y458066D01*
X541462Y458129D01*
X541392Y458202D01*
X541329Y458280D01*
X541271Y458326D01*
X541219Y458379D01*
X541135Y458434D01*
X541056Y458496D01*
X540966Y458542D01*
X540926Y458568D01*
X540892Y458580D01*
X540838Y458607D01*
X539049Y459348D01*
X535548Y462849D01*
X533653Y467424D01*
X533653Y472376D01*
X535548Y476951D01*
X539049Y480452D01*
X540838Y481193D01*
X540926Y481241D01*
X541018Y481281D01*
X541078Y481326D01*
X541143Y481362D01*
X541217Y481429D01*
X541298Y481489D01*
X541346Y481546D01*
X541401Y481596D01*
X541458Y481679D01*
X541523Y481755D01*
X541557Y481822D01*
X541599Y481883D01*
X541636Y481976D01*
X541682Y482066D01*
X541700Y482138D01*
X541727Y482207D01*
X541742Y482306D01*
X541766Y482404D01*
X541767Y482478D01*
X541778Y482552D01*
X541769Y482652D01*
X541771Y482752D01*
X541755Y482825D01*
X541749Y482899D01*
X541718Y482995D01*
X541697Y483093D01*
X541665Y483160D01*
X541642Y483231D01*
X541590Y483317D01*
X541547Y483408D01*
X541500Y483466D01*
X541462Y483529D01*
X541392Y483602D01*
X541329Y483680D01*
X541271Y483726D01*
X541219Y483779D01*
X541135Y483834D01*
X541056Y483896D01*
X540966Y483942D01*
X540926Y483968D01*
X540892Y483980D01*
X540838Y484007D01*
X539049Y484748D01*
X535548Y488249D01*
X533653Y492824D01*
X533653Y497776D01*
X535548Y502351D01*
X539049Y505852D01*
X540838Y506593D01*
X540926Y506641D01*
X541018Y506681D01*
X541078Y506726D01*
X541143Y506762D01*
X541217Y506829D01*
X541298Y506889D01*
X541346Y506946D01*
X541401Y506996D01*
X541458Y507079D01*
X541523Y507155D01*
X541557Y507222D01*
X541599Y507283D01*
X541636Y507376D01*
X541682Y507466D01*
X541700Y507538D01*
X541727Y507607D01*
X541742Y507706D01*
X541766Y507804D01*
X541767Y507878D01*
X541778Y507952D01*
X541769Y508052D01*
X541771Y508152D01*
X541755Y508225D01*
X541749Y508299D01*
X541718Y508395D01*
X541697Y508493D01*
X541665Y508560D01*
X541642Y508631D01*
X541590Y508717D01*
X541547Y508808D01*
X541500Y508866D01*
X541462Y508929D01*
X541392Y509002D01*
X541329Y509080D01*
X541271Y509126D01*
X541219Y509179D01*
X541135Y509234D01*
X541056Y509296D01*
X540966Y509342D01*
X540926Y509368D01*
X540892Y509380D01*
X540838Y509407D01*
X539049Y510148D01*
X535548Y513649D01*
X533653Y518224D01*
X533653Y523176D01*
X535548Y527751D01*
X539049Y531252D01*
X540838Y531993D01*
X540926Y532041D01*
X541018Y532081D01*
X541078Y532126D01*
X541143Y532162D01*
X541217Y532229D01*
X541298Y532289D01*
X541346Y532346D01*
X541401Y532396D01*
X541458Y532479D01*
X541523Y532555D01*
X541557Y532622D01*
X541599Y532683D01*
X541636Y532776D01*
X541682Y532866D01*
X541700Y532938D01*
X541727Y533007D01*
X541742Y533106D01*
X541766Y533204D01*
X541767Y533278D01*
X541778Y533352D01*
X541769Y533452D01*
X541771Y533552D01*
X541755Y533625D01*
X541749Y533699D01*
X541718Y533795D01*
X541697Y533893D01*
X541665Y533960D01*
X541642Y534031D01*
X541590Y534117D01*
X541547Y534208D01*
X541500Y534266D01*
X541462Y534329D01*
X541392Y534402D01*
X541329Y534480D01*
X541271Y534526D01*
X541219Y534579D01*
X541135Y534634D01*
X541056Y534696D01*
X540966Y534742D01*
X540926Y534768D01*
X540892Y534780D01*
X540838Y534807D01*
X539049Y535548D01*
X535548Y539049D01*
X533653Y543624D01*
X533653Y548576D01*
X535548Y553151D01*
X539049Y556652D01*
X540838Y557393D01*
X540926Y557441D01*
X541018Y557481D01*
X541078Y557526D01*
X541143Y557562D01*
X541217Y557629D01*
X541298Y557689D01*
X541346Y557746D01*
X541401Y557796D01*
X541458Y557879D01*
X541523Y557955D01*
X541557Y558022D01*
X541599Y558083D01*
X541636Y558176D01*
X541682Y558266D01*
X541700Y558338D01*
X541727Y558407D01*
X541742Y558506D01*
X541766Y558604D01*
X541767Y558678D01*
X541778Y558752D01*
X541769Y558852D01*
X541771Y558952D01*
X541755Y559025D01*
X541749Y559099D01*
X541718Y559195D01*
X541697Y559293D01*
X541665Y559360D01*
X541642Y559431D01*
X541590Y559517D01*
X541547Y559608D01*
X541500Y559666D01*
X541462Y559729D01*
X541392Y559802D01*
X541329Y559880D01*
X541271Y559926D01*
X541219Y559979D01*
X541135Y560034D01*
X541056Y560096D01*
X540966Y560142D01*
X540926Y560168D01*
X540892Y560180D01*
X540838Y560207D01*
X539049Y560948D01*
X535548Y564449D01*
X533653Y569024D01*
X533653Y573976D01*
X535548Y578551D01*
X539049Y582052D01*
X540838Y582793D01*
X540926Y582841D01*
X541018Y582881D01*
X541078Y582926D01*
X541143Y582962D01*
X541217Y583029D01*
X541298Y583089D01*
X541346Y583146D01*
X541401Y583196D01*
X541458Y583279D01*
X541523Y583355D01*
X541557Y583422D01*
X541599Y583483D01*
X541636Y583576D01*
X541682Y583666D01*
X541700Y583738D01*
X541727Y583807D01*
X541742Y583906D01*
X541766Y584004D01*
X541767Y584078D01*
X541778Y584152D01*
X541769Y584252D01*
X541771Y584352D01*
X541755Y584425D01*
X541749Y584499D01*
X541718Y584595D01*
X541697Y584693D01*
X541665Y584760D01*
X541642Y584831D01*
X541590Y584917D01*
X541547Y585008D01*
X541500Y585066D01*
X541462Y585129D01*
X541392Y585202D01*
X541329Y585280D01*
X541271Y585326D01*
X541219Y585379D01*
X541135Y585434D01*
X541056Y585496D01*
X540966Y585542D01*
X540926Y585568D01*
X540892Y585580D01*
X540838Y585607D01*
X539049Y586348D01*
X535548Y589849D01*
X533653Y594424D01*
X533653Y599376D01*
X535548Y603951D01*
X539049Y607452D01*
X540838Y608193D01*
X540926Y608241D01*
X541018Y608281D01*
X541078Y608326D01*
X541143Y608362D01*
X541217Y608429D01*
X541298Y608489D01*
X541346Y608546D01*
X541401Y608596D01*
X541458Y608679D01*
X541523Y608755D01*
X541557Y608822D01*
X541599Y608883D01*
X541636Y608976D01*
X541682Y609066D01*
X541700Y609138D01*
X541727Y609207D01*
X541742Y609306D01*
X541766Y609404D01*
X541767Y609478D01*
X541778Y609552D01*
X541769Y609652D01*
X541771Y609752D01*
X541755Y609825D01*
X541749Y609899D01*
X541718Y609995D01*
X541697Y610093D01*
X541665Y610160D01*
X541642Y610231D01*
X541590Y610317D01*
X541547Y610408D01*
X541500Y610466D01*
X541462Y610529D01*
X541392Y610602D01*
X541329Y610680D01*
X541271Y610726D01*
X541219Y610779D01*
X541135Y610834D01*
X541056Y610896D01*
X540966Y610942D01*
X540926Y610968D01*
X540892Y610980D01*
X540838Y611007D01*
X539049Y611748D01*
X535548Y615249D01*
X533653Y619824D01*
X533653Y624776D01*
X535548Y629351D01*
X539049Y632852D01*
X541454Y633848D01*
X541490Y633868D01*
X541529Y633881D01*
X541642Y633952D01*
X541759Y634017D01*
X541789Y634045D01*
X541824Y634066D01*
X541918Y634161D01*
X542017Y634251D01*
X542040Y634285D01*
X542069Y634314D01*
X542139Y634428D01*
X542215Y634538D01*
X542230Y634576D01*
X542252Y634611D01*
X542294Y634738D01*
X542343Y634862D01*
X542349Y634903D01*
X542362Y634941D01*
X542375Y635075D01*
X542394Y635207D01*
X542391Y635248D01*
X542394Y635288D01*
X542376Y635421D01*
X542365Y635554D01*
X542353Y635593D01*
X542347Y635634D01*
X542299Y635758D01*
X542258Y635886D01*
X542237Y635921D01*
X542223Y635959D01*
X542148Y636070D01*
X542078Y636185D01*
X542050Y636214D01*
X542027Y636248D01*
X541929Y636338D01*
X541836Y636435D01*
X541801Y636457D01*
X541771Y636484D01*
X541563Y636613D01*
X539843Y637489D01*
X538322Y638594D01*
X536994Y639922D01*
X535889Y641443D01*
X535036Y643117D01*
X534455Y644904D01*
X534415Y645161D01*
X545084Y645161D01*
X545110Y645164D01*
X545136Y645162D01*
X545283Y645184D01*
X545430Y645201D01*
X545455Y645209D01*
X545481Y645213D01*
X545618Y645268D01*
X545758Y645318D01*
X545780Y645332D01*
X545805Y645342D01*
X545926Y645427D01*
X546051Y645507D01*
X546069Y645526D01*
X546091Y645541D01*
X546105Y645557D01*
X546190Y645475D01*
X546213Y645461D01*
X546232Y645444D01*
X546362Y645372D01*
X546489Y645296D01*
X546514Y645288D01*
X546537Y645275D01*
X546680Y645235D01*
X546821Y645190D01*
X546847Y645187D01*
X546872Y645180D01*
X547116Y645161D01*
X557785Y645161D01*
X557745Y644904D01*
X557164Y643117D01*
X556311Y641443D01*
X555206Y639922D01*
X553878Y638594D01*
X552357Y637489D01*
X550637Y636613D01*
X550603Y636590D01*
X550566Y636574D01*
X550458Y636494D01*
X550347Y636420D01*
X550319Y636390D01*
X550286Y636366D01*
X550199Y636264D01*
X550108Y636166D01*
X550087Y636131D01*
X550061Y636100D01*
X550000Y635981D01*
X549932Y635865D01*
X549921Y635826D01*
X549902Y635790D01*
X549870Y635660D01*
X549830Y635532D01*
X549828Y635491D01*
X549818Y635451D01*
X549816Y635317D01*
X549807Y635184D01*
X549813Y635144D01*
X549813Y635103D01*
X549841Y634972D01*
X549863Y634840D01*
X549878Y634802D01*
X549887Y634762D01*
X549944Y634642D01*
X549996Y634518D01*
X550019Y634484D01*
X550037Y634448D01*
X550120Y634343D01*
X550198Y634234D01*
X550229Y634207D01*
X550254Y634175D01*
X550359Y634093D01*
X550460Y634004D01*
X550496Y633985D01*
X550528Y633959D01*
X550746Y633848D01*
X553151Y632852D01*
X556652Y629351D01*
X558547Y624776D01*
X558547Y619824D01*
X556652Y615249D01*
X553151Y611748D01*
X551362Y611007D01*
X551274Y610958D01*
X551182Y610918D01*
X551122Y610874D01*
X551057Y610838D01*
X550983Y610771D01*
X550902Y610711D01*
X550854Y610654D01*
X550799Y610604D01*
X550742Y610521D01*
X550677Y610445D01*
X550643Y610378D01*
X550601Y610317D01*
X550564Y610224D01*
X550518Y610134D01*
X550500Y610062D01*
X550473Y609993D01*
X550458Y609894D01*
X550434Y609796D01*
X550433Y609722D01*
X550422Y609648D01*
X550431Y609548D01*
X550429Y609448D01*
X550445Y609375D01*
X550451Y609301D01*
X550482Y609205D01*
X550503Y609107D01*
X550535Y609040D01*
X550558Y608969D01*
X550610Y608883D01*
X550653Y608792D01*
X550700Y608734D01*
X550738Y608671D01*
X550808Y608599D01*
X550871Y608520D01*
X550929Y608474D01*
X550981Y608421D01*
X551065Y608366D01*
X551144Y608304D01*
X551234Y608258D01*
X551274Y608232D01*
X551308Y608220D01*
X551362Y608193D01*
X553151Y607452D01*
X556652Y603951D01*
X558547Y599376D01*
X558547Y594424D01*
X556652Y589849D01*
X553151Y586348D01*
X551362Y585607D01*
X551274Y585558D01*
X551182Y585518D01*
X551122Y585474D01*
X551057Y585438D01*
X550983Y585371D01*
X550902Y585311D01*
X550854Y585254D01*
X550799Y585204D01*
X550742Y585121D01*
X550677Y585045D01*
X550643Y584978D01*
X550601Y584917D01*
X550564Y584824D01*
X550518Y584734D01*
X550500Y584662D01*
X550473Y584593D01*
X550458Y584494D01*
X550434Y584396D01*
X550433Y584322D01*
X550422Y584248D01*
X550431Y584148D01*
X550429Y584048D01*
X550445Y583975D01*
X550451Y583901D01*
X550482Y583805D01*
X550503Y583707D01*
X550535Y583640D01*
X550558Y583569D01*
X550610Y583483D01*
X550653Y583392D01*
X550700Y583334D01*
X550738Y583271D01*
X550808Y583199D01*
X550871Y583120D01*
X550929Y583074D01*
X550981Y583021D01*
X551065Y582966D01*
X551144Y582904D01*
X551234Y582858D01*
X551274Y582832D01*
X551308Y582820D01*
X551362Y582793D01*
X553151Y582052D01*
X556652Y578551D01*
X558547Y573976D01*
X558547Y569024D01*
X556652Y564449D01*
X553151Y560948D01*
X551362Y560207D01*
X551274Y560158D01*
X551182Y560118D01*
X551122Y560074D01*
X551057Y560038D01*
X550983Y559971D01*
X550902Y559911D01*
X550854Y559854D01*
X550799Y559804D01*
X550742Y559721D01*
X550677Y559645D01*
X550643Y559578D01*
X550601Y559517D01*
X550564Y559424D01*
X550518Y559334D01*
X550500Y559262D01*
X550473Y559193D01*
X550458Y559094D01*
X550434Y558996D01*
X550433Y558922D01*
X550422Y558848D01*
X550431Y558748D01*
X550429Y558648D01*
X550445Y558575D01*
X550451Y558501D01*
X550482Y558405D01*
X550503Y558307D01*
X550535Y558240D01*
X550558Y558169D01*
X550610Y558083D01*
X550653Y557992D01*
X550700Y557934D01*
X550738Y557871D01*
X550808Y557799D01*
X550871Y557720D01*
X550929Y557674D01*
X550981Y557621D01*
X551065Y557566D01*
X551144Y557504D01*
X551234Y557458D01*
X551274Y557432D01*
X551308Y557420D01*
X551362Y557393D01*
X553151Y556652D01*
X556652Y553151D01*
X558547Y548576D01*
X558547Y543624D01*
X556652Y539049D01*
X553151Y535548D01*
X551362Y534807D01*
X551274Y534758D01*
X551182Y534718D01*
X551122Y534674D01*
X551057Y534638D01*
X550983Y534571D01*
X550902Y534511D01*
X550854Y534454D01*
X550799Y534404D01*
X550742Y534321D01*
X550677Y534245D01*
X550643Y534178D01*
X550601Y534117D01*
X550564Y534024D01*
X550518Y533934D01*
X550500Y533862D01*
X550473Y533793D01*
X550458Y533694D01*
X550434Y533596D01*
X550433Y533522D01*
X550422Y533448D01*
X550431Y533348D01*
X550429Y533248D01*
X550445Y533175D01*
X550451Y533101D01*
X550482Y533005D01*
X550503Y532907D01*
X550535Y532840D01*
X550558Y532769D01*
X550610Y532683D01*
X550653Y532592D01*
X550700Y532534D01*
X550738Y532471D01*
X550808Y532399D01*
X550871Y532320D01*
X550929Y532274D01*
X550981Y532221D01*
X551065Y532166D01*
X551144Y532104D01*
X551234Y532058D01*
X551274Y532032D01*
X551308Y532020D01*
X551362Y531993D01*
X553151Y531252D01*
X556652Y527751D01*
X558547Y523176D01*
X558547Y518224D01*
X556652Y513649D01*
X553151Y510148D01*
X551362Y509407D01*
X551274Y509358D01*
X551182Y509318D01*
X551122Y509274D01*
X551057Y509238D01*
X550983Y509171D01*
X550902Y509111D01*
X550854Y509054D01*
X550799Y509004D01*
X550742Y508921D01*
X550677Y508845D01*
X550643Y508778D01*
X550601Y508717D01*
X550564Y508624D01*
X550518Y508534D01*
X550500Y508462D01*
X550473Y508393D01*
X550458Y508294D01*
X550434Y508196D01*
X550433Y508122D01*
X550422Y508048D01*
X550431Y507948D01*
X550429Y507848D01*
X550445Y507775D01*
X550451Y507701D01*
X550482Y507605D01*
X550503Y507507D01*
X550535Y507440D01*
X550558Y507369D01*
X550610Y507283D01*
X550653Y507192D01*
X550700Y507134D01*
X550738Y507071D01*
X550808Y506999D01*
X550871Y506920D01*
X550929Y506874D01*
X550981Y506821D01*
X551065Y506766D01*
X551144Y506704D01*
X551234Y506658D01*
X551274Y506632D01*
X551308Y506620D01*
X551362Y506593D01*
X553151Y505852D01*
X556652Y502351D01*
X558547Y497776D01*
X558547Y492824D01*
X556652Y488249D01*
X553151Y484748D01*
X551362Y484007D01*
X551274Y483958D01*
X551182Y483918D01*
X551122Y483874D01*
X551057Y483838D01*
X550983Y483771D01*
X550902Y483711D01*
X550854Y483654D01*
X550799Y483604D01*
X550742Y483521D01*
X550677Y483445D01*
X550643Y483378D01*
X550601Y483317D01*
X550564Y483224D01*
X550518Y483134D01*
X550500Y483062D01*
X550473Y482993D01*
X550458Y482894D01*
X550434Y482796D01*
X550433Y482722D01*
X550422Y482648D01*
X550431Y482548D01*
X550429Y482448D01*
X550445Y482375D01*
X550451Y482301D01*
X550482Y482205D01*
X550503Y482107D01*
X550535Y482040D01*
X550558Y481969D01*
X550610Y481883D01*
X550653Y481792D01*
X550700Y481734D01*
X550738Y481671D01*
X550808Y481599D01*
X550871Y481520D01*
X550929Y481474D01*
X550981Y481421D01*
X551065Y481366D01*
X551144Y481304D01*
X551234Y481258D01*
X551274Y481232D01*
X551308Y481220D01*
X551362Y481193D01*
X553151Y480452D01*
X556652Y476951D01*
X558547Y472376D01*
X558547Y467424D01*
X556652Y462849D01*
X553151Y459348D01*
X551362Y458607D01*
X551274Y458558D01*
X551182Y458518D01*
X551122Y458474D01*
X551057Y458438D01*
X550983Y458371D01*
X550902Y458311D01*
X550854Y458254D01*
X550799Y458204D01*
X550742Y458121D01*
X550677Y458045D01*
X550643Y457978D01*
X550601Y457917D01*
X550564Y457824D01*
X550518Y457734D01*
X550500Y457662D01*
X550473Y457593D01*
X550458Y457494D01*
X550434Y457396D01*
X550433Y457322D01*
X550422Y457248D01*
X550431Y457148D01*
X550429Y457048D01*
X550445Y456975D01*
X550451Y456901D01*
X550482Y456805D01*
X550503Y456707D01*
X550535Y456640D01*
X550558Y456569D01*
X550610Y456483D01*
X550653Y456392D01*
X550700Y456334D01*
X550738Y456271D01*
X550808Y456199D01*
X550871Y456120D01*
X550929Y456074D01*
X550981Y456021D01*
X551065Y455966D01*
X551144Y455904D01*
X551234Y455858D01*
X551274Y455832D01*
X551308Y455820D01*
X551362Y455793D01*
X553151Y455052D01*
X556652Y451551D01*
X558547Y446976D01*
X558547Y442024D01*
X556652Y437449D01*
X553151Y433948D01*
X551362Y433207D01*
X551274Y433158D01*
X551182Y433118D01*
X551122Y433074D01*
X551057Y433038D01*
X550983Y432971D01*
X550902Y432911D01*
X550854Y432854D01*
X550799Y432804D01*
X550742Y432721D01*
X550677Y432645D01*
X550643Y432578D01*
X550601Y432517D01*
X550564Y432424D01*
X550518Y432334D01*
X550500Y432262D01*
X550473Y432193D01*
X550458Y432094D01*
X550434Y431996D01*
X550433Y431922D01*
X550422Y431848D01*
X550431Y431748D01*
X550429Y431648D01*
X550445Y431575D01*
X550451Y431501D01*
X550482Y431405D01*
X550503Y431307D01*
X550535Y431240D01*
X550558Y431169D01*
X550610Y431083D01*
X550653Y430992D01*
X550700Y430934D01*
X550738Y430871D01*
X550808Y430799D01*
X550871Y430720D01*
X550929Y430674D01*
X550981Y430621D01*
X551065Y430566D01*
X551144Y430504D01*
X551234Y430458D01*
X551274Y430432D01*
X551308Y430420D01*
X551362Y430393D01*
X553151Y429652D01*
X556652Y426151D01*
X558547Y421576D01*
X558547Y416624D01*
X556652Y412049D01*
X553151Y408548D01*
X551362Y407807D01*
X551274Y407758D01*
X551182Y407718D01*
X551122Y407674D01*
X551057Y407638D01*
X550983Y407571D01*
X550902Y407511D01*
X550854Y407454D01*
X550799Y407404D01*
X550742Y407321D01*
X550677Y407245D01*
X550643Y407178D01*
X550601Y407117D01*
X550564Y407024D01*
X550518Y406934D01*
X550500Y406862D01*
X550473Y406793D01*
X550458Y406694D01*
X550434Y406596D01*
X550433Y406522D01*
X550422Y406448D01*
X550431Y406348D01*
X550429Y406248D01*
X550445Y406175D01*
X550451Y406101D01*
X550482Y406005D01*
X550503Y405907D01*
X550535Y405840D01*
X550558Y405769D01*
X550610Y405683D01*
X550653Y405592D01*
X550700Y405534D01*
X550738Y405471D01*
X550808Y405399D01*
X550871Y405320D01*
X550929Y405274D01*
X550981Y405221D01*
X551065Y405166D01*
X551144Y405104D01*
X551234Y405058D01*
X551274Y405032D01*
X551308Y405020D01*
X551362Y404993D01*
X553151Y404252D01*
X556652Y400751D01*
X558547Y396176D01*
X558547Y391224D01*
X556652Y386649D01*
X553151Y383148D01*
X548576Y381253D01*
X543624Y381253D01*
X542087Y381890D01*
X542013Y381911D01*
X541943Y381941D01*
X541846Y381959D01*
X541752Y381986D01*
X541675Y381990D01*
X541600Y382003D01*
X541502Y381998D01*
X541404Y382003D01*
X541328Y381989D01*
X541252Y381985D01*
X541158Y381958D01*
X541061Y381940D01*
X540991Y381910D01*
X540917Y381889D01*
X540831Y381841D01*
X540741Y381801D01*
X540680Y381756D01*
X540613Y381718D01*
X540499Y381622D01*
X540461Y381593D01*
X540449Y381579D01*
X540427Y381560D01*
X523290Y364423D01*
X521610Y363727D01*
X363086Y363727D01*
X362961Y363713D01*
X362834Y363706D01*
X362788Y363693D01*
X362740Y363687D01*
X362621Y363645D01*
X362499Y363610D01*
X362457Y363586D01*
X362412Y363570D01*
X362306Y363501D01*
X362195Y363440D01*
X362149Y363400D01*
X362119Y363381D01*
X362085Y363346D01*
X362009Y363281D01*
X360177Y361450D01*
X357207Y360219D01*
X353993Y360219D01*
G37*
%LPD*%
%LPC*%
G36*
X124625Y318261D02*
X124625Y318261D01*
X120237Y320079D01*
X116879Y323437D01*
X115061Y327825D01*
X115061Y332575D01*
X116879Y336963D01*
X120237Y340321D01*
X121487Y340839D01*
X121519Y340857D01*
X121538Y340863D01*
X121563Y340879D01*
X121625Y340904D01*
X121705Y340960D01*
X121792Y341008D01*
X121848Y341059D01*
X121911Y341103D01*
X121977Y341176D01*
X122050Y341242D01*
X122093Y341305D01*
X122144Y341362D01*
X122192Y341448D01*
X122248Y341529D01*
X122276Y341600D01*
X122313Y341667D01*
X122340Y341762D01*
X122376Y341853D01*
X122387Y341929D01*
X122408Y342002D01*
X122420Y342151D01*
X122427Y342198D01*
X122425Y342217D01*
X122427Y342246D01*
X122427Y378475D01*
X122413Y378601D01*
X122406Y378727D01*
X122393Y378773D01*
X122387Y378821D01*
X122345Y378940D01*
X122310Y379062D01*
X122286Y379104D01*
X122270Y379149D01*
X122201Y379256D01*
X122140Y379366D01*
X122100Y379412D01*
X122081Y379442D01*
X122046Y379476D01*
X121981Y379552D01*
X64887Y436646D01*
X64848Y436677D01*
X64814Y436715D01*
X64711Y436786D01*
X64614Y436863D01*
X64568Y436884D01*
X64527Y436913D01*
X64411Y436959D01*
X64299Y437012D01*
X64250Y437022D01*
X64203Y437041D01*
X64079Y437059D01*
X63958Y437085D01*
X63908Y437084D01*
X63858Y437092D01*
X63734Y437081D01*
X63610Y437079D01*
X63561Y437067D01*
X63511Y437063D01*
X63393Y437024D01*
X63272Y436994D01*
X63227Y436971D01*
X63179Y436956D01*
X63073Y436891D01*
X62962Y436834D01*
X62924Y436802D01*
X62880Y436776D01*
X62791Y436689D01*
X62697Y436609D01*
X62667Y436568D01*
X62630Y436533D01*
X62563Y436428D01*
X62489Y436328D01*
X62469Y436282D01*
X62442Y436240D01*
X62401Y436122D01*
X62351Y436008D01*
X62342Y435959D01*
X62326Y435911D01*
X62312Y435788D01*
X62290Y435665D01*
X62292Y435615D01*
X62287Y435565D01*
X62301Y435441D01*
X62308Y435317D01*
X62322Y435269D01*
X62327Y435219D01*
X62403Y434986D01*
X62739Y434175D01*
X62739Y429425D01*
X60921Y425037D01*
X57563Y421679D01*
X53994Y420201D01*
X53854Y420123D01*
X53713Y420048D01*
X53702Y420038D01*
X53690Y420031D01*
X53571Y419924D01*
X53451Y419819D01*
X53442Y419807D01*
X53431Y419797D01*
X53340Y419666D01*
X53247Y419536D01*
X53241Y419522D01*
X53233Y419511D01*
X53175Y419362D01*
X53113Y419214D01*
X53111Y419200D01*
X53105Y419186D01*
X53082Y419029D01*
X53056Y418870D01*
X53057Y418856D01*
X53055Y418842D01*
X53068Y418682D01*
X53078Y418523D01*
X53082Y418509D01*
X53083Y418494D01*
X53133Y418342D01*
X53179Y418189D01*
X53186Y418176D01*
X53191Y418163D01*
X53273Y418026D01*
X53353Y417887D01*
X53363Y417876D01*
X53370Y417864D01*
X53482Y417749D01*
X53591Y417632D01*
X53603Y417624D01*
X53613Y417614D01*
X53748Y417527D01*
X53881Y417439D01*
X53896Y417432D01*
X53906Y417426D01*
X53943Y417413D01*
X54106Y417345D01*
X55188Y416993D01*
X56791Y416176D01*
X58247Y415119D01*
X59519Y413847D01*
X60576Y412391D01*
X61393Y410788D01*
X61949Y409077D01*
X62021Y408622D01*
X51499Y408622D01*
X51473Y408619D01*
X51446Y408621D01*
X51300Y408599D01*
X51152Y408582D01*
X51128Y408573D01*
X51102Y408569D01*
X50964Y408514D01*
X50824Y408464D01*
X50802Y408450D01*
X50795Y408447D01*
X50728Y408487D01*
X50703Y408495D01*
X50680Y408507D01*
X50538Y408548D01*
X50396Y408593D01*
X50370Y408595D01*
X50345Y408602D01*
X50101Y408622D01*
X39579Y408622D01*
X39651Y409077D01*
X40207Y410788D01*
X41024Y412391D01*
X42081Y413847D01*
X43353Y415119D01*
X44809Y416176D01*
X46412Y416993D01*
X47494Y417345D01*
X47639Y417411D01*
X47786Y417475D01*
X47797Y417483D01*
X47811Y417490D01*
X47938Y417588D01*
X48065Y417683D01*
X48075Y417694D01*
X48086Y417703D01*
X48188Y417827D01*
X48291Y417949D01*
X48297Y417962D01*
X48306Y417973D01*
X48377Y418117D01*
X48449Y418259D01*
X48453Y418273D01*
X48459Y418286D01*
X48495Y418442D01*
X48534Y418597D01*
X48534Y418612D01*
X48537Y418626D01*
X48536Y418786D01*
X48539Y418946D01*
X48535Y418960D01*
X48535Y418974D01*
X48498Y419130D01*
X48464Y419286D01*
X48458Y419299D01*
X48455Y419313D01*
X48383Y419456D01*
X48315Y419601D01*
X48305Y419612D01*
X48299Y419625D01*
X48197Y419748D01*
X48097Y419873D01*
X48086Y419882D01*
X48077Y419893D01*
X47950Y419990D01*
X47824Y420089D01*
X47808Y420097D01*
X47799Y420104D01*
X47764Y420120D01*
X47606Y420201D01*
X44037Y421679D01*
X40679Y425037D01*
X38861Y429425D01*
X38861Y434175D01*
X40679Y438563D01*
X44037Y441921D01*
X46866Y443093D01*
X46953Y443141D01*
X47046Y443181D01*
X47105Y443226D01*
X47170Y443262D01*
X47245Y443329D01*
X47325Y443389D01*
X47373Y443446D01*
X47428Y443496D01*
X47485Y443579D01*
X47550Y443655D01*
X47584Y443722D01*
X47627Y443783D01*
X47663Y443876D01*
X47709Y443966D01*
X47727Y444038D01*
X47754Y444107D01*
X47769Y444207D01*
X47793Y444304D01*
X47794Y444378D01*
X47805Y444452D01*
X47797Y444552D01*
X47798Y444652D01*
X47782Y444725D01*
X47776Y444799D01*
X47745Y444895D01*
X47724Y444993D01*
X47692Y445060D01*
X47669Y445131D01*
X47617Y445217D01*
X47574Y445308D01*
X47528Y445366D01*
X47490Y445429D01*
X47419Y445502D01*
X47357Y445580D01*
X47299Y445626D01*
X47247Y445679D01*
X47162Y445734D01*
X47083Y445796D01*
X46994Y445842D01*
X46953Y445868D01*
X46920Y445880D01*
X46866Y445907D01*
X44037Y447079D01*
X40679Y450437D01*
X38861Y454825D01*
X38861Y459575D01*
X40679Y463963D01*
X44037Y467321D01*
X45287Y467839D01*
X45354Y467876D01*
X45425Y467904D01*
X45505Y467960D01*
X45592Y468008D01*
X45648Y468060D01*
X45711Y468103D01*
X45777Y468176D01*
X45850Y468242D01*
X45893Y468305D01*
X45944Y468362D01*
X45992Y468448D01*
X46048Y468529D01*
X46076Y468600D01*
X46113Y468667D01*
X46140Y468762D01*
X46176Y468853D01*
X46187Y468929D01*
X46208Y469002D01*
X46220Y469151D01*
X46227Y469198D01*
X46225Y469217D01*
X46227Y469246D01*
X46227Y559710D01*
X46923Y561390D01*
X86310Y600777D01*
X87990Y601473D01*
X424314Y601473D01*
X424439Y601487D01*
X424566Y601494D01*
X424612Y601507D01*
X424660Y601513D01*
X424779Y601555D01*
X424901Y601590D01*
X424943Y601614D01*
X424988Y601630D01*
X425094Y601699D01*
X425205Y601760D01*
X425251Y601800D01*
X425281Y601819D01*
X425315Y601854D01*
X425391Y601919D01*
X427223Y603750D01*
X430193Y604981D01*
X433407Y604981D01*
X436377Y603750D01*
X438209Y601919D01*
X438308Y601840D01*
X438402Y601756D01*
X438444Y601732D01*
X438482Y601702D01*
X438596Y601648D01*
X438707Y601587D01*
X438753Y601574D01*
X438797Y601553D01*
X438920Y601527D01*
X439042Y601492D01*
X439103Y601487D01*
X439138Y601480D01*
X439186Y601481D01*
X439286Y601473D01*
X487814Y601473D01*
X487939Y601487D01*
X488066Y601494D01*
X488112Y601507D01*
X488160Y601513D01*
X488279Y601555D01*
X488401Y601590D01*
X488443Y601614D01*
X488488Y601630D01*
X488594Y601699D01*
X488705Y601760D01*
X488751Y601800D01*
X488781Y601819D01*
X488815Y601854D01*
X488891Y601919D01*
X490723Y603750D01*
X493693Y604981D01*
X496907Y604981D01*
X499877Y603750D01*
X502150Y601477D01*
X503381Y598507D01*
X503381Y595293D01*
X502150Y592323D01*
X499877Y590050D01*
X496907Y588819D01*
X493693Y588819D01*
X490723Y590050D01*
X488891Y591881D01*
X488792Y591960D01*
X488698Y592044D01*
X488656Y592068D01*
X488618Y592098D01*
X488504Y592152D01*
X488393Y592213D01*
X488347Y592226D01*
X488303Y592247D01*
X488180Y592273D01*
X488058Y592308D01*
X487997Y592313D01*
X487962Y592320D01*
X487914Y592319D01*
X487814Y592327D01*
X439286Y592327D01*
X439161Y592313D01*
X439034Y592306D01*
X438988Y592293D01*
X438940Y592287D01*
X438821Y592245D01*
X438699Y592210D01*
X438657Y592186D01*
X438612Y592170D01*
X438506Y592101D01*
X438395Y592040D01*
X438349Y592000D01*
X438319Y591981D01*
X438285Y591946D01*
X438209Y591881D01*
X436377Y590050D01*
X433407Y588819D01*
X430193Y588819D01*
X427223Y590050D01*
X425391Y591881D01*
X425292Y591960D01*
X425198Y592044D01*
X425156Y592068D01*
X425118Y592098D01*
X425004Y592152D01*
X424893Y592213D01*
X424847Y592226D01*
X424803Y592247D01*
X424680Y592273D01*
X424558Y592308D01*
X424497Y592313D01*
X424462Y592320D01*
X424414Y592319D01*
X424314Y592327D01*
X91425Y592327D01*
X91299Y592313D01*
X91173Y592306D01*
X91127Y592293D01*
X91079Y592287D01*
X90960Y592245D01*
X90838Y592210D01*
X90796Y592186D01*
X90751Y592170D01*
X90644Y592101D01*
X90534Y592040D01*
X90488Y592000D01*
X90458Y591981D01*
X90424Y591946D01*
X90348Y591881D01*
X55819Y557352D01*
X55740Y557253D01*
X55656Y557159D01*
X55632Y557117D01*
X55602Y557079D01*
X55548Y556965D01*
X55487Y556854D01*
X55474Y556808D01*
X55453Y556764D01*
X55427Y556641D01*
X55392Y556519D01*
X55387Y556458D01*
X55380Y556423D01*
X55381Y556375D01*
X55373Y556275D01*
X55373Y469246D01*
X55381Y469170D01*
X55380Y469094D01*
X55401Y468998D01*
X55413Y468900D01*
X55438Y468828D01*
X55455Y468753D01*
X55497Y468664D01*
X55530Y468572D01*
X55572Y468508D01*
X55604Y468439D01*
X55666Y468362D01*
X55719Y468279D01*
X55774Y468226D01*
X55822Y468166D01*
X55899Y468105D01*
X55970Y468037D01*
X56035Y467998D01*
X56095Y467950D01*
X56229Y467882D01*
X56269Y467858D01*
X56287Y467852D01*
X56313Y467839D01*
X57563Y467321D01*
X60921Y463963D01*
X62739Y459575D01*
X62739Y454825D01*
X62221Y453576D01*
X62200Y453502D01*
X62170Y453432D01*
X62152Y453335D01*
X62125Y453240D01*
X62122Y453164D01*
X62108Y453089D01*
X62113Y452991D01*
X62108Y452892D01*
X62122Y452817D01*
X62126Y452741D01*
X62153Y452646D01*
X62171Y452550D01*
X62201Y452479D01*
X62223Y452406D01*
X62271Y452320D01*
X62310Y452230D01*
X62355Y452169D01*
X62393Y452102D01*
X62490Y451988D01*
X62518Y451950D01*
X62532Y451938D01*
X62551Y451916D01*
X130877Y383590D01*
X131573Y381910D01*
X131573Y342246D01*
X131581Y342170D01*
X131580Y342094D01*
X131601Y341997D01*
X131613Y341900D01*
X131638Y341828D01*
X131655Y341753D01*
X131697Y341664D01*
X131730Y341572D01*
X131772Y341507D01*
X131804Y341439D01*
X131866Y341362D01*
X131919Y341279D01*
X131974Y341226D01*
X132022Y341166D01*
X132099Y341105D01*
X132170Y341037D01*
X132235Y340998D01*
X132295Y340950D01*
X132428Y340882D01*
X132469Y340858D01*
X132487Y340852D01*
X132513Y340839D01*
X133763Y340321D01*
X137121Y336963D01*
X138293Y334134D01*
X138341Y334047D01*
X138382Y333954D01*
X138426Y333895D01*
X138462Y333830D01*
X138529Y333755D01*
X138589Y333675D01*
X138646Y333627D01*
X138696Y333572D01*
X138779Y333514D01*
X138855Y333450D01*
X138922Y333416D01*
X138983Y333373D01*
X139076Y333337D01*
X139166Y333291D01*
X139238Y333273D01*
X139307Y333246D01*
X139406Y333231D01*
X139504Y333207D01*
X139578Y333206D01*
X139652Y333195D01*
X139752Y333203D01*
X139852Y333202D01*
X139925Y333218D01*
X139999Y333224D01*
X140095Y333255D01*
X140193Y333276D01*
X140260Y333308D01*
X140331Y333331D01*
X140417Y333383D01*
X140508Y333426D01*
X140566Y333472D01*
X140629Y333510D01*
X140702Y333581D01*
X140780Y333643D01*
X140826Y333701D01*
X140879Y333753D01*
X140934Y333838D01*
X140996Y333917D01*
X141042Y334006D01*
X141068Y334047D01*
X141080Y334080D01*
X141107Y334134D01*
X142279Y336963D01*
X145637Y340321D01*
X150025Y342139D01*
X154775Y342139D01*
X159163Y340321D01*
X162521Y336963D01*
X163999Y333394D01*
X164077Y333254D01*
X164152Y333113D01*
X164162Y333102D01*
X164169Y333090D01*
X164276Y332971D01*
X164381Y332851D01*
X164393Y332842D01*
X164403Y332831D01*
X164533Y332741D01*
X164664Y332647D01*
X164678Y332641D01*
X164689Y332633D01*
X164837Y332575D01*
X164986Y332513D01*
X165000Y332511D01*
X165014Y332505D01*
X165172Y332482D01*
X165330Y332456D01*
X165344Y332457D01*
X165358Y332455D01*
X165518Y332468D01*
X165677Y332478D01*
X165691Y332482D01*
X165706Y332483D01*
X165858Y332533D01*
X166011Y332579D01*
X166024Y332586D01*
X166037Y332591D01*
X166174Y332673D01*
X166313Y332753D01*
X166324Y332763D01*
X166336Y332770D01*
X166451Y332882D01*
X166568Y332991D01*
X166576Y333003D01*
X166586Y333013D01*
X166673Y333148D01*
X166761Y333281D01*
X166768Y333297D01*
X166774Y333306D01*
X166787Y333343D01*
X166855Y333506D01*
X167207Y334588D01*
X168024Y336191D01*
X169081Y337647D01*
X170353Y338919D01*
X171809Y339976D01*
X173412Y340793D01*
X175123Y341349D01*
X175578Y341421D01*
X175578Y330899D01*
X175581Y330873D01*
X175579Y330846D01*
X175601Y330700D01*
X175618Y330552D01*
X175627Y330528D01*
X175631Y330502D01*
X175686Y330364D01*
X175736Y330224D01*
X175750Y330202D01*
X175753Y330195D01*
X175713Y330128D01*
X175705Y330103D01*
X175693Y330080D01*
X175652Y329938D01*
X175607Y329796D01*
X175605Y329770D01*
X175598Y329745D01*
X175578Y329501D01*
X175578Y318979D01*
X175123Y319051D01*
X173412Y319607D01*
X171809Y320424D01*
X170353Y321481D01*
X169081Y322753D01*
X168024Y324209D01*
X167207Y325812D01*
X166855Y326894D01*
X166789Y327038D01*
X166725Y327186D01*
X166716Y327197D01*
X166710Y327211D01*
X166613Y327337D01*
X166517Y327465D01*
X166506Y327475D01*
X166497Y327486D01*
X166373Y327588D01*
X166251Y327691D01*
X166238Y327697D01*
X166227Y327706D01*
X166083Y327777D01*
X165941Y327849D01*
X165927Y327853D01*
X165914Y327859D01*
X165757Y327895D01*
X165603Y327934D01*
X165588Y327934D01*
X165574Y327937D01*
X165414Y327936D01*
X165254Y327939D01*
X165240Y327935D01*
X165226Y327935D01*
X165070Y327898D01*
X164914Y327864D01*
X164901Y327858D01*
X164887Y327855D01*
X164743Y327783D01*
X164599Y327715D01*
X164588Y327706D01*
X164575Y327699D01*
X164451Y327596D01*
X164327Y327497D01*
X164318Y327486D01*
X164306Y327476D01*
X164210Y327349D01*
X164111Y327224D01*
X164103Y327208D01*
X164096Y327199D01*
X164080Y327164D01*
X163999Y327006D01*
X162521Y323437D01*
X159163Y320079D01*
X154775Y318261D01*
X150025Y318261D01*
X145637Y320079D01*
X142279Y323437D01*
X141107Y326266D01*
X141059Y326353D01*
X141019Y326446D01*
X140974Y326505D01*
X140938Y326570D01*
X140871Y326645D01*
X140811Y326725D01*
X140754Y326773D01*
X140704Y326828D01*
X140621Y326885D01*
X140545Y326950D01*
X140478Y326984D01*
X140417Y327027D01*
X140324Y327063D01*
X140234Y327109D01*
X140162Y327127D01*
X140093Y327154D01*
X139993Y327169D01*
X139896Y327193D01*
X139822Y327194D01*
X139748Y327205D01*
X139648Y327197D01*
X139548Y327198D01*
X139475Y327182D01*
X139401Y327176D01*
X139305Y327145D01*
X139207Y327124D01*
X139140Y327092D01*
X139069Y327069D01*
X138983Y327017D01*
X138892Y326974D01*
X138834Y326928D01*
X138771Y326890D01*
X138698Y326819D01*
X138620Y326757D01*
X138574Y326699D01*
X138521Y326647D01*
X138466Y326562D01*
X138404Y326483D01*
X138358Y326394D01*
X138332Y326353D01*
X138320Y326320D01*
X138293Y326266D01*
X137121Y323437D01*
X133763Y320079D01*
X129375Y318261D01*
X124625Y318261D01*
G37*
%LPD*%
%LPC*%
G36*
X34919Y13939D02*
X34919Y13939D01*
X28774Y15586D01*
X23265Y18767D01*
X18767Y23265D01*
X15586Y28774D01*
X13939Y34919D01*
X13939Y41281D01*
X15586Y47426D01*
X18767Y52935D01*
X23265Y57433D01*
X28774Y60614D01*
X34919Y62261D01*
X41281Y62261D01*
X47426Y60614D01*
X52935Y57433D01*
X57433Y52935D01*
X60614Y47426D01*
X62261Y41281D01*
X62261Y34919D01*
X60614Y28774D01*
X57433Y23265D01*
X52935Y18767D01*
X47426Y15586D01*
X41281Y13939D01*
X34919Y13939D01*
G37*
%LPD*%
%LPC*%
G36*
X747693Y334819D02*
X747693Y334819D01*
X744723Y336050D01*
X742450Y338323D01*
X741219Y341293D01*
X741219Y344507D01*
X742450Y347477D01*
X744281Y349309D01*
X744360Y349408D01*
X744444Y349502D01*
X744468Y349544D01*
X744498Y349582D01*
X744552Y349696D01*
X744613Y349807D01*
X744626Y349853D01*
X744647Y349897D01*
X744673Y350020D01*
X744708Y350142D01*
X744713Y350203D01*
X744720Y350238D01*
X744719Y350286D01*
X744727Y350386D01*
X744727Y399690D01*
X745423Y401370D01*
X789033Y444980D01*
X789112Y445079D01*
X789196Y445173D01*
X789220Y445215D01*
X789250Y445253D01*
X789304Y445367D01*
X789365Y445478D01*
X789378Y445524D01*
X789399Y445568D01*
X789425Y445691D01*
X789460Y445813D01*
X789465Y445874D01*
X789472Y445909D01*
X789471Y445957D01*
X789479Y446057D01*
X789479Y448647D01*
X790710Y451617D01*
X792983Y453890D01*
X795953Y455121D01*
X799167Y455121D01*
X802137Y453890D01*
X804410Y451617D01*
X805641Y448647D01*
X805641Y445433D01*
X804410Y442463D01*
X802137Y440190D01*
X799167Y438959D01*
X796577Y438959D01*
X796451Y438945D01*
X796325Y438938D01*
X796279Y438925D01*
X796231Y438919D01*
X796112Y438877D01*
X795990Y438842D01*
X795948Y438818D01*
X795903Y438802D01*
X795796Y438733D01*
X795686Y438672D01*
X795640Y438632D01*
X795610Y438613D01*
X795576Y438578D01*
X795500Y438513D01*
X754319Y397332D01*
X754240Y397233D01*
X754156Y397139D01*
X754132Y397097D01*
X754102Y397059D01*
X754048Y396945D01*
X753987Y396834D01*
X753974Y396788D01*
X753953Y396744D01*
X753927Y396621D01*
X753892Y396499D01*
X753887Y396438D01*
X753880Y396403D01*
X753881Y396355D01*
X753873Y396255D01*
X753873Y350386D01*
X753887Y350261D01*
X753894Y350134D01*
X753907Y350088D01*
X753913Y350040D01*
X753955Y349921D01*
X753990Y349799D01*
X754014Y349757D01*
X754030Y349712D01*
X754099Y349606D01*
X754160Y349495D01*
X754200Y349449D01*
X754219Y349419D01*
X754254Y349385D01*
X754319Y349309D01*
X756150Y347477D01*
X757381Y344507D01*
X757381Y341293D01*
X756150Y338323D01*
X753877Y336050D01*
X750907Y334819D01*
X747693Y334819D01*
G37*
%LPD*%
%LPC*%
G36*
X883106Y735651D02*
X883106Y735651D01*
X877942Y737790D01*
X873990Y741742D01*
X871851Y746906D01*
X871851Y752494D01*
X873990Y757658D01*
X876883Y760551D01*
X876945Y760629D01*
X877015Y760702D01*
X877053Y760766D01*
X877100Y760824D01*
X877143Y760915D01*
X877194Y761001D01*
X877217Y761072D01*
X877249Y761139D01*
X877270Y761237D01*
X877300Y761333D01*
X877306Y761407D01*
X877322Y761480D01*
X877320Y761580D01*
X877328Y761680D01*
X877317Y761754D01*
X877316Y761828D01*
X877291Y761925D01*
X877277Y762025D01*
X877249Y762094D01*
X877231Y762166D01*
X877185Y762255D01*
X877148Y762349D01*
X877105Y762410D01*
X877071Y762476D01*
X877006Y762552D01*
X876949Y762635D01*
X876894Y762685D01*
X876845Y762741D01*
X876765Y762801D01*
X876690Y762868D01*
X876625Y762904D01*
X876565Y762949D01*
X876473Y762988D01*
X876385Y763037D01*
X876313Y763057D01*
X876245Y763087D01*
X876146Y763104D01*
X876050Y763132D01*
X875950Y763140D01*
X875902Y763148D01*
X875866Y763146D01*
X875806Y763151D01*
X873603Y763151D01*
X869358Y764910D01*
X866110Y768158D01*
X864351Y772403D01*
X864351Y776997D01*
X866110Y781242D01*
X869358Y784490D01*
X873603Y786249D01*
X878197Y786249D01*
X882442Y784490D01*
X885690Y781242D01*
X887449Y776997D01*
X887449Y772403D01*
X885691Y768158D01*
X883881Y766349D01*
X883819Y766271D01*
X883749Y766198D01*
X883711Y766134D01*
X883665Y766076D01*
X883622Y765985D01*
X883570Y765899D01*
X883548Y765828D01*
X883516Y765761D01*
X883495Y765663D01*
X883464Y765567D01*
X883458Y765493D01*
X883443Y765420D01*
X883444Y765320D01*
X883436Y765220D01*
X883447Y765146D01*
X883449Y765072D01*
X883473Y764975D01*
X883488Y764875D01*
X883515Y764806D01*
X883534Y764734D01*
X883580Y764645D01*
X883617Y764551D01*
X883659Y764490D01*
X883693Y764424D01*
X883758Y764348D01*
X883816Y764265D01*
X883871Y764215D01*
X883919Y764159D01*
X884000Y764099D01*
X884074Y764032D01*
X884139Y763996D01*
X884199Y763951D01*
X884291Y763912D01*
X884379Y763863D01*
X884451Y763843D01*
X884519Y763813D01*
X884618Y763796D01*
X884715Y763768D01*
X884815Y763760D01*
X884862Y763752D01*
X884898Y763754D01*
X884959Y763749D01*
X888694Y763749D01*
X893858Y761610D01*
X897810Y757658D01*
X899949Y752494D01*
X899949Y746906D01*
X897810Y741742D01*
X893858Y737790D01*
X888694Y735651D01*
X883106Y735651D01*
G37*
%LPD*%
%LPC*%
G36*
X184606Y735651D02*
X184606Y735651D01*
X179442Y737790D01*
X175490Y741742D01*
X173351Y746906D01*
X173351Y752494D01*
X175490Y757658D01*
X178383Y760551D01*
X178445Y760629D01*
X178515Y760702D01*
X178553Y760766D01*
X178600Y760824D01*
X178643Y760915D01*
X178694Y761001D01*
X178717Y761072D01*
X178749Y761139D01*
X178770Y761237D01*
X178800Y761333D01*
X178806Y761407D01*
X178822Y761480D01*
X178820Y761580D01*
X178828Y761680D01*
X178817Y761754D01*
X178816Y761828D01*
X178791Y761925D01*
X178777Y762025D01*
X178749Y762094D01*
X178731Y762166D01*
X178685Y762255D01*
X178648Y762349D01*
X178605Y762410D01*
X178571Y762476D01*
X178506Y762552D01*
X178449Y762635D01*
X178394Y762685D01*
X178345Y762741D01*
X178265Y762801D01*
X178190Y762868D01*
X178125Y762904D01*
X178065Y762949D01*
X177973Y762988D01*
X177885Y763037D01*
X177813Y763057D01*
X177745Y763087D01*
X177646Y763104D01*
X177550Y763132D01*
X177450Y763140D01*
X177402Y763148D01*
X177366Y763146D01*
X177306Y763151D01*
X175103Y763151D01*
X170858Y764910D01*
X167610Y768158D01*
X165851Y772403D01*
X165851Y776997D01*
X167610Y781242D01*
X170858Y784490D01*
X175103Y786249D01*
X179697Y786249D01*
X183942Y784490D01*
X187190Y781242D01*
X188949Y776997D01*
X188949Y772403D01*
X187191Y768158D01*
X185381Y766349D01*
X185319Y766271D01*
X185249Y766198D01*
X185211Y766134D01*
X185165Y766076D01*
X185122Y765985D01*
X185070Y765899D01*
X185048Y765828D01*
X185016Y765761D01*
X184995Y765663D01*
X184964Y765567D01*
X184958Y765493D01*
X184943Y765420D01*
X184944Y765320D01*
X184936Y765220D01*
X184947Y765146D01*
X184949Y765072D01*
X184973Y764975D01*
X184988Y764875D01*
X185015Y764806D01*
X185034Y764734D01*
X185080Y764645D01*
X185117Y764551D01*
X185159Y764490D01*
X185193Y764424D01*
X185258Y764348D01*
X185316Y764265D01*
X185371Y764215D01*
X185419Y764159D01*
X185500Y764099D01*
X185574Y764032D01*
X185639Y763996D01*
X185699Y763951D01*
X185791Y763912D01*
X185879Y763863D01*
X185951Y763843D01*
X186019Y763813D01*
X186118Y763796D01*
X186215Y763768D01*
X186315Y763760D01*
X186362Y763752D01*
X186398Y763754D01*
X186459Y763749D01*
X190194Y763749D01*
X195358Y761610D01*
X199310Y757658D01*
X201449Y752494D01*
X201449Y746906D01*
X199310Y741742D01*
X195358Y737790D01*
X190194Y735651D01*
X184606Y735651D01*
G37*
%LPD*%
%LPC*%
G36*
X114606Y735651D02*
X114606Y735651D01*
X109442Y737790D01*
X105490Y741742D01*
X103351Y746906D01*
X103351Y752494D01*
X105490Y757658D01*
X109442Y761610D01*
X114606Y763749D01*
X118341Y763749D01*
X118441Y763760D01*
X118542Y763762D01*
X118614Y763780D01*
X118688Y763789D01*
X118782Y763822D01*
X118880Y763847D01*
X118946Y763881D01*
X119016Y763906D01*
X119100Y763961D01*
X119189Y764007D01*
X119246Y764055D01*
X119309Y764095D01*
X119378Y764167D01*
X119455Y764232D01*
X119499Y764292D01*
X119551Y764346D01*
X119602Y764432D01*
X119662Y764513D01*
X119691Y764581D01*
X119730Y764645D01*
X119760Y764741D01*
X119800Y764833D01*
X119813Y764906D01*
X119836Y764977D01*
X119844Y765077D01*
X119862Y765176D01*
X119858Y765250D01*
X119864Y765324D01*
X119849Y765424D01*
X119844Y765524D01*
X119823Y765595D01*
X119812Y765669D01*
X119775Y765762D01*
X119747Y765859D01*
X119711Y765924D01*
X119683Y765993D01*
X119626Y766075D01*
X119577Y766163D01*
X119512Y766239D01*
X119484Y766279D01*
X119458Y766303D01*
X119419Y766349D01*
X117609Y768158D01*
X115851Y772403D01*
X115851Y776997D01*
X117610Y781242D01*
X120858Y784490D01*
X125103Y786249D01*
X129697Y786249D01*
X133942Y784490D01*
X137190Y781242D01*
X138949Y776997D01*
X138949Y772403D01*
X137190Y768158D01*
X133942Y764910D01*
X129697Y763151D01*
X127494Y763151D01*
X127394Y763140D01*
X127294Y763138D01*
X127222Y763120D01*
X127148Y763111D01*
X127053Y763078D01*
X126956Y763053D01*
X126890Y763019D01*
X126820Y762994D01*
X126735Y762939D01*
X126646Y762893D01*
X126589Y762845D01*
X126527Y762805D01*
X126457Y762733D01*
X126381Y762668D01*
X126336Y762608D01*
X126285Y762554D01*
X126233Y762468D01*
X126174Y762387D01*
X126144Y762319D01*
X126106Y762255D01*
X126075Y762159D01*
X126036Y762067D01*
X126022Y761994D01*
X126000Y761923D01*
X125992Y761823D01*
X125974Y761724D01*
X125978Y761650D01*
X125972Y761576D01*
X125987Y761476D01*
X125992Y761376D01*
X126012Y761305D01*
X126023Y761231D01*
X126060Y761138D01*
X126088Y761041D01*
X126125Y760976D01*
X126152Y760907D01*
X126209Y760825D01*
X126258Y760737D01*
X126324Y760661D01*
X126351Y760621D01*
X126378Y760597D01*
X126417Y760551D01*
X129310Y757658D01*
X131449Y752494D01*
X131449Y746906D01*
X129310Y741742D01*
X125358Y737790D01*
X120194Y735651D01*
X114606Y735651D01*
G37*
%LPD*%
%LPC*%
G36*
X813106Y735651D02*
X813106Y735651D01*
X807942Y737790D01*
X803990Y741742D01*
X801851Y746906D01*
X801851Y752494D01*
X803990Y757658D01*
X807942Y761610D01*
X813106Y763749D01*
X816841Y763749D01*
X816941Y763760D01*
X817042Y763762D01*
X817114Y763780D01*
X817188Y763789D01*
X817282Y763822D01*
X817380Y763847D01*
X817446Y763881D01*
X817516Y763906D01*
X817600Y763961D01*
X817689Y764007D01*
X817746Y764055D01*
X817809Y764095D01*
X817878Y764167D01*
X817955Y764232D01*
X817999Y764292D01*
X818051Y764346D01*
X818102Y764432D01*
X818162Y764513D01*
X818191Y764581D01*
X818230Y764645D01*
X818260Y764741D01*
X818300Y764833D01*
X818313Y764906D01*
X818336Y764977D01*
X818344Y765077D01*
X818362Y765176D01*
X818358Y765250D01*
X818364Y765324D01*
X818349Y765424D01*
X818344Y765524D01*
X818323Y765595D01*
X818312Y765669D01*
X818275Y765762D01*
X818247Y765859D01*
X818211Y765924D01*
X818183Y765993D01*
X818126Y766075D01*
X818077Y766163D01*
X818012Y766239D01*
X817984Y766279D01*
X817958Y766303D01*
X817919Y766349D01*
X816109Y768158D01*
X814351Y772403D01*
X814351Y776997D01*
X816110Y781242D01*
X819358Y784490D01*
X823603Y786249D01*
X828197Y786249D01*
X832442Y784490D01*
X835690Y781242D01*
X837449Y776997D01*
X837449Y772403D01*
X835690Y768158D01*
X832442Y764910D01*
X828197Y763151D01*
X825994Y763151D01*
X825894Y763140D01*
X825794Y763138D01*
X825722Y763120D01*
X825648Y763111D01*
X825553Y763078D01*
X825456Y763053D01*
X825390Y763019D01*
X825320Y762994D01*
X825235Y762939D01*
X825146Y762893D01*
X825089Y762845D01*
X825027Y762805D01*
X824957Y762733D01*
X824881Y762668D01*
X824836Y762608D01*
X824785Y762554D01*
X824733Y762468D01*
X824674Y762387D01*
X824644Y762319D01*
X824606Y762255D01*
X824575Y762159D01*
X824536Y762067D01*
X824522Y761994D01*
X824500Y761923D01*
X824492Y761823D01*
X824474Y761724D01*
X824478Y761650D01*
X824472Y761576D01*
X824487Y761476D01*
X824492Y761376D01*
X824512Y761305D01*
X824523Y761231D01*
X824560Y761138D01*
X824588Y761041D01*
X824625Y760976D01*
X824652Y760907D01*
X824709Y760825D01*
X824758Y760737D01*
X824824Y760661D01*
X824851Y760621D01*
X824878Y760597D01*
X824917Y760551D01*
X827810Y757658D01*
X829949Y752494D01*
X829949Y746906D01*
X827810Y741742D01*
X823858Y737790D01*
X818694Y735651D01*
X813106Y735651D01*
G37*
%LPD*%
%LPC*%
G36*
X328593Y334819D02*
X328593Y334819D01*
X325623Y336050D01*
X323350Y338323D01*
X322119Y341293D01*
X322119Y344507D01*
X323350Y347477D01*
X325181Y349309D01*
X325260Y349408D01*
X325344Y349502D01*
X325368Y349544D01*
X325398Y349582D01*
X325452Y349696D01*
X325513Y349807D01*
X325526Y349853D01*
X325547Y349897D01*
X325573Y350020D01*
X325608Y350142D01*
X325613Y350203D01*
X325620Y350238D01*
X325619Y350286D01*
X325627Y350386D01*
X325627Y394610D01*
X326323Y396290D01*
X334373Y404340D01*
X334452Y404439D01*
X334536Y404533D01*
X334560Y404575D01*
X334590Y404613D01*
X334644Y404727D01*
X334705Y404838D01*
X334718Y404884D01*
X334739Y404928D01*
X334765Y405051D01*
X334800Y405173D01*
X334805Y405234D01*
X334812Y405269D01*
X334811Y405317D01*
X334819Y405417D01*
X334819Y408007D01*
X336050Y410977D01*
X338323Y413250D01*
X341293Y414481D01*
X344507Y414481D01*
X347477Y413250D01*
X349750Y410977D01*
X350981Y408007D01*
X350981Y404793D01*
X349750Y401823D01*
X347477Y399550D01*
X344507Y398319D01*
X341917Y398319D01*
X341791Y398305D01*
X341665Y398298D01*
X341619Y398285D01*
X341571Y398279D01*
X341452Y398237D01*
X341330Y398202D01*
X341288Y398178D01*
X341243Y398162D01*
X341136Y398093D01*
X341026Y398032D01*
X340980Y397992D01*
X340950Y397973D01*
X340916Y397938D01*
X340840Y397873D01*
X335219Y392252D01*
X335140Y392153D01*
X335056Y392059D01*
X335032Y392017D01*
X335002Y391979D01*
X334948Y391865D01*
X334887Y391754D01*
X334874Y391708D01*
X334853Y391664D01*
X334827Y391541D01*
X334792Y391419D01*
X334787Y391358D01*
X334780Y391323D01*
X334781Y391275D01*
X334773Y391175D01*
X334773Y350386D01*
X334787Y350261D01*
X334794Y350134D01*
X334807Y350088D01*
X334813Y350040D01*
X334855Y349921D01*
X334890Y349799D01*
X334914Y349757D01*
X334930Y349712D01*
X334999Y349606D01*
X335060Y349495D01*
X335100Y349449D01*
X335119Y349419D01*
X335154Y349385D01*
X335219Y349309D01*
X337050Y347477D01*
X338281Y344507D01*
X338281Y341293D01*
X337050Y338323D01*
X334777Y336050D01*
X331807Y334819D01*
X328593Y334819D01*
G37*
%LPD*%
%LPC*%
G36*
X546010Y649925D02*
X546010Y649925D01*
X545987Y649939D01*
X545968Y649956D01*
X545838Y650028D01*
X545711Y650104D01*
X545686Y650112D01*
X545663Y650125D01*
X545520Y650165D01*
X545379Y650210D01*
X545353Y650212D01*
X545328Y650220D01*
X545084Y650239D01*
X534415Y650239D01*
X534455Y650496D01*
X535036Y652283D01*
X535889Y653957D01*
X536994Y655478D01*
X538322Y656806D01*
X539843Y657911D01*
X541563Y658787D01*
X541597Y658810D01*
X541634Y658826D01*
X541742Y658906D01*
X541853Y658980D01*
X541881Y659010D01*
X541914Y659034D01*
X542001Y659136D01*
X542092Y659234D01*
X542113Y659269D01*
X542139Y659300D01*
X542200Y659419D01*
X542268Y659535D01*
X542279Y659574D01*
X542298Y659610D01*
X542330Y659740D01*
X542370Y659868D01*
X542372Y659909D01*
X542382Y659949D01*
X542384Y660083D01*
X542393Y660216D01*
X542387Y660256D01*
X542387Y660297D01*
X542359Y660428D01*
X542337Y660560D01*
X542322Y660598D01*
X542313Y660638D01*
X542256Y660758D01*
X542204Y660882D01*
X542181Y660916D01*
X542163Y660952D01*
X542080Y661057D01*
X542002Y661166D01*
X541971Y661193D01*
X541946Y661225D01*
X541841Y661307D01*
X541740Y661396D01*
X541704Y661415D01*
X541672Y661441D01*
X541454Y661552D01*
X539049Y662548D01*
X535548Y666049D01*
X533653Y670624D01*
X533653Y675576D01*
X535548Y680151D01*
X539049Y683652D01*
X543624Y685547D01*
X548576Y685547D01*
X553151Y683652D01*
X556652Y680151D01*
X558547Y675576D01*
X558547Y670624D01*
X556652Y666049D01*
X553151Y662548D01*
X550746Y661552D01*
X550710Y661532D01*
X550671Y661519D01*
X550558Y661448D01*
X550441Y661383D01*
X550411Y661355D01*
X550376Y661334D01*
X550282Y661239D01*
X550183Y661149D01*
X550160Y661115D01*
X550131Y661086D01*
X550061Y660972D01*
X549985Y660862D01*
X549970Y660824D01*
X549948Y660789D01*
X549906Y660662D01*
X549857Y660538D01*
X549851Y660497D01*
X549838Y660459D01*
X549825Y660325D01*
X549806Y660193D01*
X549809Y660152D01*
X549806Y660112D01*
X549824Y659979D01*
X549835Y659846D01*
X549847Y659807D01*
X549853Y659766D01*
X549901Y659642D01*
X549942Y659514D01*
X549963Y659479D01*
X549977Y659441D01*
X550052Y659330D01*
X550122Y659215D01*
X550150Y659186D01*
X550173Y659152D01*
X550271Y659062D01*
X550364Y658965D01*
X550399Y658943D01*
X550429Y658916D01*
X550637Y658787D01*
X552357Y657911D01*
X553878Y656806D01*
X555206Y655478D01*
X556311Y653957D01*
X557164Y652283D01*
X557745Y650496D01*
X557785Y650239D01*
X547116Y650239D01*
X547090Y650236D01*
X547064Y650238D01*
X546917Y650216D01*
X546770Y650199D01*
X546745Y650191D01*
X546719Y650187D01*
X546582Y650132D01*
X546442Y650082D01*
X546420Y650068D01*
X546395Y650058D01*
X546274Y649973D01*
X546149Y649893D01*
X546131Y649874D01*
X546109Y649859D01*
X546095Y649843D01*
X546010Y649925D01*
G37*
%LPD*%
%LPC*%
G36*
X73320Y483996D02*
X73320Y483996D01*
X67998Y486201D01*
X63926Y490273D01*
X61721Y495595D01*
X61721Y501355D01*
X63926Y506677D01*
X67998Y510749D01*
X73320Y512954D01*
X79080Y512954D01*
X84402Y510749D01*
X88474Y506677D01*
X90679Y501355D01*
X90679Y495595D01*
X88474Y490273D01*
X84402Y486201D01*
X79080Y483996D01*
X73320Y483996D01*
G37*
%LPD*%
%LPC*%
G36*
X225720Y483996D02*
X225720Y483996D01*
X220398Y486201D01*
X216326Y490273D01*
X214121Y495595D01*
X214121Y501355D01*
X216326Y506677D01*
X220398Y510749D01*
X225720Y512954D01*
X231480Y512954D01*
X236802Y510749D01*
X240874Y506677D01*
X243079Y501355D01*
X243079Y495595D01*
X240874Y490273D01*
X236802Y486201D01*
X231480Y483996D01*
X225720Y483996D01*
G37*
%LPD*%
%LPC*%
G36*
X225720Y350646D02*
X225720Y350646D01*
X220398Y352851D01*
X216326Y356923D01*
X214121Y362245D01*
X214121Y368005D01*
X216326Y373327D01*
X220398Y377399D01*
X225720Y379604D01*
X231480Y379604D01*
X236802Y377399D01*
X240874Y373327D01*
X243079Y368005D01*
X243079Y362245D01*
X240874Y356923D01*
X236802Y352851D01*
X231480Y350646D01*
X225720Y350646D01*
G37*
%LPD*%
%LPC*%
G36*
X73320Y350646D02*
X73320Y350646D01*
X67998Y352851D01*
X63926Y356923D01*
X61721Y362245D01*
X61721Y368005D01*
X63926Y373327D01*
X67998Y377399D01*
X73320Y379604D01*
X79080Y379604D01*
X84402Y377399D01*
X88474Y373327D01*
X90679Y368005D01*
X90679Y362245D01*
X88474Y356923D01*
X84402Y352851D01*
X79080Y350646D01*
X73320Y350646D01*
G37*
%LPD*%
%LPC*%
G36*
X506393Y398319D02*
X506393Y398319D01*
X503423Y399550D01*
X501150Y401823D01*
X499919Y404793D01*
X499919Y408007D01*
X501150Y410977D01*
X502981Y412809D01*
X503060Y412908D01*
X503144Y413002D01*
X503168Y413044D01*
X503198Y413082D01*
X503252Y413196D01*
X503313Y413307D01*
X503326Y413353D01*
X503347Y413397D01*
X503373Y413520D01*
X503408Y413642D01*
X503413Y413703D01*
X503420Y413738D01*
X503419Y413786D01*
X503427Y413886D01*
X503427Y437014D01*
X503413Y437139D01*
X503406Y437266D01*
X503393Y437312D01*
X503387Y437360D01*
X503345Y437479D01*
X503310Y437601D01*
X503286Y437643D01*
X503270Y437688D01*
X503201Y437794D01*
X503140Y437905D01*
X503100Y437951D01*
X503081Y437981D01*
X503046Y438015D01*
X502981Y438091D01*
X501150Y439923D01*
X499919Y442893D01*
X499919Y446107D01*
X501150Y449077D01*
X503423Y451350D01*
X506393Y452581D01*
X509607Y452581D01*
X512577Y451350D01*
X514850Y449077D01*
X516081Y446107D01*
X516081Y442893D01*
X514850Y439923D01*
X513019Y438091D01*
X512940Y437992D01*
X512856Y437898D01*
X512832Y437856D01*
X512802Y437818D01*
X512748Y437704D01*
X512687Y437593D01*
X512674Y437547D01*
X512653Y437503D01*
X512627Y437380D01*
X512592Y437258D01*
X512587Y437197D01*
X512580Y437162D01*
X512581Y437114D01*
X512573Y437014D01*
X512573Y413886D01*
X512587Y413761D01*
X512594Y413634D01*
X512607Y413588D01*
X512613Y413540D01*
X512655Y413421D01*
X512690Y413299D01*
X512714Y413257D01*
X512730Y413212D01*
X512799Y413106D01*
X512860Y412995D01*
X512900Y412949D01*
X512919Y412919D01*
X512954Y412885D01*
X513019Y412809D01*
X514850Y410977D01*
X516081Y408007D01*
X516081Y404793D01*
X514850Y401823D01*
X512577Y399550D01*
X509607Y398319D01*
X506393Y398319D01*
G37*
%LPD*%
%LPC*%
G36*
X682646Y330056D02*
X682646Y330056D01*
X677558Y332164D01*
X673664Y336058D01*
X671556Y341146D01*
X671556Y346654D01*
X673664Y351742D01*
X677558Y355636D01*
X682646Y357744D01*
X688154Y357744D01*
X693242Y355636D01*
X697136Y351742D01*
X699244Y346654D01*
X699244Y341146D01*
X697136Y336058D01*
X693242Y332164D01*
X688154Y330056D01*
X682646Y330056D01*
G37*
%LPD*%
%LPC*%
G36*
X772346Y482456D02*
X772346Y482456D01*
X767258Y484564D01*
X763364Y488458D01*
X761256Y493546D01*
X761256Y499054D01*
X763364Y504142D01*
X767258Y508036D01*
X772346Y510144D01*
X777854Y510144D01*
X782942Y508036D01*
X786836Y504142D01*
X788944Y499054D01*
X788944Y493546D01*
X786836Y488458D01*
X782942Y484564D01*
X777854Y482456D01*
X772346Y482456D01*
G37*
%LPD*%
%LPC*%
G36*
X822346Y607456D02*
X822346Y607456D01*
X817258Y609564D01*
X813364Y613458D01*
X811256Y618546D01*
X811256Y624054D01*
X813364Y629142D01*
X817258Y633036D01*
X822346Y635144D01*
X827854Y635144D01*
X832942Y633036D01*
X836836Y629142D01*
X838944Y624054D01*
X838944Y618546D01*
X836836Y613458D01*
X832942Y609564D01*
X827854Y607456D01*
X822346Y607456D01*
G37*
%LPD*%
%LPC*%
G36*
X772346Y607456D02*
X772346Y607456D01*
X767258Y609564D01*
X763364Y613458D01*
X761256Y618546D01*
X761256Y624054D01*
X763364Y629142D01*
X767258Y633036D01*
X772346Y635144D01*
X777854Y635144D01*
X782942Y633036D01*
X786836Y629142D01*
X788944Y624054D01*
X788944Y618546D01*
X786836Y613458D01*
X782942Y609564D01*
X777854Y607456D01*
X772346Y607456D01*
G37*
%LPD*%
%LPC*%
G36*
X822346Y482456D02*
X822346Y482456D01*
X817258Y484564D01*
X813364Y488458D01*
X811256Y493546D01*
X811256Y499054D01*
X813364Y504142D01*
X817258Y508036D01*
X822346Y510144D01*
X827854Y510144D01*
X832942Y508036D01*
X836836Y504142D01*
X838944Y499054D01*
X838944Y493546D01*
X836836Y488458D01*
X832942Y484564D01*
X827854Y482456D01*
X822346Y482456D01*
G37*
%LPD*%
%LPC*%
G36*
X632646Y455056D02*
X632646Y455056D01*
X627558Y457164D01*
X623664Y461058D01*
X621556Y466146D01*
X621556Y471654D01*
X623664Y476742D01*
X627558Y480636D01*
X632646Y482744D01*
X638154Y482744D01*
X643242Y480636D01*
X647136Y476742D01*
X649244Y471654D01*
X649244Y466146D01*
X647136Y461058D01*
X643242Y457164D01*
X638154Y455056D01*
X632646Y455056D01*
G37*
%LPD*%
%LPC*%
G36*
X949346Y455056D02*
X949346Y455056D01*
X944258Y457164D01*
X940364Y461058D01*
X938256Y466146D01*
X938256Y471654D01*
X940364Y476742D01*
X944258Y480636D01*
X949346Y482744D01*
X954854Y482744D01*
X959942Y480636D01*
X963836Y476742D01*
X965944Y471654D01*
X965944Y466146D01*
X963836Y461058D01*
X959942Y457164D01*
X954854Y455056D01*
X949346Y455056D01*
G37*
%LPD*%
%LPC*%
G36*
X682646Y455056D02*
X682646Y455056D01*
X677558Y457164D01*
X673664Y461058D01*
X671556Y466146D01*
X671556Y471654D01*
X673664Y476742D01*
X677558Y480636D01*
X682646Y482744D01*
X688154Y482744D01*
X693242Y480636D01*
X697136Y476742D01*
X699244Y471654D01*
X699244Y466146D01*
X697136Y461058D01*
X693242Y457164D01*
X688154Y455056D01*
X682646Y455056D01*
G37*
%LPD*%
%LPC*%
G36*
X899346Y330056D02*
X899346Y330056D01*
X894258Y332164D01*
X890364Y336058D01*
X888256Y341146D01*
X888256Y346654D01*
X890364Y351742D01*
X894258Y355636D01*
X899346Y357744D01*
X904854Y357744D01*
X909942Y355636D01*
X913836Y351742D01*
X915944Y346654D01*
X915944Y341146D01*
X913836Y336058D01*
X909942Y332164D01*
X904854Y330056D01*
X899346Y330056D01*
G37*
%LPD*%
%LPC*%
G36*
X632646Y330056D02*
X632646Y330056D01*
X627558Y332164D01*
X623664Y336058D01*
X621556Y341146D01*
X621556Y346654D01*
X623664Y351742D01*
X627558Y355636D01*
X632646Y357744D01*
X638154Y357744D01*
X643242Y355636D01*
X647136Y351742D01*
X649244Y346654D01*
X649244Y341146D01*
X647136Y336058D01*
X643242Y332164D01*
X638154Y330056D01*
X632646Y330056D01*
G37*
%LPD*%
%LPC*%
G36*
X949346Y330056D02*
X949346Y330056D01*
X944258Y332164D01*
X940364Y336058D01*
X938256Y341146D01*
X938256Y346654D01*
X940364Y351742D01*
X944258Y355636D01*
X949346Y357744D01*
X954854Y357744D01*
X959942Y355636D01*
X963836Y351742D01*
X965944Y346654D01*
X965944Y341146D01*
X963836Y336058D01*
X959942Y332164D01*
X954854Y330056D01*
X949346Y330056D01*
G37*
%LPD*%
%LPC*%
G36*
X899346Y455056D02*
X899346Y455056D01*
X894258Y457164D01*
X890364Y461058D01*
X888256Y466146D01*
X888256Y471654D01*
X890364Y476742D01*
X894258Y480636D01*
X899346Y482744D01*
X904854Y482744D01*
X909942Y480636D01*
X913836Y476742D01*
X915944Y471654D01*
X915944Y466146D01*
X913836Y461058D01*
X909942Y457164D01*
X904854Y455056D01*
X899346Y455056D01*
G37*
%LPD*%
%LPC*%
G36*
X822346Y302656D02*
X822346Y302656D01*
X817258Y304764D01*
X813364Y308658D01*
X811256Y313746D01*
X811256Y319254D01*
X813364Y324342D01*
X817258Y328236D01*
X822346Y330344D01*
X827854Y330344D01*
X832942Y328236D01*
X836836Y324342D01*
X838944Y319254D01*
X838944Y313746D01*
X836836Y308658D01*
X832942Y304764D01*
X827854Y302656D01*
X822346Y302656D01*
G37*
%LPD*%
%LPC*%
G36*
X772346Y302656D02*
X772346Y302656D01*
X767258Y304764D01*
X763364Y308658D01*
X761256Y313746D01*
X761256Y319254D01*
X763364Y324342D01*
X767258Y328236D01*
X772346Y330344D01*
X777854Y330344D01*
X782942Y328236D01*
X786836Y324342D01*
X788944Y319254D01*
X788944Y313746D01*
X786836Y308658D01*
X782942Y304764D01*
X777854Y302656D01*
X772346Y302656D01*
G37*
%LPD*%
%LPC*%
G36*
X822346Y177656D02*
X822346Y177656D01*
X817258Y179764D01*
X813364Y183658D01*
X811256Y188746D01*
X811256Y194254D01*
X813364Y199342D01*
X817258Y203236D01*
X822346Y205344D01*
X827854Y205344D01*
X832942Y203236D01*
X836836Y199342D01*
X838944Y194254D01*
X838944Y188746D01*
X836836Y183658D01*
X832942Y179764D01*
X827854Y177656D01*
X822346Y177656D01*
G37*
%LPD*%
%LPC*%
G36*
X772346Y177656D02*
X772346Y177656D01*
X767258Y179764D01*
X763364Y183658D01*
X761256Y188746D01*
X761256Y194254D01*
X763364Y199342D01*
X767258Y203236D01*
X772346Y205344D01*
X777854Y205344D01*
X782942Y203236D01*
X786836Y199342D01*
X788944Y194254D01*
X788944Y188746D01*
X786836Y183658D01*
X782942Y179764D01*
X777854Y177656D01*
X772346Y177656D01*
G37*
%LPD*%
%LPC*%
G36*
X555646Y175656D02*
X555646Y175656D01*
X550558Y177764D01*
X546664Y181658D01*
X544556Y186746D01*
X544556Y192254D01*
X546664Y197342D01*
X550558Y201236D01*
X555646Y203344D01*
X561154Y203344D01*
X566242Y201236D01*
X570136Y197342D01*
X572244Y192254D01*
X572244Y186746D01*
X570136Y181658D01*
X566242Y177764D01*
X561154Y175656D01*
X555646Y175656D01*
G37*
%LPD*%
%LPC*%
G36*
X505646Y175656D02*
X505646Y175656D01*
X500558Y177764D01*
X496664Y181658D01*
X494556Y186746D01*
X494556Y192254D01*
X496664Y197342D01*
X500558Y201236D01*
X505646Y203344D01*
X511154Y203344D01*
X516242Y201236D01*
X520136Y197342D01*
X522244Y192254D01*
X522244Y186746D01*
X520136Y181658D01*
X516242Y177764D01*
X511154Y175656D01*
X505646Y175656D01*
G37*
%LPD*%
%LPC*%
G36*
X555646Y50656D02*
X555646Y50656D01*
X550558Y52764D01*
X546664Y56658D01*
X544556Y61746D01*
X544556Y67254D01*
X546664Y72342D01*
X550558Y76236D01*
X555646Y78344D01*
X561154Y78344D01*
X566242Y76236D01*
X570136Y72342D01*
X572244Y67254D01*
X572244Y61746D01*
X570136Y56658D01*
X566242Y52764D01*
X561154Y50656D01*
X555646Y50656D01*
G37*
%LPD*%
%LPC*%
G36*
X505646Y50656D02*
X505646Y50656D01*
X500558Y52764D01*
X496664Y56658D01*
X494556Y61746D01*
X494556Y67254D01*
X496664Y72342D01*
X500558Y76236D01*
X505646Y78344D01*
X511154Y78344D01*
X516242Y76236D01*
X520136Y72342D01*
X522244Y67254D01*
X522244Y61746D01*
X520136Y56658D01*
X516242Y52764D01*
X511154Y50656D01*
X505646Y50656D01*
G37*
%LPD*%
%LPC*%
G36*
X181775Y546861D02*
X181775Y546861D01*
X177387Y548679D01*
X174029Y552037D01*
X172211Y556425D01*
X172211Y561175D01*
X174029Y565563D01*
X177387Y568921D01*
X181775Y570739D01*
X186525Y570739D01*
X190913Y568921D01*
X194271Y565563D01*
X196089Y561175D01*
X196089Y556425D01*
X194271Y552037D01*
X190913Y548679D01*
X186525Y546861D01*
X181775Y546861D01*
G37*
%LPD*%
%LPC*%
G36*
X118275Y546861D02*
X118275Y546861D01*
X113887Y548679D01*
X110529Y552037D01*
X108711Y556425D01*
X108711Y561175D01*
X110529Y565563D01*
X113887Y568921D01*
X118275Y570739D01*
X123025Y570739D01*
X127413Y568921D01*
X130771Y565563D01*
X132589Y561175D01*
X132589Y556425D01*
X130771Y552037D01*
X127413Y548679D01*
X123025Y546861D01*
X118275Y546861D01*
G37*
%LPD*%
%LPC*%
G36*
X181775Y496061D02*
X181775Y496061D01*
X177387Y497879D01*
X174029Y501237D01*
X172211Y505625D01*
X172211Y510375D01*
X174029Y514763D01*
X177387Y518121D01*
X181775Y519939D01*
X186525Y519939D01*
X190913Y518121D01*
X194271Y514763D01*
X196089Y510375D01*
X196089Y505625D01*
X194271Y501237D01*
X190913Y497879D01*
X186525Y496061D01*
X181775Y496061D01*
G37*
%LPD*%
%LPC*%
G36*
X118275Y496061D02*
X118275Y496061D01*
X113887Y497879D01*
X110529Y501237D01*
X108711Y505625D01*
X108711Y510375D01*
X110529Y514763D01*
X113887Y518121D01*
X118275Y519939D01*
X123025Y519939D01*
X127413Y518121D01*
X130771Y514763D01*
X132589Y510375D01*
X132589Y505625D01*
X130771Y501237D01*
X127413Y497879D01*
X123025Y496061D01*
X118275Y496061D01*
G37*
%LPD*%
%LPC*%
G36*
X66973Y662479D02*
X66973Y662479D01*
X64003Y663710D01*
X61730Y665983D01*
X60499Y668953D01*
X60499Y672167D01*
X61730Y675137D01*
X64003Y677410D01*
X66973Y678641D01*
X70187Y678641D01*
X73157Y677410D01*
X75430Y675137D01*
X76661Y672167D01*
X76661Y668953D01*
X75430Y665983D01*
X73157Y663710D01*
X70187Y662479D01*
X66973Y662479D01*
G37*
%LPD*%
%LPC*%
G36*
X912793Y83359D02*
X912793Y83359D01*
X909823Y84590D01*
X907550Y86863D01*
X906319Y89833D01*
X906319Y93047D01*
X907550Y96017D01*
X909823Y98290D01*
X912793Y99521D01*
X916007Y99521D01*
X918977Y98290D01*
X921250Y96017D01*
X922481Y93047D01*
X922481Y89833D01*
X921250Y86863D01*
X918977Y84590D01*
X916007Y83359D01*
X912793Y83359D01*
G37*
%LPD*%
%LPC*%
G36*
X547033Y731059D02*
X547033Y731059D01*
X544063Y732290D01*
X541790Y734563D01*
X540559Y737533D01*
X540559Y740747D01*
X541790Y743717D01*
X544063Y745990D01*
X547033Y747221D01*
X550247Y747221D01*
X553217Y745990D01*
X555490Y743717D01*
X556721Y740747D01*
X556721Y737533D01*
X555490Y734563D01*
X553217Y732290D01*
X550247Y731059D01*
X547033Y731059D01*
G37*
%LPD*%
%LPC*%
G36*
X508933Y250999D02*
X508933Y250999D01*
X505963Y252230D01*
X503690Y254503D01*
X502459Y257473D01*
X502459Y260687D01*
X503690Y263657D01*
X505963Y265930D01*
X508933Y267161D01*
X512147Y267161D01*
X515117Y265930D01*
X517390Y263657D01*
X518621Y260687D01*
X518621Y257473D01*
X517390Y254503D01*
X515117Y252230D01*
X512147Y250999D01*
X508933Y250999D01*
G37*
%LPD*%
%LPC*%
G36*
X180022Y332422D02*
X180022Y332422D01*
X180022Y341421D01*
X180477Y341349D01*
X182188Y340793D01*
X183791Y339976D01*
X185247Y338919D01*
X186519Y337647D01*
X187576Y336191D01*
X188393Y334588D01*
X188949Y332877D01*
X189021Y332422D01*
X180022Y332422D01*
G37*
%LPD*%
%LPC*%
G36*
X180022Y327978D02*
X180022Y327978D01*
X189021Y327978D01*
X188949Y327523D01*
X188393Y325812D01*
X187576Y324209D01*
X186519Y322753D01*
X185247Y321481D01*
X183791Y320424D01*
X182188Y319607D01*
X180477Y319051D01*
X180022Y318979D01*
X180022Y327978D01*
G37*
%LPD*%
%LPC*%
G36*
X53022Y404178D02*
X53022Y404178D01*
X62021Y404178D01*
X61949Y403723D01*
X61393Y402012D01*
X60576Y400409D01*
X59519Y398953D01*
X58247Y397681D01*
X56791Y396624D01*
X55188Y395807D01*
X53477Y395251D01*
X53022Y395179D01*
X53022Y404178D01*
G37*
%LPD*%
%LPC*%
G36*
X48123Y395251D02*
X48123Y395251D01*
X46412Y395807D01*
X44809Y396624D01*
X43353Y397681D01*
X42081Y398953D01*
X41024Y400409D01*
X40207Y402012D01*
X39651Y403723D01*
X39579Y404178D01*
X48578Y404178D01*
X48578Y395179D01*
X48123Y395251D01*
G37*
%LPD*%
D10*
X546100Y393700D03*
X546100Y419100D03*
X546100Y444500D03*
X546100Y469900D03*
X546100Y495300D03*
X546100Y520700D03*
X546100Y546100D03*
X546100Y571500D03*
X546100Y596900D03*
X546100Y622300D03*
X546100Y647700D03*
X546100Y673100D03*
D11*
X393700Y546100D03*
D12*
X393700Y520700D03*
X393700Y495300D03*
X393700Y469900D03*
X393700Y444500D03*
X393700Y419100D03*
X393700Y393700D03*
D13*
X76200Y498475D03*
X228600Y498475D03*
X228600Y365125D03*
X76200Y365125D03*
D14*
X177800Y330200D03*
X152400Y330200D03*
X127000Y330200D03*
X50800Y431800D03*
X50800Y406400D03*
X50800Y457200D03*
X184150Y508000D03*
X120650Y508000D03*
X120650Y558800D03*
X184150Y558800D03*
D15*
X775100Y191500D03*
X825100Y191500D03*
X825100Y316500D03*
X775100Y316500D03*
X508400Y64500D03*
X558400Y64500D03*
X558400Y189500D03*
X508400Y189500D03*
X775100Y496300D03*
X825100Y496300D03*
X825100Y621300D03*
X775100Y621300D03*
X902100Y343900D03*
X952100Y343900D03*
X952100Y468900D03*
X902100Y468900D03*
X635400Y343900D03*
X685400Y343900D03*
X685400Y468900D03*
X635400Y468900D03*
D16*
X885900Y749700D03*
X815900Y749700D03*
D17*
X875900Y774700D03*
X825900Y774700D03*
D16*
X187400Y749700D03*
X117400Y749700D03*
D17*
X177400Y774700D03*
X127400Y774700D03*
D18*
X495300Y596900D03*
D19*
X431800Y596900D01*
D18*
X431800Y596900D03*
D19*
X88900Y596900D02*
X50800Y558800D01*
X50800Y457200D01*
X88900Y596900D02*
X431800Y596900D01*
X127000Y381000D02*
X50800Y457200D01*
X127000Y381000D02*
X127000Y330200D01*
D18*
X469900Y381000D03*
D19*
X457200Y393700D01*
X393700Y393700D01*
D18*
X330200Y342900D03*
D19*
X330200Y393700D01*
X342900Y406400D01*
D18*
X342900Y406400D03*
D19*
X393700Y444500D02*
X520700Y571500D01*
X520700Y685800D02*
X533400Y698500D01*
X609600Y698500D01*
X520700Y685800D02*
X520700Y571500D01*
X662940Y645160D02*
X665480Y645160D01*
D18*
X665480Y645160D03*
D19*
X662940Y645160D02*
X609600Y698500D01*
D18*
X749300Y342900D03*
X482600Y393700D03*
D19*
X444500Y431800D01*
D18*
X444500Y431800D03*
X797560Y447040D03*
D19*
X749300Y398780D01*
X749300Y342900D01*
D18*
X508000Y406400D03*
D19*
X508000Y444500D01*
D18*
X508000Y444500D03*
X355600Y368300D03*
D19*
X520700Y368300D01*
X546100Y393700D01*
D18*
X68580Y670560D03*
X510540Y259080D03*
X914400Y91440D03*
X548640Y739140D03*
M02*
