M48
;GenerationSoftware,Autodesk,EAGLE,9.5.2*%
;CreationDate,2020-04-03T23:32:20Z*%
FMAT,2
ICI,OFF
METRIC,TZ,000.000
T9C0.600
T8C0.800
T7C0.889
T6C0.900
T5C1.016
T4C1.100
T3C1.200
T2C1.397
T1C2.800
%
G90
M71
T1
X96774Y3810
X3810Y3810
T2
X22860Y49847
X22860Y36513
X7620Y36513
X7620Y49847
T3
X95210Y46890
X95210Y34390
X90210Y34390
X77510Y62130
X82510Y62130
X82510Y49630
X77510Y49630
X50840Y18950
X55840Y18950
X68540Y34390
X55840Y6450
X50840Y6450
X77510Y31650
X82510Y31650
X82510Y19150
X77510Y19150
X90210Y46890
X63540Y34390
X68540Y46890
X63540Y46890
X88590Y74970
X81590Y74970
X18740Y74970
X11740Y74970
T4
X39370Y52070
X39370Y49530
X39370Y46990
X39370Y44450
X39370Y41910
X39370Y39370
X39370Y54610
T5
X54610Y59690
X54610Y62230
X54610Y64770
X54610Y67310
X54610Y41910
X54610Y39370
X54610Y44450
X54610Y46990
X54610Y49530
X54610Y52070
X54610Y54610
X54610Y57150
T6
X12065Y50800
X12065Y55880
X18415Y55880
X18415Y50800
T7
X17780Y33020
X15240Y33020
X12700Y33020
X5080Y43180
X5080Y40640
X5080Y45720
T8
X87590Y77470
X82590Y77470
X17740Y77470
X12740Y77470
T9
X54864Y73914
X91440Y9144
X51054Y25908
X6858Y67056
X35560Y36830
X50800Y44450
X79756Y44704
X44450Y43180
X48260Y39370
X74930Y34290
X66548Y64516
X34290Y40640
X33020Y34290
X46990Y38100
X43180Y59690
X50800Y40640
X49530Y59690
M30