G04 EAGLE Gerber RS-274X export*
G75*
%MOMM*%
%FSLAX34Y34*%
%LPD*%
%IN*%
%IPPOS*%
%AMOC8*
5,1,8,0,0,1.08239X$1,22.5*%
G01*
%ADD10C,0.254000*%


D10*
X0Y0D02*
X1000000Y0D01*
X1000000Y800000D01*
X0Y800000D01*
X0Y0D01*
X52100Y37600D02*
X52029Y36603D01*
X51886Y35613D01*
X51674Y34636D01*
X51392Y33676D01*
X51043Y32739D01*
X50627Y31829D01*
X50148Y30952D01*
X49607Y30110D01*
X49008Y29310D01*
X48353Y28554D01*
X47646Y27847D01*
X46890Y27192D01*
X46090Y26593D01*
X45248Y26052D01*
X44371Y25573D01*
X43461Y25157D01*
X42524Y24808D01*
X41565Y24526D01*
X40587Y24314D01*
X39598Y24171D01*
X38600Y24100D01*
X37600Y24100D01*
X36603Y24171D01*
X35613Y24314D01*
X34636Y24526D01*
X33676Y24808D01*
X32739Y25157D01*
X31829Y25573D01*
X30952Y26052D01*
X30110Y26593D01*
X29310Y27192D01*
X28554Y27847D01*
X27847Y28554D01*
X27192Y29310D01*
X26593Y30110D01*
X26052Y30952D01*
X25573Y31829D01*
X25157Y32739D01*
X24808Y33676D01*
X24526Y34636D01*
X24314Y35613D01*
X24171Y36603D01*
X24100Y37600D01*
X24100Y38600D01*
X24171Y39598D01*
X24314Y40587D01*
X24526Y41565D01*
X24808Y42524D01*
X25157Y43461D01*
X25573Y44371D01*
X26052Y45248D01*
X26593Y46090D01*
X27192Y46890D01*
X27847Y47646D01*
X28554Y48353D01*
X29310Y49008D01*
X30110Y49607D01*
X30952Y50148D01*
X31829Y50627D01*
X32739Y51043D01*
X33676Y51392D01*
X34636Y51674D01*
X35613Y51886D01*
X36603Y52029D01*
X37600Y52100D01*
X38600Y52100D01*
X39598Y52029D01*
X40587Y51886D01*
X41565Y51674D01*
X42524Y51392D01*
X43461Y51043D01*
X44371Y50627D01*
X45248Y50148D01*
X46090Y49607D01*
X46890Y49008D01*
X47646Y48353D01*
X48353Y47646D01*
X49008Y46890D01*
X49607Y46090D01*
X50148Y45248D01*
X50627Y44371D01*
X51043Y43461D01*
X51392Y42524D01*
X51674Y41565D01*
X51886Y40587D01*
X52029Y39598D01*
X52100Y38600D01*
X52100Y37600D01*
X981740Y37600D02*
X981669Y36603D01*
X981526Y35613D01*
X981314Y34636D01*
X981032Y33676D01*
X980683Y32739D01*
X980267Y31829D01*
X979788Y30952D01*
X979247Y30110D01*
X978648Y29310D01*
X977993Y28554D01*
X977286Y27847D01*
X976530Y27192D01*
X975730Y26593D01*
X974888Y26052D01*
X974011Y25573D01*
X973101Y25157D01*
X972164Y24808D01*
X971205Y24526D01*
X970227Y24314D01*
X969238Y24171D01*
X968240Y24100D01*
X967240Y24100D01*
X966243Y24171D01*
X965253Y24314D01*
X964276Y24526D01*
X963316Y24808D01*
X962379Y25157D01*
X961469Y25573D01*
X960592Y26052D01*
X959750Y26593D01*
X958950Y27192D01*
X958194Y27847D01*
X957487Y28554D01*
X956832Y29310D01*
X956233Y30110D01*
X955692Y30952D01*
X955213Y31829D01*
X954797Y32739D01*
X954448Y33676D01*
X954166Y34636D01*
X953954Y35613D01*
X953811Y36603D01*
X953740Y37600D01*
X953740Y38600D01*
X953811Y39598D01*
X953954Y40587D01*
X954166Y41565D01*
X954448Y42524D01*
X954797Y43461D01*
X955213Y44371D01*
X955692Y45248D01*
X956233Y46090D01*
X956832Y46890D01*
X957487Y47646D01*
X958194Y48353D01*
X958950Y49008D01*
X959750Y49607D01*
X960592Y50148D01*
X961469Y50627D01*
X962379Y51043D01*
X963316Y51392D01*
X964276Y51674D01*
X965253Y51886D01*
X966243Y52029D01*
X967240Y52100D01*
X968240Y52100D01*
X969238Y52029D01*
X970227Y51886D01*
X971205Y51674D01*
X972164Y51392D01*
X973101Y51043D01*
X974011Y50627D01*
X974888Y50148D01*
X975730Y49607D01*
X976530Y49008D01*
X977286Y48353D01*
X977993Y47646D01*
X978648Y46890D01*
X979247Y46090D01*
X979788Y45248D01*
X980267Y44371D01*
X980683Y43461D01*
X981032Y42524D01*
X981314Y41565D01*
X981526Y40587D01*
X981669Y39598D01*
X981740Y38600D01*
X981740Y37600D01*
M02*
