G04 EAGLE Gerber RS-274X export*
G75*
%MOMM*%
%FSLAX34Y34*%
%LPD*%
%INSoldermask Bottom*%
%IPPOS*%
%AMOC8*
5,1,8,0,0,1.08239X$1,22.5*%
G01*
%ADD10C,3.003200*%
%ADD11C,2.082800*%
%ADD12R,1.853200X1.853200*%
%ADD13C,1.853200*%
%ADD14C,2.489200*%
%ADD15C,1.981200*%
%ADD16C,2.362200*%
%ADD17C,2.286000*%
%ADD18C,1.778000*%
%ADD19C,1.209600*%


D10*
X38100Y38100D03*
X967740Y38100D03*
D11*
X546100Y393700D03*
X546100Y419100D03*
X546100Y444500D03*
X546100Y469900D03*
X546100Y495300D03*
X546100Y520700D03*
X546100Y546100D03*
X546100Y571500D03*
X546100Y596900D03*
X546100Y622300D03*
X546100Y647700D03*
X546100Y673100D03*
D12*
X393700Y546100D03*
D13*
X393700Y520700D03*
X393700Y495300D03*
X393700Y469900D03*
X393700Y444500D03*
X393700Y419100D03*
X393700Y393700D03*
D14*
X76200Y498475D03*
X228600Y498475D03*
X228600Y365125D03*
X76200Y365125D03*
D15*
X177800Y330200D03*
X152400Y330200D03*
X127000Y330200D03*
X50800Y431800D03*
X50800Y406400D03*
X50800Y457200D03*
X184150Y508000D03*
X120650Y508000D03*
X120650Y558800D03*
X184150Y558800D03*
D16*
X775100Y191500D03*
X825100Y191500D03*
X825100Y316500D03*
X775100Y316500D03*
X508400Y64500D03*
X558400Y64500D03*
X558400Y189500D03*
X508400Y189500D03*
X775100Y496300D03*
X825100Y496300D03*
X825100Y621300D03*
X775100Y621300D03*
X902100Y343900D03*
X952100Y343900D03*
X952100Y468900D03*
X902100Y468900D03*
X635400Y343900D03*
X685400Y343900D03*
X685400Y468900D03*
X635400Y468900D03*
D17*
X885900Y749700D03*
D18*
X825900Y774700D03*
X875900Y774700D03*
D17*
X815900Y749700D03*
X187400Y749700D03*
D18*
X127400Y774700D03*
X177400Y774700D03*
D17*
X117400Y749700D03*
D19*
X495300Y596900D03*
X431800Y596900D03*
X469900Y381000D03*
X330200Y342900D03*
X342900Y406400D03*
X665480Y645160D03*
X749300Y342900D03*
X482600Y393700D03*
X444500Y431800D03*
X797560Y447040D03*
X508000Y406400D03*
X508000Y444500D03*
X355600Y368300D03*
X68580Y670560D03*
X510540Y259080D03*
X914400Y91440D03*
X548640Y739140D03*
M02*
